JingdianCaoshuHeiti.ufo
<glyph name="exclam" format="2">
  <advance width="310"/>
  <unicode hex="0021"/>
  <outline>
    <contour>
      <point x="203" y="750" type="line"/>
      <point x="107" y="750" type="line"/>
      <point x="119" y="224" type="line"/>
      <point x="191" y="224" type="line"/>
    </contour>
    <contour>
      <point x="155" y="-15" type="curve" smooth="yes"/>
      <point x="194" y="-15"/>
      <point x="225" y="16"/>
      <point x="225" y="55" type="curve" smooth="yes"/>
      <point x="225" y="94"/>
      <point x="194" y="125"/>
      <point x="155" y="125" type="curve" smooth="yes"/>
      <point x="116" y="125"/>
      <point x="85" y="94"/>
      <point x="85" y="55" type="curve" smooth="yes"/>
      <point x="85" y="16"/>
      <point x="116" y="-15"/>
    </contour>
  </outline>
</glyph>
<glyph name="numbersign" format="2">
  <advance width="641"/>
  <unicode hex="0023"/>
  <outline>
    <contour>
      <point x="85" y="446" type="line"/>
      <point x="586" y="445" type="line"/>
      <point x="586" y="509" type="line"/>
      <point x="85" y="510" type="line"/>
    </contour>
    <contour>
      <point x="401" y="0" type="line"/>
      <point x="545" y="750" type="line"/>
      <point x="475" y="750" type="line"/>
      <point x="331" y="0" type="line"/>
    </contour>
    <contour>
      <point x="55" y="239" type="line"/>
      <point x="557" y="238" type="line"/>
      <point x="557" y="302" type="line"/>
      <point x="55" y="303" type="line"/>
    </contour>
    <contour>
      <point x="226" y="750" type="line"/>
      <point x="82" y="0" type="line"/>
      <point x="152" y="0" type="line"/>
      <point x="296" y="750" type="line"/>
    </contour>
  </outline>
</glyph>
<glyph name="dollar" format="2">
  <advance width="675"/>
  <unicode hex="0024"/>
  <note>
dollar
</note>
  <anchor x="338" y="750" name="top"/>
  <anchor x="338" y="0" name="bottom"/>
  <outline>
    <contour>
      <point x="313" y="721" type="line"/>
      <point x="378" y="721" type="line"/>
      <point x="385" y="845" type="line"/>
      <point x="308" y="845" type="line"/>
    </contour>
    <contour>
      <point x="373" y="27" type="line"/>
      <point x="309" y="27" type="line"/>
      <point x="302" y="-104" type="line"/>
      <point x="379" y="-104" type="line"/>
    </contour>
    <contour>
      <point x="76" y="565" type="qcurve"/>
      <point x="76" y="505"/>
      <point x="145" y="423"/>
      <point x="244" y="372"/>
      <point x="324" y="342" type="qcurve"/>
      <point x="391" y="316"/>
      <point x="468" y="279"/>
      <point x="520" y="224"/>
      <point x="520" y="186" type="qcurve"/>
      <point x="520" y="126"/>
      <point x="425" y="66"/>
      <point x="345" y="66" type="qcurve"/>
      <point x="255" y="66"/>
      <point x="152" y="145"/>
      <point x="152" y="217" type="qcurve"/>
      <point x="54" y="217" type="line"/>
      <point x="53" y="148"/>
      <point x="126" y="43"/>
      <point x="258" y="-14"/>
      <point x="341" y="-14" type="qcurve"/>
      <point x="420" y="-14"/>
      <point x="546" y="36"/>
      <point x="618" y="132"/>
      <point x="618" y="196" type="qcurve"/>
      <point x="618" y="256"/>
      <point x="548" y="338"/>
      <point x="448" y="388"/>
      <point x="366" y="418" type="qcurve"/>
      <point x="299" y="443"/>
      <point x="222" y="479"/>
      <point x="171" y="531"/>
      <point x="171" y="567" type="qcurve"/>
      <point x="171" y="626"/>
      <point x="262" y="687"/>
      <point x="340" y="687" type="qcurve"/>
      <point x="425" y="687"/>
      <point x="517" y="611"/>
      <point x="517" y="541" type="qcurve"/>
      <point x="615" y="541" type="line"/>
      <point x="611" y="647"/>
      <point x="467" y="765"/>
      <point x="341" y="765" type="qcurve"/>
      <point x="268" y="765"/>
      <point x="147" y="715"/>
      <point x="76" y="624"/>
    </contour>
  </outline>
</glyph>
<glyph name="percent" format="2">
  <advance width="793"/>
  <unicode hex="0025"/>
  <outline>
    <contour>
      <point x="654" y="750" type="line"/>
      <point x="563" y="750" type="line"/>
      <point x="107" y="0" type="line"/>
      <point x="199" y="0" type="line"/>
    </contour>
    <contour>
      <point x="232" y="440" type="curve" smooth="yes"/>
      <point x="320" y="440"/>
      <point x="390" y="510"/>
      <point x="390" y="598" type="curve" smooth="yes"/>
      <point x="390" y="686"/>
      <point x="320" y="756"/>
      <point x="232" y="756" type="curve" smooth="yes"/>
      <point x="144" y="756"/>
      <point x="74" y="686"/>
      <point x="74" y="598" type="curve" smooth="yes"/>
      <point x="74" y="510"/>
      <point x="144" y="440"/>
    </contour>
    <contour>
      <point x="232" y="518" type="curve" smooth="yes"/>
      <point x="187" y="518"/>
      <point x="152" y="553"/>
      <point x="152" y="598" type="curve" smooth="yes"/>
      <point x="152" y="643"/>
      <point x="187" y="678"/>
      <point x="232" y="678" type="curve" smooth="yes"/>
      <point x="277" y="678"/>
      <point x="312" y="643"/>
      <point x="312" y="598" type="curve" smooth="yes"/>
      <point x="312" y="553"/>
      <point x="277" y="518"/>
    </contour>
    <contour>
      <point x="561" y="-5" type="curve" smooth="yes"/>
      <point x="649" y="-5"/>
      <point x="719" y="65"/>
      <point x="719" y="153" type="curve" smooth="yes"/>
      <point x="719" y="241"/>
      <point x="649" y="311"/>
      <point x="561" y="311" type="curve" smooth="yes"/>
      <point x="473" y="311"/>
      <point x="403" y="241"/>
      <point x="403" y="153" type="curve" smooth="yes"/>
      <point x="403" y="65"/>
      <point x="473" y="-5"/>
    </contour>
    <contour>
      <point x="561" y="73" type="curve" smooth="yes"/>
      <point x="516" y="73"/>
      <point x="481" y="108"/>
      <point x="481" y="153" type="curve" smooth="yes"/>
      <point x="481" y="198"/>
      <point x="516" y="233"/>
      <point x="561" y="233" type="curve" smooth="yes"/>
      <point x="606" y="233"/>
      <point x="641" y="198"/>
      <point x="641" y="153" type="curve" smooth="yes"/>
      <point x="641" y="108"/>
      <point x="606" y="73"/>
    </contour>
  </outline>
</glyph>
<glyph name="ampersand" format="2">
  <advance width="702"/>
  <unicode hex="0026"/>
  <note>
ampersand
</note>
  <outline>
    <contour>
      <point x="401" y="607" type="qcurve"/>
      <point x="401" y="578"/>
      <point x="362" y="525"/>
      <point x="304" y="482"/>
      <point x="252" y="449" type="qcurve"/>
      <point x="185" y="407"/>
      <point x="103" y="343"/>
      <point x="45" y="253"/>
      <point x="45" y="197" type="qcurve"/>
      <point x="45" y="135"/>
      <point x="109" y="38"/>
      <point x="218" y="-15"/>
      <point x="284" y="-15" type="qcurve"/>
      <point x="375" y="-15"/>
      <point x="533" y="83"/>
      <point x="630" y="248"/>
      <point x="636" y="345" type="qcurve"/>
      <point x="548" y="345" type="line"/>
      <point x="540" y="271"/>
      <point x="465" y="141"/>
      <point x="354" y="63"/>
      <point x="294" y="63" type="qcurve"/>
      <point x="248" y="63"/>
      <point x="177" y="103"/>
      <point x="139" y="170"/>
      <point x="139" y="209" type="qcurve"/>
      <point x="139" y="247"/>
      <point x="183" y="311"/>
      <point x="247" y="361"/>
      <point x="302" y="397" type="qcurve"/>
      <point x="361" y="436"/>
      <point x="434" y="493"/>
      <point x="484" y="571"/>
      <point x="484" y="619" type="qcurve"/>
      <point x="484" y="663"/>
      <point x="434" y="730"/>
      <point x="352" y="765"/>
      <point x="304" y="765" type="qcurve"/>
      <point x="251" y="765"/>
      <point x="162" y="724"/>
      <point x="109" y="648"/>
      <point x="109" y="598" type="qcurve"/>
      <point x="109" y="542"/>
      <point x="220" y="354"/>
      <point x="287" y="284" type="qcurve"/>
      <point x="555" y="1" type="line"/>
      <point x="667" y="1" type="line"/>
      <point x="351" y="335" type="line" smooth="yes"/>
      <point x="295" y="395"/>
      <point x="197" y="555"/>
      <point x="197" y="594" type="qcurve"/>
      <point x="197" y="635"/>
      <point x="260" y="687"/>
      <point x="306" y="687" type="qcurve"/>
      <point x="346" y="687"/>
      <point x="401" y="642"/>
    </contour>
  </outline>
</glyph>
<glyph name="quotesingle" format="2">
  <advance width="203"/>
  <unicode hex="0027"/>
  <outline>
    <contour>
      <point x="56" y="750" type="line"/>
      <point x="67" y="484" type="line"/>
      <point x="132" y="484" type="line"/>
      <point x="147" y="750" type="line"/>
    </contour>
  </outline>
</glyph>
<glyph name="parenleft" format="2">
  <advance width="328"/>
  <unicode hex="0028"/>
  <note>
parenleft
</note>
  <outline>
    <contour>
      <point x="190" y="750" type="line"/>
      <point x="121" y="661"/>
      <point x="55" y="408"/>
      <point x="55" y="292" type="qcurve"/>
      <point x="55" y="155"/>
      <point x="118" y="-73"/>
      <point x="190" y="-166" type="qcurve"/>
      <point x="288" y="-166" type="line"/>
      <point x="209" y="-73"/>
      <point x="143" y="174"/>
      <point x="143" y="292" type="qcurve"/>
      <point x="143" y="405"/>
      <point x="209" y="658"/>
      <point x="288" y="750" type="qcurve"/>
    </contour>
  </outline>
</glyph>
<glyph name="parenright" format="2">
  <advance width="415"/>
  <unicode hex="0029"/>
  <outline>
    <contour>
      <point x="38" y="771" type="curve"/>
      <point x="38" y="707" type="line"/>
      <point x="227" y="707"/>
      <point x="271" y="418"/>
      <point x="271" y="291" type="curve"/>
      <point x="271" y="163"/>
      <point x="228" y="-122"/>
      <point x="38" y="-122" type="curve"/>
      <point x="38" y="-186" type="line"/>
      <point x="287" y="-186"/>
      <point x="360" y="115"/>
      <point x="360" y="291" type="curve"/>
      <point x="360" y="467"/>
      <point x="287" y="771"/>
    </contour>
  </outline>
</glyph>
<glyph name="asterisk" format="2">
  <advance width="515"/>
  <unicode hex="002A"/>
  <outline>
    <contour>
      <point x="140" y="290" type="line"/>
      <point x="258" y="441" type="line"/>
      <point x="376" y="290" type="line"/>
      <point x="429" y="341" type="line"/>
      <point x="299" y="474" type="line"/>
      <point x="479" y="520" type="line"/>
      <point x="455" y="588" type="line"/>
      <point x="283" y="520" type="line"/>
      <point x="297" y="702" type="line"/>
      <point x="219" y="702" type="line"/>
      <point x="233" y="520" type="line"/>
      <point x="61" y="588" type="line"/>
      <point x="37" y="520" type="line"/>
      <point x="217" y="474" type="line"/>
      <point x="87" y="341" type="line"/>
    </contour>
  </outline>
</glyph>
<glyph name="plus" format="2">
  <advance width="668"/>
  <unicode hex="002B"/>
  <outline>
    <contour>
      <point x="290" y="599" type="line"/>
      <point x="290" y="373" type="line"/>
      <point x="50" y="373" type="line"/>
      <point x="50" y="289" type="line"/>
      <point x="290" y="289" type="line"/>
      <point x="290" y="63" type="line"/>
      <point x="378" y="63" type="line"/>
      <point x="378" y="289" type="line"/>
      <point x="618" y="289" type="line"/>
      <point x="618" y="373" type="line"/>
      <point x="378" y="373" type="line"/>
      <point x="378" y="599" type="line"/>
    </contour>
  </outline>
</glyph>
<glyph name="comma" format="2">
  <advance width="270"/>
  <unicode hex="002C"/>
  <outline>
    <contour>
      <point x="130" y="-133" type="line"/>
      <point x="197" y="97" type="line"/>
      <point x="112" y="97" type="line"/>
      <point x="55" y="-132" type="line"/>
    </contour>
  </outline>
</glyph>
<glyph name="hyphen" format="2">
  <advance width="445"/>
  <unicode hex="002D"/>
  <outline>
    <contour>
      <point x="395" y="373" type="line"/>
      <point x="50" y="373" type="line"/>
      <point x="50" y="289" type="line"/>
      <point x="395" y="289" type="line"/>
    </contour>
  </outline>
</glyph>
<glyph name="period" format="2">
  <advance width="240"/>
  <unicode hex="002E"/>
  <note>
period
</note>
  <outline>
    <contour>
      <point x="120" y="-15" type="qcurve"/>
      <point x="149" y="-15"/>
      <point x="190" y="26"/>
      <point x="190" y="55" type="qcurve"/>
      <point x="190" y="84"/>
      <point x="149" y="125"/>
      <point x="120" y="125" type="qcurve"/>
      <point x="91" y="125"/>
      <point x="50" y="84"/>
      <point x="50" y="55" type="qcurve"/>
      <point x="50" y="26"/>
      <point x="91" y="-15"/>
    </contour>
  </outline>
</glyph>
<glyph name="zero" format="2">
  <advance width="732"/>
  <unicode hex="0030"/>
  <note>
zero
</note>
  <outline>
    <contour>
      <point x="367" y="-14" type="qcurve"/>
      <point x="475" y="-14"/>
      <point x="612" y="96"/>
      <point x="674" y="272"/>
      <point x="674" y="377" type="qcurve"/>
      <point x="674" y="481"/>
      <point x="612" y="659"/>
      <point x="475" y="769"/>
      <point x="367" y="769" type="qcurve"/>
      <point x="258" y="769"/>
      <point x="120" y="659"/>
      <point x="58" y="482"/>
      <point x="58" y="377" type="qcurve"/>
      <point x="58" y="272"/>
      <point x="120" y="96"/>
      <point x="258" y="-14"/>
    </contour>
    <contour>
      <point x="148" y="377" type="qcurve"/>
      <point x="148" y="510"/>
      <point x="248" y="694"/>
      <point x="367" y="694" type="qcurve"/>
      <point x="484" y="694"/>
      <point x="584" y="509"/>
      <point x="584" y="377" type="qcurve"/>
      <point x="584" y="245"/>
      <point x="484" y="60"/>
      <point x="367" y="60" type="qcurve"/>
      <point x="248" y="60"/>
      <point x="148" y="244"/>
    </contour>
  </outline>
</glyph>
<glyph name="one" format="2">
  <advance width="398"/>
  <unicode hex="0031"/>
  <outline>
    <contour>
      <point x="287" y="750" type="line"/>
      <point x="67" y="672" type="line"/>
      <point x="67" y="601" type="line"/>
      <point x="233" y="655" type="line"/>
      <point x="233" y="0" type="line"/>
      <point x="321" y="0" type="line"/>
      <point x="321" y="750" type="line"/>
    </contour>
  </outline>
</glyph>
<glyph name="two" format="2">
  <advance width="696"/>
  <unicode hex="0032"/>
  <outline>
    <contour>
      <point x="98" y="0" type="line"/>
      <point x="635" y="0" type="line"/>
      <point x="635" y="84" type="line"/>
      <point x="233" y="83" type="line"/>
      <point x="412" y="191"/>
      <point x="608" y="325"/>
      <point x="608" y="534" type="curve"/>
      <point x="608" y="680"/>
      <point x="489" y="770"/>
      <point x="344" y="770" type="curve"/>
      <point x="200" y="770"/>
      <point x="74" y="682"/>
      <point x="50" y="525" type="curve"/>
      <point x="138" y="524" type="line"/>
      <point x="157" y="635"/>
      <point x="244" y="692"/>
      <point x="342" y="692" type="curve"/>
      <point x="441" y="692"/>
      <point x="520" y="631"/>
      <point x="520" y="532" type="curve"/>
      <point x="520" y="334"/>
      <point x="265" y="179"/>
      <point x="98" y="85" type="curve"/>
    </contour>
  </outline>
</glyph>
<glyph name="three" format="2">
  <advance width="675"/>
  <unicode hex="0033"/>
  <outline>
    <contour>
      <point x="140" y="552" type="line"/>
      <point x="140" y="634"/>
      <point x="242" y="685"/>
      <point x="334" y="685" type="curve"/>
      <point x="418" y="685"/>
      <point x="512" y="645"/>
      <point x="512" y="552" type="curve"/>
      <point x="512" y="465"/>
      <point x="430" y="418"/>
      <point x="342" y="418" type="curve"/>
      <point x="327" y="418"/>
      <point x="270" y="418"/>
      <point x="255" y="421" type="curve"/>
      <point x="255" y="344" type="line"/>
      <point x="270" y="344"/>
      <point x="327" y="345"/>
      <point x="342" y="345" type="curve"/>
      <point x="436" y="342"/>
      <point x="526" y="310"/>
      <point x="526" y="211" type="curve"/>
      <point x="526" y="117"/>
      <point x="432" y="68"/>
      <point x="336" y="68" type="curve"/>
      <point x="233" y="68"/>
      <point x="137" y="120"/>
      <point x="132" y="217" type="curve"/>
      <point x="44" y="217" type="line"/>
      <point x="49" y="69"/>
      <point x="187" y="-14"/>
      <point x="339" y="-14" type="curve"/>
      <point x="487" y="-14"/>
      <point x="614" y="66"/>
      <point x="614" y="211" type="curve"/>
      <point x="614" y="305"/>
      <point x="549" y="376"/>
      <point x="452" y="387" type="curve"/>
      <point x="549" y="412"/>
      <point x="595" y="479"/>
      <point x="595" y="571" type="curve"/>
      <point x="595" y="710"/>
      <point x="458" y="769"/>
      <point x="337" y="769" type="curve"/>
      <point x="191" y="769"/>
      <point x="52" y="686"/>
      <point x="52" y="552" type="curve"/>
    </contour>
  </outline>
</glyph>
<glyph name="four" format="2">
  <advance width="674"/>
  <unicode hex="0034"/>
  <outline>
    <contour>
      <point x="38" y="159" type="line"/>
      <point x="424" y="159" type="line"/>
      <point x="424" y="0" type="line"/>
      <point x="512" y="0" type="line"/>
      <point x="512" y="159" type="line"/>
      <point x="619" y="159" type="line"/>
      <point x="619" y="243" type="line"/>
      <point x="512" y="243" type="line"/>
      <point x="512" y="750" type="line"/>
      <point x="410" y="750" type="line"/>
      <point x="38" y="233" type="line"/>
    </contour>
    <contour>
      <point x="424" y="623" type="line"/>
      <point x="424" y="242" type="line"/>
      <point x="144" y="242" type="line"/>
    </contour>
  </outline>
</glyph>
<glyph name="five" format="2">
  <advance width="648"/>
  <unicode hex="0035"/>
  <note>
five
</note>
  <outline>
    <contour>
      <point x="88" y="371" type="line"/>
      <point x="172" y="349" type="line"/>
      <point x="227" y="393"/>
      <point x="311" y="433"/>
      <point x="356" y="433" type="qcurve"/>
      <point x="405" y="433"/>
      <point x="474" y="385"/>
      <point x="508" y="306"/>
      <point x="508" y="260" type="qcurve"/>
      <point x="508" y="210"/>
      <point x="465" y="121"/>
      <point x="380" y="65"/>
      <point x="319" y="65" type="qcurve"/>
      <point x="272" y="65"/>
      <point x="192" y="103"/>
      <point x="145" y="175"/>
      <point x="145" y="224" type="qcurve"/>
      <point x="57" y="224" type="line"/>
      <point x="57" y="152"/>
      <point x="128" y="44"/>
      <point x="248" y="-14"/>
      <point x="321" y="-14" type="qcurve"/>
      <point x="407" y="-14"/>
      <point x="531" y="66"/>
      <point x="595" y="192"/>
      <point x="595" y="262" type="qcurve"/>
      <point x="595" y="326"/>
      <point x="543" y="436"/>
      <point x="438" y="503"/>
      <point x="363" y="503" type="qcurve"/>
      <point x="318" y="503"/>
      <point x="235" y="474"/>
      <point x="187" y="441" type="qcurve"/>
      <point x="212" y="672" type="line"/>
      <point x="579" y="670" type="line"/>
      <point x="579" y="750" type="line"/>
      <point x="126" y="750" type="line"/>
    </contour>
  </outline>
</glyph>
<glyph name="six" format="2">
  <advance width="662"/>
  <unicode hex="0036"/>
  <outline>
    <contour>
      <point x="517" y="760" type="line"/>
      <point x="204" y="768"/>
      <point x="61" y="541"/>
      <point x="56" y="281" type="curve"/>
      <point x="53" y="128"/>
      <point x="143" y="-14"/>
      <point x="331" y="-14" type="curve"/>
      <point x="501" y="-14"/>
      <point x="606" y="114"/>
      <point x="606" y="258" type="curve"/>
      <point x="606" y="379"/>
      <point x="533" y="494"/>
      <point x="378" y="494" type="curve"/>
      <point x="303" y="494"/>
      <point x="236" y="464"/>
      <point x="188" y="408" type="curve"/>
      <point x="215" y="573"/>
      <point x="319" y="687"/>
      <point x="517" y="676" type="curve"/>
    </contour>
    <contour>
      <point x="329" y="69" type="curve"/>
      <point x="214" y="69"/>
      <point x="161" y="169"/>
      <point x="161" y="260" type="curve"/>
      <point x="168" y="340"/>
      <point x="259" y="410"/>
      <point x="359" y="410" type="curve"/>
      <point x="463" y="410"/>
      <point x="518" y="340"/>
      <point x="518" y="256" type="curve" smooth="yes"/>
      <point x="518" y="157"/>
      <point x="446" y="69"/>
    </contour>
  </outline>
</glyph>
<glyph name="seven" format="2">
  <advance width="652"/>
  <unicode hex="0037"/>
  <outline>
    <contour>
      <point x="130" y="0" type="line"/>
      <point x="232" y="0" type="line"/>
      <point x="587" y="672" type="line"/>
      <point x="587" y="750" type="line"/>
      <point x="56" y="750" type="line"/>
      <point x="56" y="666" type="line"/>
      <point x="490" y="666" type="line"/>
    </contour>
  </outline>
</glyph>
<glyph name="eight" format="2">
  <advance width="687"/>
  <unicode hex="0038"/>
  <outline>
    <contour>
      <point x="623" y="211" type="curve"/>
      <point x="623" y="299"/>
      <point x="568" y="368"/>
      <point x="461" y="387" type="curve"/>
      <point x="553" y="416"/>
      <point x="604" y="483"/>
      <point x="604" y="571" type="curve"/>
      <point x="604" y="703"/>
      <point x="477" y="770"/>
      <point x="346" y="770" type="curve"/>
      <point x="214" y="770"/>
      <point x="86" y="703"/>
      <point x="86" y="571" type="curve"/>
      <point x="86" y="483"/>
      <point x="138" y="411"/>
      <point x="230" y="387" type="curve"/>
      <point x="129" y="368"/>
      <point x="64" y="304"/>
      <point x="64" y="211" type="curve"/>
      <point x="64" y="63"/>
      <point x="199" y="-15"/>
      <point x="344" y="-15" type="curve"/>
      <point x="491" y="-15"/>
      <point x="623" y="62"/>
    </contour>
    <contour>
      <point x="344" y="424" type="curve"/>
      <point x="251" y="424"/>
      <point x="177" y="465"/>
      <point x="177" y="557" type="curve"/>
      <point x="177" y="641"/>
      <point x="259" y="686"/>
      <point x="346" y="686" type="curve"/>
      <point x="432" y="686"/>
      <point x="514" y="641"/>
      <point x="514" y="557" type="curve"/>
      <point x="514" y="470"/>
      <point x="445" y="424"/>
    </contour>
    <contour>
      <point x="344" y="62" type="curve"/>
      <point x="247" y="62"/>
      <point x="156" y="112"/>
      <point x="156" y="206" type="curve"/>
      <point x="156" y="304"/>
      <point x="253" y="331"/>
      <point x="342" y="331" type="curve"/>
      <point x="457" y="331"/>
      <point x="533" y="289"/>
      <point x="533" y="206" type="curve"/>
      <point x="533" y="112"/>
      <point x="444" y="62"/>
    </contour>
  </outline>
</glyph>
<glyph name="nine" format="2">
  <advance width="636"/>
  <unicode hex="0039"/>
  <note>
nine
</note>
  <outline>
    <contour>
      <point x="148" y="-14" type="line"/>
      <point x="290" y="-14"/>
      <point x="482" y="114"/>
      <point x="576" y="330"/>
      <point x="576" y="464" type="qcurve"/>
      <point x="576" y="543"/>
      <point x="520" y="678"/>
      <point x="405" y="760"/>
      <point x="321" y="760" type="qcurve"/>
      <point x="242" y="760"/>
      <point x="121" y="684"/>
      <point x="55" y="556"/>
      <point x="55" y="482" type="qcurve"/>
      <point x="55" y="419"/>
      <point x="108" y="314"/>
      <point x="207" y="252"/>
      <point x="273" y="252" type="qcurve"/>
      <point x="327" y="252"/>
      <point x="422" y="301"/>
      <point x="449" y="341" type="qcurve"/>
      <point x="429" y="211"/>
      <point x="286" y="71"/>
      <point x="148" y="65" type="qcurve"/>
    </contour>
    <contour>
      <point x="323" y="680" type="qcurve"/>
      <point x="402" y="680"/>
      <point x="474" y="560"/>
      <point x="474" y="478" type="qcurve"/>
      <point x="457" y="415"/>
      <point x="360" y="333"/>
      <point x="294" y="333" type="qcurve"/>
      <point x="227" y="333"/>
      <point x="143" y="417"/>
      <point x="143" y="483" type="qcurve"/>
      <point x="143" y="535"/>
      <point x="187" y="625"/>
      <point x="269" y="680"/>
    </contour>
  </outline>
</glyph>
<glyph name="colon" format="2">
  <advance width="256"/>
  <unicode hex="003A"/>
  <outline>
    <contour>
      <point x="128" y="-15" type="curve" smooth="yes"/>
      <point x="167" y="-15"/>
      <point x="198" y="16"/>
      <point x="198" y="55" type="curve" smooth="yes"/>
      <point x="198" y="94"/>
      <point x="167" y="125"/>
      <point x="128" y="125" type="curve" smooth="yes"/>
      <point x="89" y="125"/>
      <point x="58" y="94"/>
      <point x="58" y="55" type="curve" smooth="yes"/>
      <point x="58" y="16"/>
      <point x="89" y="-15"/>
    </contour>
    <contour>
      <point x="128" y="400" type="curve" smooth="yes"/>
      <point x="167" y="400"/>
      <point x="198" y="431"/>
      <point x="198" y="470" type="curve" smooth="yes"/>
      <point x="198" y="509"/>
      <point x="167" y="540"/>
      <point x="128" y="540" type="curve" smooth="yes"/>
      <point x="89" y="540"/>
      <point x="58" y="509"/>
      <point x="58" y="470" type="curve" smooth="yes"/>
      <point x="58" y="431"/>
      <point x="89" y="400"/>
    </contour>
  </outline>
</glyph>
<glyph name="semicolon" format="2">
  <advance width="270"/>
  <unicode hex="003B"/>
  <outline>
    <contour>
      <point x="142" y="400" type="curve" smooth="yes"/>
      <point x="181" y="400"/>
      <point x="212" y="431"/>
      <point x="212" y="470" type="curve" smooth="yes"/>
      <point x="212" y="509"/>
      <point x="181" y="540"/>
      <point x="142" y="540" type="curve" smooth="yes"/>
      <point x="103" y="540"/>
      <point x="72" y="509"/>
      <point x="72" y="470" type="curve" smooth="yes"/>
      <point x="72" y="431"/>
      <point x="103" y="400"/>
    </contour>
    <contour>
      <point x="129" y="-133" type="line"/>
      <point x="203" y="97" type="line"/>
      <point x="107" y="97" type="line"/>
      <point x="57" y="-133" type="line"/>
    </contour>
  </outline>
</glyph>
<glyph name="less" format="2">
  <advance width="672"/>
  <unicode hex="003C"/>
  <outline>
    <contour>
      <point x="600" y="544" type="line"/>
      <point x="44" y="339" type="line"/>
      <point x="44" y="254" type="line"/>
      <point x="600" y="49" type="line"/>
      <point x="600" y="132" type="line"/>
      <point x="164" y="296" type="line"/>
      <point x="600" y="461" type="line"/>
    </contour>
  </outline>
</glyph>
<glyph name="equal" format="2">
  <advance width="668"/>
  <unicode hex="003D"/>
  <outline>
    <contour>
      <point x="618" y="480" type="line"/>
      <point x="50" y="480" type="line"/>
      <point x="50" y="396" type="line"/>
      <point x="618" y="396" type="line"/>
    </contour>
    <contour>
      <point x="618" y="194" type="line"/>
      <point x="50" y="194" type="line"/>
      <point x="50" y="110" type="line"/>
      <point x="618" y="110" type="line"/>
    </contour>
  </outline>
</glyph>
<glyph name="greater" format="2">
  <advance width="672"/>
  <unicode hex="003E"/>
  <outline>
    <contour>
      <point x="72" y="546" type="line"/>
      <point x="72" y="461" type="line"/>
      <point x="509" y="296" type="line"/>
      <point x="72" y="132" type="line"/>
      <point x="72" y="47" type="line"/>
      <point x="628" y="252" type="line"/>
      <point x="628" y="341" type="line"/>
    </contour>
  </outline>
</glyph>
<glyph name="question" format="2">
  <advance width="594"/>
  <unicode hex="003F"/>
  <outline>
    <contour>
      <point x="355" y="212" type="line"/>
      <point x="363" y="362"/>
      <point x="538" y="427"/>
      <point x="538" y="572" type="curve"/>
      <point x="538" y="695"/>
      <point x="420" y="763"/>
      <point x="298" y="763" type="curve"/>
      <point x="159" y="763"/>
      <point x="38" y="689"/>
      <point x="38" y="554" type="curve"/>
      <point x="126" y="554" type="line"/>
      <point x="129" y="634"/>
      <point x="211" y="683"/>
      <point x="293" y="683" type="curve"/>
      <point x="376" y="683"/>
      <point x="442" y="641"/>
      <point x="442" y="564" type="curve"/>
      <point x="442" y="457"/>
      <point x="274" y="367"/>
      <point x="270" y="212" type="curve"/>
    </contour>
    <contour>
      <point x="302" y="-15" type="curve" smooth="yes"/>
      <point x="341" y="-15"/>
      <point x="372" y="16"/>
      <point x="372" y="55" type="curve" smooth="yes"/>
      <point x="372" y="94"/>
      <point x="341" y="125"/>
      <point x="302" y="125" type="curve" smooth="yes"/>
      <point x="263" y="125"/>
      <point x="232" y="94"/>
      <point x="232" y="55" type="curve" smooth="yes"/>
      <point x="232" y="16"/>
      <point x="263" y="-15"/>
    </contour>
  </outline>
</glyph>
<glyph name="at" format="2">
  <advance width="961"/>
  <unicode hex="0040"/>
  <note>
at
</note>
  <outline>
    <contour>
      <point x="696" y="547" type="line"/>
      <point x="609" y="547" type="line"/>
      <point x="609" y="502" type="line"/>
      <point x="586" y="527"/>
      <point x="516" y="555"/>
      <point x="484" y="555" type="qcurve"/>
      <point x="406" y="555"/>
      <point x="298" y="483"/>
      <point x="244" y="365"/>
      <point x="244" y="297" type="qcurve"/>
      <point x="244" y="230"/>
      <point x="296" y="115"/>
      <point x="395" y="44"/>
      <point x="463" y="44" type="qcurve"/>
      <point x="508" y="44"/>
      <point x="588" y="81"/>
      <point x="609" y="114" type="qcurve"/>
      <point x="609" y="54" type="line"/>
      <point x="666" y="54" type="line" smooth="yes"/>
      <point x="789" y="54"/>
      <point x="917" y="193"/>
      <point x="917" y="331" type="qcurve"/>
      <point x="917" y="450"/>
      <point x="813" y="641"/>
      <point x="621" y="750"/>
      <point x="495" y="750" type="qcurve"/>
      <point x="372" y="750"/>
      <point x="165" y="629"/>
      <point x="44" y="423"/>
      <point x="44" y="301" type="qcurve"/>
      <point x="44" y="178"/>
      <point x="165" y="-29"/>
      <point x="372" y="-150"/>
      <point x="495" y="-150" type="qcurve"/>
      <point x="618" y="-150"/>
      <point x="724" y="-87" type="qcurve"/>
      <point x="681" y="-19" type="line"/>
      <point x="595" y="-70"/>
      <point x="495" y="-70" type="qcurve"/>
      <point x="394" y="-70"/>
      <point x="223" y="30"/>
      <point x="124" y="200"/>
      <point x="124" y="301" type="qcurve"/>
      <point x="124" y="401"/>
      <point x="223" y="571"/>
      <point x="394" y="670"/>
      <point x="495" y="670" type="qcurve"/>
      <point x="599" y="670"/>
      <point x="754" y="582"/>
      <point x="837" y="428"/>
      <point x="837" y="331" type="qcurve"/>
      <point x="837" y="229"/>
      <point x="760" y="129"/>
      <point x="696" y="129" type="qcurve"/>
    </contour>
    <contour>
      <point x="609" y="195" type="line"/>
      <point x="596" y="157"/>
      <point x="520" y="113"/>
      <point x="479" y="113" type="qcurve"/>
      <point x="432" y="113"/>
      <point x="364" y="163"/>
      <point x="330" y="245"/>
      <point x="330" y="292" type="qcurve"/>
      <point x="330" y="341"/>
      <point x="365" y="428"/>
      <point x="437" y="483"/>
      <point x="491" y="483" type="qcurve"/>
      <point x="523" y="483"/>
      <point x="594" y="447"/>
      <point x="609" y="416" type="qcurve"/>
    </contour>
  </outline>
</glyph>
<glyph name="A" format="2">
  <advance width="627"/>
  <unicode hex="0041"/>
  <outline>
    <contour>
      <point x="311" y="614" type="line"/>
      <point x="521" y="0" type="line"/>
      <point x="616" y="0" type="line"/>
      <point x="355" y="750" type="line"/>
      <point x="267" y="750" type="line"/>
      <point x="12" y="0" type="line"/>
      <point x="107" y="0" type="line"/>
    </contour>
    <contour>
      <point x="482" y="190" type="line"/>
      <point x="482" y="274" type="line"/>
      <point x="140" y="274" type="line"/>
      <point x="140" y="190" type="line"/>
    </contour>
  </outline>
</glyph>
<glyph name="B" format="2">
  <advance width="700"/>
  <unicode hex="0042"/>
  <outline>
    <contour>
      <point x="77" y="0" type="line"/>
      <point x="402" y="0" type="line"/>
      <point x="540" y="0"/>
      <point x="637" y="87"/>
      <point x="637" y="209" type="curve"/>
      <point x="637" y="302"/>
      <point x="573" y="361"/>
      <point x="488" y="386" type="curve"/>
      <point x="563" y="415"/>
      <point x="606" y="477"/>
      <point x="606" y="557" type="curve"/>
      <point x="606" y="674"/>
      <point x="521" y="750"/>
      <point x="388" y="750" type="curve"/>
      <point x="77" y="750" type="line"/>
    </contour>
    <contour>
      <point x="518" y="549" type="curve"/>
      <point x="518" y="470"/>
      <point x="454" y="423"/>
      <point x="361" y="423" type="curve"/>
      <point x="165" y="423" type="line"/>
      <point x="165" y="666" type="line"/>
      <point x="374" y="666" type="line"/>
      <point x="466" y="666"/>
      <point x="518" y="623"/>
    </contour>
    <contour>
      <point x="549" y="217" type="curve"/>
      <point x="549" y="136"/>
      <point x="482" y="84"/>
      <point x="388" y="84" type="curve"/>
      <point x="165" y="84" type="line"/>
      <point x="165" y="339" type="line"/>
      <point x="375" y="339" type="line"/>
      <point x="466" y="339"/>
      <point x="549" y="305"/>
    </contour>
  </outline>
</glyph>
<glyph name="C" format="2">
  <advance width="727"/>
  <unicode hex="0043"/>
  <note>
C
</note>
  <anchor x="373" y="0" name="bottom"/>
  <anchor x="364" y="750" name="top"/>
  <outline>
    <contour>
      <point x="373" y="765" type="qcurve"/>
      <point x="274" y="765"/>
      <point x="126" y="661"/>
      <point x="47" y="483"/>
      <point x="47" y="376" type="qcurve"/>
      <point x="47" y="268"/>
      <point x="126" y="92"/>
      <point x="273" y="-11"/>
      <point x="373" y="-11" type="qcurve"/>
      <point x="450" y="-11"/>
      <point x="582" y="52"/>
      <point x="670" y="166"/>
      <point x="682" y="242" type="qcurve"/>
      <point x="590" y="242" type="line"/>
      <point x="574" y="164"/>
      <point x="453" y="67"/>
      <point x="373" y="67" type="qcurve"/>
      <point x="301" y="67"/>
      <point x="195" y="153"/>
      <point x="139" y="294"/>
      <point x="139" y="377" type="qcurve"/>
      <point x="139" y="460"/>
      <point x="195" y="601"/>
      <point x="301" y="687"/>
      <point x="373" y="687" type="qcurve"/>
      <point x="427" y="687"/>
      <point x="521" y="638"/>
      <point x="584" y="550"/>
      <point x="592" y="493" type="qcurve"/>
      <point x="684" y="493" type="line"/>
      <point x="675" y="574"/>
      <point x="588" y="697"/>
      <point x="452" y="765"/>
    </contour>
  </outline>
</glyph>
<glyph name="D" format="2">
  <advance width="735"/>
  <unicode hex="0044"/>
  <outline>
    <contour>
      <point x="77" y="0" type="line"/>
      <point x="317" y="0" type="line"/>
      <point x="556" y="0"/>
      <point x="672" y="177"/>
      <point x="672" y="374" type="curve"/>
      <point x="672" y="571"/>
      <point x="556" y="750"/>
      <point x="317" y="750" type="curve"/>
      <point x="77" y="750" type="line"/>
    </contour>
    <contour>
      <point x="165" y="78" type="line"/>
      <point x="165" y="669" type="line"/>
      <point x="316" y="669" type="line"/>
      <point x="536" y="669"/>
      <point x="584" y="470"/>
      <point x="584" y="373" type="curve"/>
      <point x="584" y="276"/>
      <point x="536" y="78"/>
      <point x="316" y="78" type="curve"/>
    </contour>
  </outline>
</glyph>
<glyph name="E" format="2">
  <advance width="626"/>
  <unicode hex="0045"/>
  <outline>
    <contour>
      <point x="77" y="0" type="line"/>
      <point x="591" y="0" type="line"/>
      <point x="591" y="84" type="line"/>
      <point x="165" y="84" type="line"/>
      <point x="165" y="330" type="line"/>
      <point x="514" y="330" type="line"/>
      <point x="514" y="414" type="line"/>
      <point x="165" y="414" type="line"/>
      <point x="165" y="666" type="line"/>
      <point x="591" y="666" type="line"/>
      <point x="591" y="750" type="line"/>
      <point x="77" y="750" type="line"/>
    </contour>
  </outline>
</glyph>
<glyph name="F" format="2">
  <advance width="588"/>
  <unicode hex="0046"/>
  <anchor x="294" y="0" name="bottom"/>
  <anchor x="294" y="750" name="top"/>
  <outline>
    <contour>
      <point x="69" y="0" type="line"/>
      <point x="157" y="0" type="line"/>
      <point x="157" y="332" type="line"/>
      <point x="483" y="332" type="line"/>
      <point x="483" y="412" type="line"/>
      <point x="157" y="412" type="line"/>
      <point x="157" y="670" type="line"/>
      <point x="555" y="670" type="line"/>
      <point x="555" y="750" type="line"/>
      <point x="69" y="750" type="line"/>
    </contour>
  </outline>
</glyph>
<glyph name="G" format="2">
  <advance width="725"/>
  <unicode hex="0047"/>
  <note>
G
</note>
  <anchor x="389" y="0" name="bottom"/>
  <anchor x="377" y="750" name="top"/>
  <outline>
    <contour>
      <point x="384" y="362" type="line"/>
      <point x="384" y="282" type="line"/>
      <point x="598" y="282" type="line"/>
      <point x="598" y="189" type="line"/>
      <point x="576" y="128"/>
      <point x="471" y="65"/>
      <point x="389" y="65" type="qcurve"/>
      <point x="303" y="65"/>
      <point x="192" y="154"/>
      <point x="141" y="296"/>
      <point x="141" y="377" type="qcurve"/>
      <point x="141" y="454"/>
      <point x="190" y="597"/>
      <point x="298" y="689"/>
      <point x="379" y="689" type="qcurve"/>
      <point x="470" y="689"/>
      <point x="579" y="577"/>
      <point x="589" y="492" type="qcurve"/>
      <point x="681" y="493" type="line"/>
      <point x="675" y="571"/>
      <point x="595" y="696"/>
      <point x="461" y="767"/>
      <point x="377" y="767" type="qcurve"/>
      <point x="272" y="767"/>
      <point x="123" y="654"/>
      <point x="49" y="475"/>
      <point x="49" y="376" type="qcurve"/>
      <point x="49" y="272"/>
      <point x="125" y="95"/>
      <point x="278" y="-13"/>
      <point x="389" y="-13" type="qcurve"/>
      <point x="502" y="-13"/>
      <point x="661" y="100"/>
      <point x="681" y="197" type="qcurve"/>
      <point x="681" y="362" type="line"/>
    </contour>
  </outline>
</glyph>
<glyph name="H" format="2">
  <advance width="727"/>
  <unicode hex="0048"/>
  <outline>
    <contour>
      <point x="77" y="0" type="line"/>
      <point x="165" y="0" type="line"/>
      <point x="165" y="330" type="line"/>
      <point x="562" y="330" type="line"/>
      <point x="562" y="0" type="line"/>
      <point x="650" y="0" type="line"/>
      <point x="650" y="750" type="line"/>
      <point x="562" y="750" type="line"/>
      <point x="562" y="414" type="line"/>
      <point x="165" y="414" type="line"/>
      <point x="165" y="750" type="line"/>
      <point x="77" y="750" type="line"/>
    </contour>
  </outline>
</glyph>
<glyph name="I" format="2">
  <advance width="226"/>
  <unicode hex="0049"/>
  <note>
I
</note>
  <anchor x="113" y="0" name="bottom"/>
  <anchor x="113" y="750" name="top"/>
  <anchor x="113" y="0" name="ogonek"/>
  <outline>
    <contour>
      <point x="69" y="0" type="line"/>
      <point x="157" y="0" type="line"/>
      <point x="157" y="750" type="line"/>
      <point x="69" y="750" type="line"/>
    </contour>
  </outline>
</glyph>
<glyph name="J" format="2">
  <advance width="574"/>
  <unicode hex="004A"/>
  <note>
J
</note>
  <anchor x="287" y="0" name="bottom"/>
  <anchor x="461" y="750" name="top"/>
  <outline>
    <contour>
      <point x="32" y="217" type="line"/>
      <point x="32" y="149"/>
      <point x="88" y="44"/>
      <point x="194" y="-15"/>
      <point x="267" y="-15" type="qcurve"/>
      <point x="384" y="-15"/>
      <point x="505" y="127"/>
      <point x="505" y="241" type="qcurve"/>
      <point x="505" y="750" type="line"/>
      <point x="417" y="750" type="line"/>
      <point x="417" y="284" type="line" smooth="yes"/>
      <point x="417" y="235"/>
      <point x="402" y="143"/>
      <point x="335" y="61"/>
      <point x="265" y="61" type="qcurve"/>
      <point x="208" y="61"/>
      <point x="143" y="116"/>
      <point x="120" y="187"/>
      <point x="120" y="217" type="qcurve"/>
    </contour>
  </outline>
</glyph>
<glyph name="K" format="2">
  <advance width="684"/>
  <unicode hex="004B"/>
  <outline>
    <contour>
      <point x="327" y="401" type="line"/>
      <point x="268" y="338" type="line"/>
      <point x="566" y="0" type="line"/>
      <point x="681" y="0" type="line"/>
    </contour>
    <contour>
      <point x="650" y="750" type="line"/>
      <point x="538" y="750" type="line"/>
      <point x="193" y="365" type="line"/>
      <point x="193" y="750" type="line"/>
      <point x="105" y="750" type="line"/>
      <point x="105" y="0" type="line"/>
      <point x="193" y="0" type="line"/>
      <point x="193" y="240" type="line"/>
    </contour>
  </outline>
</glyph>
<glyph name="L" format="2">
  <advance width="625"/>
  <unicode hex="004C"/>
  <outline>
    <contour>
      <point x="77" y="0" type="line"/>
      <point x="587" y="0" type="line"/>
      <point x="587" y="84" type="line"/>
      <point x="165" y="84" type="line"/>
      <point x="165" y="750" type="line"/>
      <point x="77" y="750" type="line"/>
    </contour>
  </outline>
</glyph>
<glyph name="M" format="2">
  <advance width="937"/>
  <unicode hex="004D"/>
  <outline>
    <contour>
      <point x="77" y="0" type="line"/>
      <point x="165" y="0" type="line"/>
      <point x="165" y="609" type="line"/>
      <point x="424" y="0" type="line"/>
      <point x="512" y="0" type="line"/>
      <point x="772" y="614" type="line"/>
      <point x="772" y="0" type="line"/>
      <point x="860" y="0" type="line"/>
      <point x="860" y="750" type="line"/>
      <point x="735" y="750" type="line"/>
      <point x="468" y="109" type="line"/>
      <point x="467" y="109" type="line"/>
      <point x="200" y="750" type="line"/>
      <point x="77" y="750" type="line"/>
    </contour>
  </outline>
</glyph>
<glyph name="N" format="2">
  <advance width="740"/>
  <unicode hex="004E"/>
  <outline>
    <contour>
      <point x="167" y="750" type="line"/>
      <point x="77" y="750" type="line"/>
      <point x="77" y="0" type="line"/>
      <point x="165" y="0" type="line"/>
      <point x="165" y="601" type="line"/>
      <point x="573" y="0" type="line"/>
      <point x="663" y="0" type="line"/>
      <point x="663" y="750" type="line"/>
      <point x="575" y="750" type="line"/>
      <point x="575" y="150" type="line"/>
    </contour>
  </outline>
</glyph>
<glyph name="O" format="2">
  <advance width="818"/>
  <unicode hex="004F"/>
  <outline>
    <contour>
      <point x="410" y="-13" type="curve"/>
      <point x="646" y="-13"/>
      <point x="764" y="181"/>
      <point x="764" y="374" type="curve"/>
      <point x="764" y="569"/>
      <point x="647" y="767"/>
      <point x="410" y="767" type="curve"/>
      <point x="173" y="767"/>
      <point x="56" y="569"/>
      <point x="56" y="375" type="curve"/>
      <point x="56" y="180"/>
      <point x="174" y="-13"/>
    </contour>
    <contour>
      <point x="144" y="374" type="curve"/>
      <point x="144" y="517"/>
      <point x="225" y="687"/>
      <point x="410" y="687" type="curve"/>
      <point x="598" y="687"/>
      <point x="676" y="517"/>
      <point x="676" y="374" type="curve"/>
      <point x="676" y="233"/>
      <point x="596" y="65"/>
      <point x="410" y="65" type="curve"/>
      <point x="226" y="65"/>
      <point x="144" y="233"/>
    </contour>
  </outline>
</glyph>
<glyph name="P" format="2">
  <advance width="678"/>
  <unicode hex="0050"/>
  <note>
P
</note>
  <anchor x="339" y="0" name="bottom"/>
  <anchor x="339" y="750" name="top"/>
  <outline>
    <contour>
      <point x="69" y="0" type="line"/>
      <point x="157" y="0" type="line"/>
      <point x="157" y="276" type="line"/>
      <point x="378" y="276" type="line" smooth="yes"/>
      <point x="458" y="276"/>
      <point x="572" y="343"/>
      <point x="629" y="451"/>
      <point x="629" y="512" type="qcurve"/>
      <point x="629" y="574"/>
      <point x="572" y="683"/>
      <point x="461" y="750"/>
      <point x="384" y="750" type="qcurve"/>
      <point x="69" y="750" type="line"/>
    </contour>
    <contour>
      <point x="385" y="670" type="line"/>
      <point x="435" y="670"/>
      <point x="506" y="625"/>
      <point x="541" y="553"/>
      <point x="541" y="512" type="qcurve"/>
      <point x="541" y="471"/>
      <point x="505" y="400"/>
      <point x="431" y="356"/>
      <point x="378" y="356" type="qcurve"/>
      <point x="157" y="356" type="line"/>
      <point x="157" y="670" type="line"/>
    </contour>
  </outline>
</glyph>
<glyph name="Q" format="2">
  <advance width="764"/>
  <unicode hex="0051"/>
  <outline>
    <contour>
      <point x="715" y="41" type="line"/>
      <point x="481" y="267" type="line"/>
      <point x="423" y="212" type="line"/>
      <point x="657" y="-13" type="line"/>
    </contour>
    <component base="O"/>
  </outline>
</glyph>
<glyph name="R" format="2">
  <advance width="678"/>
  <unicode hex="0052"/>
  <note>
R
</note>
  <anchor x="339" y="0" name="bottom"/>
  <anchor x="305" y="750" name="top"/>
  <outline>
    <contour>
      <point x="447" y="288" type="line"/>
      <point x="357" y="277" type="line"/>
      <point x="528" y="0" type="line"/>
      <point x="626" y="0" type="line"/>
    </contour>
    <contour>
      <point x="69" y="0" type="line"/>
      <point x="157" y="0" type="line"/>
      <point x="157" y="276" type="line"/>
      <point x="378" y="276" type="line" smooth="yes"/>
      <point x="458" y="276"/>
      <point x="572" y="343"/>
      <point x="629" y="451"/>
      <point x="629" y="512" type="qcurve"/>
      <point x="629" y="574"/>
      <point x="572" y="683"/>
      <point x="461" y="750"/>
      <point x="384" y="750" type="qcurve"/>
      <point x="69" y="750" type="line"/>
    </contour>
    <contour>
      <point x="385" y="670" type="line"/>
      <point x="435" y="670"/>
      <point x="506" y="625"/>
      <point x="541" y="553"/>
      <point x="541" y="512" type="qcurve"/>
      <point x="541" y="471"/>
      <point x="505" y="400"/>
      <point x="431" y="356"/>
      <point x="378" y="356" type="qcurve"/>
      <point x="157" y="356" type="line"/>
      <point x="157" y="670" type="line"/>
    </contour>
  </outline>
</glyph>
<glyph name="T" format="2">
  <advance width="745"/>
  <unicode hex="0054"/>
  <outline>
    <contour>
      <point x="328" y="0" type="line"/>
      <point x="416" y="0" type="line"/>
      <point x="416" y="666" type="line"/>
      <point x="707" y="666" type="line"/>
      <point x="707" y="750" type="line"/>
      <point x="38" y="750" type="line"/>
      <point x="38" y="666" type="line"/>
      <point x="328" y="666" type="line"/>
    </contour>
  </outline>
</glyph>
<glyph name="U" format="2">
  <advance width="700"/>
  <unicode hex="0055"/>
  <note>
U
</note>
  <anchor x="350" y="0" name="bottom"/>
  <anchor x="350" y="750" name="top"/>
  <anchor x="350" y="0" name="ogonek"/>
  <anchor x="680" y="750" name="topright"/>
  <outline>
    <contour>
      <point x="543" y="251" type="line"/>
      <point x="543" y="179"/>
      <point x="459" y="62"/>
      <point x="350" y="62" type="qcurve"/>
      <point x="275" y="62"/>
      <point x="189" y="123"/>
      <point x="157" y="207"/>
      <point x="157" y="249" type="qcurve"/>
      <point x="157" y="750" type="line"/>
      <point x="69" y="750" type="line"/>
      <point x="69" y="220" type="line" smooth="yes"/>
      <point x="69" y="146"/>
      <point x="142" y="40"/>
      <point x="269" y="-15"/>
      <point x="350" y="-15" type="qcurve"/>
      <point x="427" y="-15"/>
      <point x="556" y="41"/>
      <point x="631" y="148"/>
      <point x="631" y="220" type="qcurve"/>
      <point x="631" y="750" type="line"/>
      <point x="543" y="750" type="line"/>
    </contour>
  </outline>
</glyph>
<glyph name="V" format="2">
  <advance width="748"/>
  <unicode hex="0056"/>
  <outline>
    <contour>
      <point x="424" y="0" type="line"/>
      <point x="715" y="750" type="line"/>
      <point x="619" y="750" type="line"/>
      <point x="374" y="116" type="line"/>
      <point x="129" y="750" type="line"/>
      <point x="33" y="750" type="line"/>
      <point x="324" y="0" type="line"/>
    </contour>
  </outline>
</glyph>
<glyph name="W" format="2">
  <advance width="1084"/>
  <unicode hex="0057"/>
  <outline>
    <contour>
      <point x="680" y="0" type="line"/>
      <point x="788" y="0" type="line"/>
      <point x="1056" y="750" type="line"/>
      <point x="960" y="750" type="line"/>
      <point x="737" y="108" type="line"/>
      <point x="584" y="755" type="line"/>
      <point x="500" y="755" type="line"/>
      <point x="349" y="110" type="line"/>
      <point x="124" y="750" type="line"/>
      <point x="28" y="750" type="line"/>
      <point x="296" y="0" type="line"/>
      <point x="406" y="0" type="line"/>
      <point x="542" y="564" type="line"/>
    </contour>
  </outline>
</glyph>
<glyph name="X" format="2">
  <advance width="642"/>
  <unicode hex="0058"/>
  <outline>
    <contour>
      <point x="125" y="0" type="line"/>
      <point x="621" y="750" type="line"/>
      <point x="517" y="750" type="line"/>
      <point x="21" y="0" type="line"/>
    </contour>
    <contour>
      <point x="21" y="750" type="line"/>
      <point x="517" y="0" type="line"/>
      <point x="621" y="0" type="line"/>
      <point x="125" y="750" type="line"/>
    </contour>
  </outline>
</glyph>
<glyph name="Y" format="2">
  <advance width="691"/>
  <unicode hex="0059"/>
  <outline>
    <contour>
      <point x="679" y="750" type="line"/>
      <point x="580" y="750" type="line"/>
      <point x="344" y="346" type="line"/>
      <point x="112" y="750" type="line"/>
      <point x="12" y="750" type="line"/>
      <point x="302" y="246" type="line"/>
      <point x="302" y="0" type="line"/>
      <point x="390" y="0" type="line"/>
      <point x="390" y="246" type="line"/>
    </contour>
  </outline>
</glyph>
<glyph name="Z" format="2">
  <advance width="709"/>
  <unicode hex="005A"/>
  <outline>
    <contour>
      <point x="51" y="60" type="line"/>
      <point x="51" y="0" type="line"/>
      <point x="665" y="0" type="line"/>
      <point x="665" y="84" type="line"/>
      <point x="177" y="84" type="line"/>
      <point x="665" y="692" type="line"/>
      <point x="665" y="750" type="line"/>
      <point x="50" y="750" type="line"/>
      <point x="50" y="666" type="line"/>
      <point x="536" y="666" type="line"/>
    </contour>
  </outline>
</glyph>
<glyph name="backslash" format="2">
  <advance width="352"/>
  <unicode hex="005C"/>
  <outline>
    <contour>
      <point x="280" y="-61" type="line"/>
      <point x="368" y="-61" type="line"/>
      <point x="94" y="750" type="line"/>
      <point x="6" y="750" type="line"/>
    </contour>
  </outline>
</glyph>
<glyph name="asciicircum" format="2">
  <advance width="524"/>
  <unicode hex="005E"/>
  <outline>
    <contour>
      <point x="36" y="394" type="line"/>
      <point x="126" y="394" type="line"/>
      <point x="263" y="652" type="line"/>
      <point x="398" y="394" type="line"/>
      <point x="488" y="394" type="line"/>
      <point x="307" y="737" type="line"/>
      <point x="218" y="737" type="line"/>
    </contour>
  </outline>
</glyph>
<glyph name="underscore" format="2">
  <advance width="500"/>
  <unicode hex="005F"/>
  <outline>
    <contour>
      <point x="500" y="-40" type="line"/>
      <point x="0" y="-40" type="line"/>
      <point x="0" y="-124" type="line"/>
      <point x="500" y="-124" type="line"/>
    </contour>
  </outline>
</glyph>
<glyph name="a" format="2">
  <advance width="524"/>
  <unicode hex="0061"/>
  <outline>
    <contour>
      <point x="146" y="381" type="line"/>
      <point x="151" y="437"/>
      <point x="216" y="467"/>
      <point x="274" y="467" type="curve"/>
      <point x="349" y="467"/>
      <point x="384" y="436"/>
      <point x="393" y="374" type="curve"/>
      <point x="393" y="322" type="line"/>
      <point x="297" y="322" type="line"/>
      <point x="151" y="322"/>
      <point x="42" y="267"/>
      <point x="42" y="146" type="curve"/>
      <point x="42" y="47"/>
      <point x="134" y="-6"/>
      <point x="233" y="-6" type="curve"/>
      <point x="300" y="-6"/>
      <point x="353" y="20"/>
      <point x="394" y="69" type="curve"/>
      <point x="394" y="0" type="line"/>
      <point x="482" y="0" type="line"/>
      <point x="482" y="362" type="line"/>
      <point x="482" y="481"/>
      <point x="401" y="541"/>
      <point x="278" y="541" type="curve"/>
      <point x="179" y="541"/>
      <point x="58" y="486"/>
      <point x="58" y="381" type="curve"/>
    </contour>
    <contour>
      <point x="394" y="143" type="line"/>
      <point x="361" y="93"/>
      <point x="298" y="65"/>
      <point x="242" y="65" type="curve"/>
      <point x="186" y="65"/>
      <point x="131" y="97"/>
      <point x="131" y="151" type="curve"/>
      <point x="131" y="224"/>
      <point x="212" y="251"/>
      <point x="315" y="251" type="curve"/>
      <point x="394" y="251" type="line"/>
    </contour>
  </outline>
</glyph>
<glyph name="b" format="2">
  <advance width="568"/>
  <unicode hex="0062"/>
  <note>
b
</note>
  <anchor x="284" y="0" name="bottom"/>
  <anchor x="284" y="526" name="top"/>
  <outline>
    <contour>
      <point x="153" y="0" type="line"/>
      <point x="153" y="65" type="line"/>
      <point x="210" y="-10"/>
      <point x="304" y="-10" type="qcurve"/>
      <point x="372" y="-10"/>
      <point x="473" y="66"/>
      <point x="527" y="197"/>
      <point x="527" y="278" type="qcurve"/>
      <point x="527" y="358"/>
      <point x="473" y="478"/>
      <point x="373" y="543"/>
      <point x="307" y="543" type="qcurve"/>
      <point x="263" y="543"/>
      <point x="179" y="504"/>
      <point x="153" y="472" type="qcurve"/>
      <point x="153" y="800" type="line"/>
      <point x="65" y="800" type="line"/>
      <point x="65" y="0" type="line"/>
    </contour>
    <contour>
      <point x="153" y="377" type="line"/>
      <point x="176" y="416"/>
      <point x="256" y="465"/>
      <point x="297" y="465" type="qcurve"/>
      <point x="362" y="465"/>
      <point x="437" y="355"/>
      <point x="439" y="272" type="qcurve"/>
      <point x="441" y="181"/>
      <point x="361" y="64"/>
      <point x="288" y="64" type="qcurve"/>
      <point x="239" y="64"/>
      <point x="170" y="119"/>
      <point x="153" y="154" type="qcurve"/>
    </contour>
  </outline>
</glyph>
<glyph name="c" format="2">
  <advance width="560"/>
  <unicode hex="0063"/>
  <outline>
    <contour>
      <point x="287" y="458" type="curve"/>
      <point x="358" y="458"/>
      <point x="414" y="418"/>
      <point x="427" y="340" type="curve"/>
      <point x="516" y="340" type="line"/>
      <point x="495" y="453"/>
      <point x="419" y="542"/>
      <point x="285" y="542" type="curve"/>
      <point x="121" y="542"/>
      <point x="46" y="395"/>
      <point x="46" y="263" type="curve"/>
      <point x="46" y="128"/>
      <point x="122" y="-7"/>
      <point x="289" y="-7" type="curve"/>
      <point x="415" y="-7"/>
      <point x="495" y="69"/>
      <point x="516" y="184" type="curve"/>
      <point x="427" y="184" type="line"/>
      <point x="418" y="118"/>
      <point x="365" y="75"/>
      <point x="290" y="75" type="curve"/>
      <point x="177" y="75"/>
      <point x="133" y="176"/>
      <point x="133" y="262" type="curve"/>
      <point x="133" y="344"/>
      <point x="174" y="458"/>
    </contour>
  </outline>
</glyph>
<glyph name="d" format="2">
  <advance width="600"/>
  <unicode hex="0064"/>
  <outline>
    <contour>
      <point x="440" y="0" type="line"/>
      <point x="528" y="0" type="line"/>
      <point x="528" y="800" type="line"/>
      <point x="440" y="800" type="line"/>
      <point x="440" y="488" type="line"/>
      <point x="405" y="525"/>
      <point x="347" y="545"/>
      <point x="303" y="545" type="curve"/>
      <point x="128" y="545"/>
      <point x="46" y="407"/>
      <point x="46" y="264" type="curve"/>
      <point x="46" y="123"/>
      <point x="129" y="-10"/>
      <point x="281" y="-10" type="curve"/>
      <point x="345" y="-10"/>
      <point x="408" y="17"/>
      <point x="440" y="65" type="curve"/>
    </contour>
    <contour>
      <point x="440" y="157" type="line"/>
      <point x="419" y="99"/>
      <point x="352" y="68"/>
      <point x="298" y="68" type="curve"/>
      <point x="189" y="68"/>
      <point x="133" y="161"/>
      <point x="133" y="258" type="curve"/>
      <point x="133" y="357"/>
      <point x="187" y="461"/>
      <point x="311" y="461" type="curve"/>
      <point x="352" y="461"/>
      <point x="416" y="437"/>
      <point x="440" y="389" type="curve"/>
    </contour>
  </outline>
</glyph>
<glyph name="e" format="2">
  <advance width="542"/>
  <unicode hex="0065"/>
  <note>
e
</note>
  <anchor x="271" y="0" name="bottom"/>
  <anchor x="277" y="526" name="top"/>
  <anchor x="328" y="0" name="ogonek"/>
  <outline>
    <contour>
      <point x="418" y="177" type="line"/>
      <point x="411" y="139"/>
      <point x="343" y="71"/>
      <point x="281" y="71" type="qcurve"/>
      <point x="230" y="71"/>
      <point x="162" y="125"/>
      <point x="130" y="212"/>
      <point x="132" y="261" type="qcurve"/>
      <point x="500" y="261" type="line"/>
      <point x="501" y="271"/>
      <point x="501" y="290" type="qcurve"/>
      <point x="501" y="356"/>
      <point x="451" y="471"/>
      <point x="349" y="542"/>
      <point x="275" y="542" type="qcurve"/>
      <point x="200" y="542"/>
      <point x="94" y="464"/>
      <point x="41" y="338"/>
      <point x="41" y="266" type="qcurve"/>
      <point x="41" y="193"/>
      <point x="94" y="69"/>
      <point x="203" y="-7"/>
      <point x="282" y="-7" type="qcurve"/>
      <point x="359" y="-7"/>
      <point x="478" y="75"/>
      <point x="501" y="152" type="qcurve"/>
    </contour>
    <contour>
      <point x="142" y="329" type="line"/>
      <point x="157" y="388"/>
      <point x="224" y="464"/>
      <point x="276" y="464" type="qcurve"/>
      <point x="342" y="464"/>
      <point x="409" y="390"/>
      <point x="413" y="329" type="qcurve"/>
    </contour>
  </outline>
</glyph>
<glyph name="f" format="2">
  <advance width="345"/>
  <unicode hex="0066"/>
  <note>
f
</note>
  <anchor x="173" y="0" name="bottom"/>
  <anchor x="173" y="800" name="top"/>
  <outline>
    <contour>
      <point x="372" y="798" type="line"/>
      <point x="342" y="804"/>
      <point x="315" y="804" type="qcurve"/>
      <point x="227" y="804"/>
      <point x="115" y="694"/>
      <point x="115" y="583" type="qcurve"/>
      <point x="115" y="526" type="line"/>
      <point x="25" y="526" type="line"/>
      <point x="25" y="446" type="line"/>
      <point x="115" y="446" type="line"/>
      <point x="115" y="0" type="line"/>
      <point x="203" y="0" type="line"/>
      <point x="203" y="446" type="line"/>
      <point x="322" y="446" type="line"/>
      <point x="322" y="526" type="line"/>
      <point x="203" y="526" type="line"/>
      <point x="203" y="597" type="line" smooth="yes"/>
      <point x="203" y="665"/>
      <point x="269" y="728"/>
      <point x="317" y="728" type="qcurve"/>
      <point x="349" y="728"/>
      <point x="372" y="718" type="qcurve"/>
    </contour>
  </outline>
</glyph>
<glyph name="g" format="2">
  <advance width="602"/>
  <unicode hex="0067"/>
  <outline>
    <contour>
      <point x="530" y="526" type="line"/>
      <point x="442" y="526" type="line"/>
      <point x="442" y="445" type="line"/>
      <point x="413" y="505"/>
      <point x="353" y="542"/>
      <point x="274" y="542" type="curve"/>
      <point x="127" y="542"/>
      <point x="47" y="407"/>
      <point x="47" y="268" type="curve"/>
      <point x="47" y="128"/>
      <point x="122" y="-8"/>
      <point x="290" y="-8" type="curve"/>
      <point x="357" y="-8"/>
      <point x="411" y="15"/>
      <point x="442" y="67" type="curve"/>
      <point x="442" y="-27" type="line"/>
      <point x="442" y="-84"/>
      <point x="407" y="-159"/>
      <point x="307" y="-159" type="curve"/>
      <point x="228" y="-159"/>
      <point x="167" y="-107"/>
      <point x="164" y="-56" type="curve"/>
      <point x="76" y="-56" type="line"/>
      <point x="81" y="-161"/>
      <point x="191" y="-233"/>
      <point x="308" y="-233" type="curve"/>
      <point x="441" y="-233"/>
      <point x="530" y="-153"/>
      <point x="530" y="-31" type="curve"/>
    </contour>
    <contour>
      <point x="442" y="172" type="line"/>
      <point x="431" y="135"/>
      <point x="384" y="75"/>
      <point x="297" y="75" type="curve"/>
      <point x="178" y="75"/>
      <point x="133" y="179"/>
      <point x="133" y="274" type="curve"/>
      <point x="133" y="368"/>
      <point x="185" y="462"/>
      <point x="290" y="462" type="curve"/>
      <point x="379" y="462"/>
      <point x="434" y="392"/>
      <point x="442" y="348" type="curve"/>
    </contour>
  </outline>
</glyph>
<glyph name="h" format="2">
  <advance width="620"/>
  <unicode hex="0068"/>
  <outline>
    <contour>
      <point x="548" y="344" type="line"/>
      <point x="548" y="463"/>
      <point x="492" y="544"/>
      <point x="343" y="544" type="curve"/>
      <point x="266" y="544"/>
      <point x="201" y="515"/>
      <point x="160" y="459" type="curve"/>
      <point x="160" y="800" type="line"/>
      <point x="72" y="800" type="line"/>
      <point x="72" y="0" type="line"/>
      <point x="160" y="0" type="line"/>
      <point x="160" y="361" type="line"/>
      <point x="199" y="434"/>
      <point x="260" y="473"/>
      <point x="327" y="473" type="curve"/>
      <point x="461" y="473"/>
      <point x="460" y="371"/>
      <point x="460" y="316" type="curve"/>
      <point x="460" y="0" type="line"/>
      <point x="548" y="0" type="line"/>
    </contour>
  </outline>
</glyph>
<glyph name="i" format="2">
  <advance width="251"/>
  <unicode hex="0069"/>
  <outline>
    <contour>
      <point x="82" y="0" type="line"/>
      <point x="170" y="0" type="line"/>
      <point x="170" y="526" type="line"/>
      <point x="82" y="526" type="line"/>
    </contour>
    <contour>
      <point x="126" y="643" type="curve" smooth="yes"/>
      <point x="159" y="643"/>
      <point x="185" y="669"/>
      <point x="185" y="702" type="curve" smooth="yes"/>
      <point x="185" y="735"/>
      <point x="159" y="761"/>
      <point x="126" y="761" type="curve" smooth="yes"/>
      <point x="93" y="761"/>
      <point x="67" y="735"/>
      <point x="67" y="702" type="curve" smooth="yes"/>
      <point x="67" y="669"/>
      <point x="93" y="643"/>
    </contour>
  </outline>
</glyph>
<glyph name="j" format="2">
  <advance width="276"/>
  <unicode hex="006A"/>
  <outline>
    <contour>
      <point x="-42" y="-233" type="line"/>
      <point x="120" y="-230"/>
      <point x="198" y="-140"/>
      <point x="198" y="-5" type="curve"/>
      <point x="198" y="526" type="line"/>
      <point x="110" y="526" type="line"/>
      <point x="110" y="-7" type="line"/>
      <point x="110" y="-104"/>
      <point x="68" y="-150"/>
      <point x="-42" y="-149" type="curve"/>
    </contour>
    <contour>
      <point x="154" y="638" type="curve" smooth="yes"/>
      <point x="187" y="638"/>
      <point x="213" y="664"/>
      <point x="213" y="697" type="curve" smooth="yes"/>
      <point x="213" y="730"/>
      <point x="187" y="756"/>
      <point x="154" y="756" type="curve" smooth="yes"/>
      <point x="121" y="756"/>
      <point x="95" y="730"/>
      <point x="95" y="697" type="curve" smooth="yes"/>
      <point x="95" y="664"/>
      <point x="121" y="638"/>
    </contour>
  </outline>
</glyph>
<glyph name="k" format="2">
  <advance width="565"/>
  <unicode hex="006B"/>
  <outline>
    <contour>
      <point x="160" y="168" type="line"/>
      <point x="513" y="527" type="line"/>
      <point x="400" y="527" type="line"/>
      <point x="160" y="283" type="line"/>
      <point x="160" y="800" type="line"/>
      <point x="72" y="800" type="line"/>
      <point x="72" y="0" type="line"/>
      <point x="160" y="0" type="line"/>
    </contour>
    <contour>
      <point x="301" y="321" type="line"/>
      <point x="241" y="260" type="line"/>
      <point x="455" y="0" type="line"/>
      <point x="565" y="0" type="line"/>
    </contour>
  </outline>
</glyph>
<glyph name="l" format="2">
  <advance width="232"/>
  <unicode hex="006C"/>
  <outline>
    <contour>
      <point x="72" y="0" type="line"/>
      <point x="160" y="0" type="line"/>
      <point x="160" y="800" type="line"/>
      <point x="72" y="800" type="line"/>
    </contour>
  </outline>
</glyph>
<glyph name="m" format="2">
  <advance width="868"/>
  <unicode hex="006D"/>
  <note>
m
</note>
  <anchor x="434" y="0" name="bottom"/>
  <anchor x="434" y="526" name="top"/>
  <outline>
    <contour>
      <point x="65" y="0" type="line"/>
      <point x="153" y="0" type="line"/>
      <point x="153" y="526" type="line"/>
      <point x="65" y="526" type="line"/>
    </contour>
    <contour>
      <point x="153" y="361" type="line"/>
      <point x="203" y="473"/>
      <point x="286" y="473" type="qcurve"/>
      <point x="351" y="473"/>
      <point x="390" y="386"/>
      <point x="390" y="316" type="qcurve"/>
      <point x="390" y="0" type="line"/>
      <point x="478" y="0" type="line"/>
      <point x="478" y="344" type="line" smooth="yes"/>
      <point x="478" y="439"/>
      <point x="391" y="544"/>
      <point x="302" y="544" type="qcurve"/>
      <point x="235" y="544"/>
      <point x="145" y="468"/>
      <point x="113" y="388" type="qcurve"/>
    </contour>
    <contour>
      <point x="468" y="381" type="line"/>
      <point x="492" y="419"/>
      <point x="576" y="473"/>
      <point x="611" y="473" type="qcurve"/>
      <point x="676" y="473"/>
      <point x="715" y="386"/>
      <point x="715" y="316" type="qcurve"/>
      <point x="715" y="0" type="line"/>
      <point x="803" y="0" type="line"/>
      <point x="803" y="344" type="line" smooth="yes"/>
      <point x="803" y="439"/>
      <point x="716" y="544"/>
      <point x="627" y="544" type="qcurve"/>
      <point x="566" y="544"/>
      <point x="460" y="471"/>
      <point x="428" y="408" type="qcurve"/>
    </contour>
  </outline>
</glyph>
<glyph name="n" format="2">
  <advance width="620"/>
  <unicode hex="006E"/>
  <outline>
    <contour>
      <point x="548" y="344" type="line"/>
      <point x="548" y="467"/>
      <point x="486" y="544"/>
      <point x="343" y="544" type="curve"/>
      <point x="266" y="544"/>
      <point x="201" y="514"/>
      <point x="160" y="458" type="curve"/>
      <point x="160" y="526" type="line"/>
      <point x="72" y="526" type="line"/>
      <point x="72" y="0" type="line"/>
      <point x="160" y="0" type="line"/>
      <point x="160" y="360" type="line"/>
      <point x="199" y="436"/>
      <point x="261" y="473"/>
      <point x="326" y="473" type="curve"/>
      <point x="452" y="473"/>
      <point x="460" y="384"/>
      <point x="460" y="316" type="curve"/>
      <point x="460" y="0" type="line"/>
      <point x="548" y="0" type="line"/>
    </contour>
  </outline>
</glyph>
<glyph name="o" format="2">
  <advance width="608"/>
  <unicode hex="006F"/>
  <outline>
    <contour>
      <point x="305" y="-5" type="curve"/>
      <point x="453" y="-5"/>
      <point x="562" y="103"/>
      <point x="562" y="267" type="curve"/>
      <point x="562" y="428"/>
      <point x="453" y="543"/>
      <point x="305" y="543" type="curve"/>
      <point x="153" y="543"/>
      <point x="46" y="428"/>
      <point x="46" y="267" type="curve"/>
      <point x="46" y="103"/>
      <point x="153" y="-5"/>
    </contour>
    <contour>
      <point x="305" y="77" type="curve"/>
      <point x="197" y="77"/>
      <point x="133" y="164"/>
      <point x="133" y="267" type="curve"/>
      <point x="133" y="369"/>
      <point x="197" y="459"/>
      <point x="305" y="459" type="curve"/>
      <point x="410" y="459"/>
      <point x="475" y="369"/>
      <point x="475" y="267" type="curve"/>
      <point x="475" y="165"/>
      <point x="410" y="77"/>
    </contour>
  </outline>
</glyph>
<glyph name="p" format="2">
  <advance width="613"/>
  <unicode hex="0070"/>
  <outline>
    <contour>
      <point x="160" y="526" type="line"/>
      <point x="72" y="526" type="line"/>
      <point x="72" y="-216" type="line"/>
      <point x="160" y="-216" type="line"/>
      <point x="160" y="46" type="line"/>
      <point x="197" y="11"/>
      <point x="247" y="-11"/>
      <point x="311" y="-11" type="curve"/>
      <point x="474" y="-11"/>
      <point x="567" y="113"/>
      <point x="567" y="268" type="curve"/>
      <point x="567" y="423"/>
      <point x="482" y="542"/>
      <point x="338" y="542" type="curve"/>
      <point x="267" y="542"/>
      <point x="189" y="496"/>
      <point x="160" y="445" type="curve"/>
    </contour>
    <contour>
      <point x="160" y="344" type="line"/>
      <point x="168" y="405"/>
      <point x="257" y="463"/>
      <point x="322" y="463" type="curve"/>
      <point x="424" y="463"/>
      <point x="481" y="382"/>
      <point x="481" y="274" type="curve"/>
      <point x="481" y="165"/>
      <point x="417" y="72"/>
      <point x="302" y="72" type="curve"/>
      <point x="241" y="72"/>
      <point x="189" y="101"/>
      <point x="160" y="144" type="curve"/>
    </contour>
  </outline>
</glyph>
<glyph name="q" format="2">
  <advance width="580"/>
  <unicode hex="0071"/>
  <note>
q
</note>
  <anchor x="290" y="0" name="bottom"/>
  <anchor x="290" y="526" name="top"/>
  <outline>
    <contour>
      <point x="427" y="526" type="line"/>
      <point x="427" y="445" type="line"/>
      <point x="405" y="486"/>
      <point x="322" y="541"/>
      <point x="269" y="541" type="qcurve"/>
      <point x="205" y="541"/>
      <point x="101" y="469"/>
      <point x="41" y="344"/>
      <point x="41" y="268" type="qcurve"/>
      <point x="41" y="190"/>
      <point x="99" y="63"/>
      <point x="210" y="-11"/>
      <point x="286" y="-11" type="qcurve"/>
      <point x="372" y="-11"/>
      <point x="427" y="46" type="qcurve"/>
      <point x="427" y="-220" type="line"/>
      <point x="515" y="-220" type="line"/>
      <point x="515" y="526" type="line"/>
    </contour>
    <contour>
      <point x="427" y="139" type="line"/>
      <point x="407" y="106"/>
      <point x="336" y="67"/>
      <point x="294" y="67" type="qcurve"/>
      <point x="242" y="67"/>
      <point x="168" y="123"/>
      <point x="129" y="217"/>
      <point x="129" y="274" type="qcurve"/>
      <point x="129" y="327"/>
      <point x="169" y="414"/>
      <point x="240" y="463"/>
      <point x="283" y="463" type="qcurve"/>
      <point x="316" y="463"/>
      <point x="380" y="430"/>
      <point x="424" y="375"/>
      <point x="427" y="346" type="qcurve"/>
    </contour>
  </outline>
</glyph>
<glyph name="r" format="2">
  <advance width="380"/>
  <unicode hex="0072"/>
  <note>
r
</note>
  <anchor x="109" y="0" name="bottom"/>
  <anchor x="198" y="526" name="top"/>
  <outline>
    <contour>
      <point x="65" y="0" type="line"/>
      <point x="153" y="0" type="line"/>
      <point x="153" y="526" type="line"/>
      <point x="65" y="526" type="line"/>
    </contour>
    <contour>
      <point x="360" y="526" type="line"/>
      <point x="336" y="535"/>
      <point x="307" y="535" type="qcurve"/>
      <point x="261" y="535"/>
      <point x="177" y="484"/>
      <point x="153" y="436" type="qcurve"/>
      <point x="153" y="350" type="line"/>
      <point x="165" y="392"/>
      <point x="253" y="457"/>
      <point x="312" y="457" type="qcurve"/>
      <point x="336" y="457"/>
      <point x="360" y="451" type="qcurve"/>
    </contour>
  </outline>
</glyph>
<glyph name="s" format="2">
  <advance width="487"/>
  <unicode hex="0073"/>
  <note>
s
</note>
  <anchor x="244" y="0" name="bottom"/>
  <anchor x="244" y="526" name="top"/>
  <outline>
    <contour>
      <point x="446" y="146" type="qcurve"/>
      <point x="446" y="191"/>
      <point x="394" y="250"/>
      <point x="320" y="284"/>
      <point x="262" y="303" type="qcurve"/>
      <point x="198" y="324"/>
      <point x="137" y="360"/>
      <point x="137" y="390" type="qcurve"/>
      <point x="137" y="428"/>
      <point x="195" y="468"/>
      <point x="238" y="468" type="qcurve"/>
      <point x="284" y="468"/>
      <point x="352" y="421"/>
      <point x="353" y="378" type="qcurve"/>
      <point x="443" y="378" type="line"/>
      <point x="442" y="430"/>
      <point x="382" y="505"/>
      <point x="289" y="543"/>
      <point x="239" y="543" type="qcurve"/>
      <point x="191" y="543"/>
      <point x="103" y="508"/>
      <point x="47" y="438"/>
      <point x="47" y="388" type="qcurve"/>
      <point x="47" y="343"/>
      <point x="98" y="285"/>
      <point x="171" y="252"/>
      <point x="228" y="234" type="qcurve"/>
      <point x="294" y="212"/>
      <point x="355" y="177"/>
      <point x="355" y="146" type="qcurve"/>
      <point x="355" y="106"/>
      <point x="295" y="66"/>
      <point x="254" y="66" type="qcurve"/>
      <point x="204" y="66"/>
      <point x="131" y="114"/>
      <point x="131" y="160" type="qcurve"/>
      <point x="41" y="160" type="line"/>
      <point x="43" y="78"/>
      <point x="161" y="-10"/>
      <point x="245" y="-10" type="qcurve"/>
      <point x="294" y="-10"/>
      <point x="386" y="23"/>
      <point x="446" y="94"/>
    </contour>
  </outline>
</glyph>
<glyph name="t" format="2">
  <advance width="348"/>
  <unicode hex="0074"/>
  <note>
t
</note>
  <anchor x="214" y="0" name="bottom"/>
  <anchor x="174" y="686" name="top"/>
  <anchor x="328" y="800" name="topright"/>
  <outline>
    <contour>
      <point x="333" y="74" type="line"/>
      <point x="282" y="76"/>
      <point x="230" y="92"/>
      <point x="203" y="145"/>
      <point x="203" y="201" type="qcurve"/>
      <point x="203" y="446" type="line"/>
      <point x="309" y="446" type="line"/>
      <point x="309" y="526" type="line"/>
      <point x="203" y="526" type="line"/>
      <point x="203" y="686" type="line"/>
      <point x="115" y="686" type="line"/>
      <point x="115" y="526" type="line"/>
      <point x="25" y="526" type="line"/>
      <point x="25" y="446" type="line"/>
      <point x="115" y="446" type="line"/>
      <point x="115" y="211" type="line" smooth="yes"/>
      <point x="115" y="131"/>
      <point x="143" y="42"/>
      <point x="237" y="-6"/>
      <point x="333" y="-6" type="qcurve"/>
    </contour>
  </outline>
</glyph>
<glyph name="u" format="2">
  <advance width="580"/>
  <unicode hex="0075"/>
  <note>
u
</note>
  <anchor x="290" y="0" name="bottom"/>
  <anchor x="290" y="526" name="top"/>
  <anchor x="471" y="0" name="ogonek"/>
  <anchor x="560" y="526" name="topright"/>
  <outline>
    <contour>
      <point x="65" y="187" type="line"/>
      <point x="65" y="-11"/>
      <point x="261" y="-11" type="qcurve"/>
      <point x="372" y="-11"/>
      <point x="427" y="73" type="qcurve"/>
      <point x="427" y="0" type="line"/>
      <point x="515" y="0" type="line"/>
      <point x="515" y="526" type="line"/>
      <point x="427" y="526" type="line"/>
      <point x="427" y="172" type="line"/>
      <point x="377" y="60"/>
      <point x="272" y="60" type="qcurve"/>
      <point x="216" y="60"/>
      <point x="164" y="111"/>
      <point x="153" y="172"/>
      <point x="153" y="215" type="qcurve"/>
      <point x="153" y="526" type="line"/>
      <point x="65" y="526" type="line"/>
    </contour>
  </outline>
</glyph>
<glyph name="v" format="2">
  <advance width="514"/>
  <unicode hex="0076"/>
  <outline>
    <contour>
      <point x="209" y="0" type="line"/>
      <point x="305" y="0" type="line"/>
      <point x="495" y="526" type="line"/>
      <point x="406" y="526" type="line"/>
      <point x="257" y="109" type="line"/>
      <point x="108" y="526" type="line"/>
      <point x="19" y="526" type="line"/>
    </contour>
  </outline>
</glyph>
<glyph name="w" format="2">
  <advance width="842"/>
  <unicode hex="0077"/>
  <outline>
    <contour>
      <point x="247" y="109" type="line"/>
      <point x="114" y="526" type="line"/>
      <point x="20" y="526" type="line"/>
      <point x="197" y="0" type="line"/>
      <point x="293" y="0" type="line"/>
      <point x="421" y="388" type="line"/>
      <point x="549" y="0" type="line"/>
      <point x="645" y="0" type="line"/>
      <point x="822" y="526" type="line"/>
      <point x="728" y="526" type="line"/>
      <point x="595" y="109" type="line"/>
      <point x="464" y="526" type="line"/>
      <point x="378" y="526" type="line"/>
    </contour>
  </outline>
</glyph>
<glyph name="x" format="2">
  <advance width="507"/>
  <unicode hex="0078"/>
  <outline>
    <contour>
      <point x="118" y="0" type="line"/>
      <point x="487" y="526" type="line"/>
      <point x="390" y="526" type="line"/>
      <point x="20" y="0" type="line"/>
    </contour>
    <contour>
      <point x="22" y="526" type="line"/>
      <point x="388" y="0" type="line"/>
      <point x="486" y="0" type="line"/>
      <point x="120" y="526" type="line"/>
    </contour>
  </outline>
</glyph>
<glyph name="y" format="2">
  <advance width="500"/>
  <unicode hex="0079"/>
  <note>
y
</note>
  <anchor x="250" y="0" name="bottom"/>
  <anchor x="250" y="526" name="top"/>
  <outline>
    <contour>
      <point x="260" y="131" type="line"/>
      <point x="105" y="526" type="line"/>
      <point x="19" y="526" type="line"/>
      <point x="218" y="21" type="line"/>
      <point x="193" y="-58"/>
      <point x="114" y="-151"/>
      <point x="35" y="-151" type="qcurve"/>
      <point x="35" y="-231" type="line"/>
      <point x="109" y="-230"/>
      <point x="210" y="-171"/>
      <point x="278" y="-63"/>
      <point x="307" y="21" type="qcurve"/>
      <point x="481" y="526" type="line"/>
      <point x="396" y="526" type="line"/>
    </contour>
  </outline>
</glyph>
<glyph name="z" format="2">
  <advance width="593"/>
  <unicode hex="007A"/>
  <outline>
    <contour>
      <point x="538" y="526" type="line"/>
      <point x="73" y="526" type="line"/>
      <point x="73" y="442" type="line"/>
      <point x="403" y="442" type="line"/>
      <point x="52" y="57" type="line"/>
      <point x="52" y="0" type="line"/>
      <point x="538" y="0" type="line"/>
      <point x="538" y="84" type="line"/>
      <point x="187" y="84" type="line"/>
      <point x="538" y="470" type="line"/>
    </contour>
  </outline>
</glyph>
<glyph name="braceleft" format="2">
  <advance width="422"/>
  <unicode hex="007B"/>
  <note>
braceleft
</note>
  <outline>
    <contour>
      <point x="50" y="287" type="line"/>
      <point x="84" y="286"/>
      <point x="117" y="242"/>
      <point x="126" y="175"/>
      <point x="127" y="116" type="qcurve"/>
      <point x="129" y="25"/>
      <point x="153" y="-89"/>
      <point x="249" y="-170"/>
      <point x="349" y="-169" type="qcurve"/>
      <point x="350" y="-125" type="line"/>
      <point x="284" y="-125"/>
      <point x="220" y="-54"/>
      <point x="202" y="44"/>
      <point x="199" y="126" type="qcurve"/>
      <point x="197" y="183"/>
      <point x="189" y="250"/>
      <point x="163" y="299"/>
      <point x="136" y="304" type="qcurve"/>
      <point x="164" y="311"/>
      <point x="192" y="363"/>
      <point x="200" y="431"/>
      <point x="202" y="489" type="qcurve"/>
      <point x="204" y="568"/>
      <point x="221" y="667"/>
      <point x="285" y="735"/>
      <point x="350" y="735" type="qcurve"/>
      <point x="349" y="779" type="line"/>
      <point x="250" y="780"/>
      <point x="155" y="700"/>
      <point x="131" y="588"/>
      <point x="129" y="500" type="qcurve"/>
      <point x="128" y="441"/>
      <point x="119" y="375"/>
      <point x="85" y="332"/>
      <point x="50" y="332" type="qcurve"/>
    </contour>
  </outline>
</glyph>
<glyph name="bar" format="2">
  <advance width="242"/>
  <unicode hex="007C"/>
  <outline>
    <contour>
      <point x="77" y="-120" type="line"/>
      <point x="165" y="-120" type="line"/>
      <point x="165" y="750" type="line"/>
      <point x="77" y="750" type="line"/>
    </contour>
  </outline>
</glyph>
<glyph name="braceright" format="2">
  <advance width="422"/>
  <unicode hex="007D"/>
  <note>
braceright
</note>
  <outline>
    <contour>
      <point x="372" y="331" type="line"/>
      <point x="338" y="331"/>
      <point x="305" y="374"/>
      <point x="297" y="440"/>
      <point x="296" y="497" type="qcurve"/>
      <point x="294" y="586"/>
      <point x="270" y="699"/>
      <point x="174" y="779"/>
      <point x="73" y="778" type="qcurve"/>
      <point x="72" y="734" type="line"/>
      <point x="138" y="734"/>
      <point x="202" y="663"/>
      <point x="220" y="564"/>
      <point x="223" y="482" type="qcurve"/>
      <point x="225" y="425"/>
      <point x="233" y="357"/>
      <point x="259" y="308"/>
      <point x="286" y="303" type="qcurve"/>
      <point x="259" y="296"/>
      <point x="232" y="245"/>
      <point x="224" y="178"/>
      <point x="221" y="120" type="qcurve"/>
      <point x="218" y="41"/>
      <point x="201" y="-57"/>
      <point x="137" y="-126"/>
      <point x="72" y="-126" type="qcurve"/>
      <point x="73" y="-170" type="line"/>
      <point x="173" y="-171"/>
      <point x="269" y="-91"/>
      <point x="293" y="21"/>
      <point x="294" y="109" type="qcurve"/>
      <point x="295" y="168"/>
      <point x="304" y="232"/>
      <point x="337" y="275"/>
      <point x="372" y="275" type="qcurve"/>
    </contour>
  </outline>
</glyph>
<glyph name="asciitilde" format="2">
  <advance width="660"/>
  <unicode hex="007E"/>
  <note>
asciitilde
</note>
  <outline>
    <contour>
      <point x="113" y="188" type="line"/>
      <point x="147" y="230"/>
      <point x="201" y="271"/>
      <point x="227" y="271" type="qcurve"/>
      <point x="244" y="271"/>
      <point x="277" y="250"/>
      <point x="303" y="228" type="qcurve"/>
      <point x="340" y="197"/>
      <point x="397" y="165"/>
      <point x="433" y="165" type="qcurve"/>
      <point x="482" y="165"/>
      <point x="575" y="241"/>
      <point x="611" y="293" type="qcurve"/>
      <point x="547" y="337" type="line"/>
      <point x="513" y="295"/>
      <point x="459" y="255"/>
      <point x="433" y="255" type="qcurve"/>
      <point x="416" y="255"/>
      <point x="383" y="276"/>
      <point x="357" y="298" type="qcurve"/>
      <point x="320" y="329"/>
      <point x="263" y="361"/>
      <point x="227" y="361" type="qcurve"/>
      <point x="177" y="361"/>
      <point x="83" y="290"/>
      <point x="49" y="241" type="qcurve"/>
    </contour>
  </outline>
</glyph>
<glyph name="exclamdown" format="2">
  <advance width="300"/>
  <unicode hex="00A1"/>
  <note>
exclamdown
</note>
  <outline>
    <contour>
      <point x="202" y="-224" type="line"/>
      <point x="188" y="302" type="line"/>
      <point x="112" y="302" type="line"/>
      <point x="98" y="-224" type="line"/>
    </contour>
    <contour>
      <point x="150" y="541" type="qcurve"/>
      <point x="121" y="541"/>
      <point x="80" y="500"/>
      <point x="80" y="471" type="qcurve"/>
      <point x="80" y="442"/>
      <point x="121" y="401"/>
      <point x="150" y="401" type="qcurve"/>
      <point x="179" y="401"/>
      <point x="220" y="442"/>
      <point x="220" y="471" type="qcurve"/>
      <point x="220" y="500"/>
      <point x="179" y="541"/>
    </contour>
  </outline>
</glyph>
<glyph name="cent" format="2">
  <advance width="540"/>
  <unicode hex="00A2"/>
  <outline>
    <component base="c"/>
    <contour>
      <point x="247" y="512" type="line"/>
      <point x="312" y="512" type="line"/>
      <point x="319" y="636" type="line"/>
      <point x="242" y="636" type="line"/>
    </contour>
    <contour>
      <point x="307" y="27" type="line"/>
      <point x="243" y="27" type="line"/>
      <point x="236" y="-104" type="line"/>
      <point x="313" y="-104" type="line"/>
    </contour>
  </outline>
</glyph>
<glyph name="sterling" format="2">
  <advance width="625"/>
  <unicode hex="00A3"/>
  <note>
sterling
</note>
  <outline>
    <contour>
      <point x="502" y="755" type="line"/>
      <point x="468" y="776"/>
      <point x="370" y="804"/>
      <point x="315" y="804" type="qcurve"/>
      <point x="227" y="804"/>
      <point x="115" y="694"/>
      <point x="115" y="583" type="qcurve"/>
      <point x="115" y="211" type="line" smooth="yes"/>
      <point x="115" y="159"/>
      <point x="87" y="87"/>
      <point x="55" y="60" type="qcurve"/>
      <point x="133" y="50" type="line"/>
      <point x="166" y="77"/>
      <point x="203" y="155"/>
      <point x="203" y="204" type="qcurve"/>
      <point x="203" y="597" type="line" smooth="yes"/>
      <point x="203" y="665"/>
      <point x="269" y="728"/>
      <point x="317" y="728" type="qcurve"/>
      <point x="411" y="728"/>
      <point x="467" y="695" type="qcurve"/>
    </contour>
    <contour>
      <point x="43" y="80" type="line"/>
      <point x="43" y="0" type="line"/>
      <point x="589" y="0" type="line"/>
      <point x="589" y="80" type="line"/>
    </contour>
    <contour>
      <point x="33" y="420" type="line"/>
      <point x="33" y="340" type="line"/>
      <point x="369" y="340" type="line"/>
      <point x="369" y="420" type="line"/>
    </contour>
  </outline>
</glyph>
<glyph name="yen" format="2">
  <advance width="648"/>
  <unicode hex="00A5"/>
  <note>
yen
</note>
  <anchor x="324" y="750" name="top"/>
  <anchor x="324" y="0" name="bottom"/>
  <outline>
    <contour>
      <point x="641" y="750" type="line"/>
      <point x="544" y="750" type="line"/>
      <point x="324" y="343" type="line"/>
      <point x="104" y="750" type="line"/>
      <point x="7" y="750" type="line"/>
      <point x="280" y="246" type="line"/>
      <point x="280" y="0" type="line"/>
      <point x="368" y="0" type="line"/>
      <point x="368" y="246" type="line"/>
    </contour>
    <contour>
      <point x="539" y="189" type="line"/>
      <point x="109" y="189" type="line"/>
      <point x="109" y="109" type="line"/>
      <point x="539" y="109" type="line"/>
    </contour>
    <contour>
      <point x="539" y="339" type="line"/>
      <point x="109" y="339" type="line"/>
      <point x="109" y="259" type="line"/>
      <point x="539" y="259" type="line"/>
    </contour>
  </outline>
</glyph>
<glyph name="brokenbar" format="2">
  <advance width="276"/>
  <unicode hex="00A6"/>
  <outline>
    <contour>
      <point x="94" y="360" type="line"/>
      <point x="182" y="360" type="line"/>
      <point x="182" y="750" type="line"/>
      <point x="94" y="750" type="line"/>
    </contour>
    <contour>
      <point x="94" y="268" type="line"/>
      <point x="94" y="-120" type="line"/>
      <point x="182" y="-120" type="line"/>
      <point x="182" y="268" type="line"/>
    </contour>
  </outline>
</glyph>
<glyph name="section" format="2">
  <advance width="487"/>
  <unicode hex="00A7"/>
  <note>
section
</note>
  <outline>
    <contour>
      <point x="446" y="365" type="qcurve"/>
      <point x="446" y="410"/>
      <point x="394" y="469"/>
      <point x="320" y="503"/>
      <point x="262" y="522" type="qcurve"/>
      <point x="198" y="543"/>
      <point x="137" y="579"/>
      <point x="137" y="609" type="qcurve"/>
      <point x="137" y="647"/>
      <point x="195" y="687"/>
      <point x="238" y="687" type="qcurve"/>
      <point x="284" y="687"/>
      <point x="352" y="640"/>
      <point x="353" y="597" type="qcurve"/>
      <point x="443" y="597" type="line"/>
      <point x="442" y="649"/>
      <point x="382" y="724"/>
      <point x="289" y="762"/>
      <point x="239" y="762" type="qcurve"/>
      <point x="191" y="762"/>
      <point x="103" y="727"/>
      <point x="47" y="657"/>
      <point x="47" y="607" type="qcurve"/>
      <point x="47" y="562"/>
      <point x="98" y="504"/>
      <point x="171" y="471"/>
      <point x="228" y="453" type="qcurve"/>
      <point x="294" y="431"/>
      <point x="355" y="396"/>
      <point x="355" y="365" type="qcurve"/>
      <point x="355" y="325"/>
      <point x="295" y="285"/>
      <point x="254" y="285" type="qcurve"/>
      <point x="315" y="218" type="line"/>
      <point x="372" y="233"/>
      <point x="446" y="307"/>
    </contour>
    <contour>
      <point x="446" y="145" type="qcurve"/>
      <point x="446" y="190"/>
      <point x="394" y="249"/>
      <point x="320" y="283"/>
      <point x="262" y="302" type="qcurve"/>
      <point x="198" y="323"/>
      <point x="137" y="359"/>
      <point x="137" y="389" type="qcurve"/>
      <point x="137" y="427"/>
      <point x="195" y="467"/>
      <point x="238" y="467" type="qcurve"/>
      <point x="179" y="535" type="line"/>
      <point x="121" y="521"/>
      <point x="47" y="446"/>
      <point x="47" y="387" type="qcurve"/>
      <point x="47" y="342"/>
      <point x="98" y="284"/>
      <point x="171" y="251"/>
      <point x="228" y="233" type="qcurve"/>
      <point x="294" y="211"/>
      <point x="355" y="176"/>
      <point x="355" y="145" type="qcurve"/>
      <point x="355" y="105"/>
      <point x="295" y="65"/>
      <point x="254" y="65" type="qcurve"/>
      <point x="204" y="65"/>
      <point x="131" y="113"/>
      <point x="131" y="159" type="qcurve"/>
      <point x="41" y="159" type="line"/>
      <point x="43" y="77"/>
      <point x="161" y="-11"/>
      <point x="245" y="-11" type="qcurve"/>
      <point x="294" y="-11"/>
      <point x="386" y="22"/>
      <point x="446" y="93"/>
    </contour>
  </outline>
</glyph>
<glyph name="copyright" format="2">
  <advance width="988"/>
  <unicode hex="00A9"/>
  <note>
copyright
</note>
  <outline>
    <contour>
      <point x="494" y="-149" type="qcurve"/>
      <point x="616" y="-149"/>
      <point x="823" y="-28"/>
      <point x="944" y="179"/>
      <point x="944" y="301" type="qcurve"/>
      <point x="944" y="423"/>
      <point x="823" y="630"/>
      <point x="616" y="751"/>
      <point x="494" y="751" type="qcurve"/>
      <point x="372" y="751"/>
      <point x="165" y="630"/>
      <point x="44" y="423"/>
      <point x="44" y="301" type="qcurve"/>
      <point x="44" y="179"/>
      <point x="165" y="-28"/>
      <point x="372" y="-149"/>
    </contour>
    <contour>
      <point x="494" y="-69" type="qcurve"/>
      <point x="394" y="-69"/>
      <point x="224" y="31"/>
      <point x="124" y="201"/>
      <point x="124" y="301" type="qcurve"/>
      <point x="124" y="401"/>
      <point x="224" y="571"/>
      <point x="394" y="671"/>
      <point x="494" y="671" type="qcurve"/>
      <point x="594" y="671"/>
      <point x="764" y="571"/>
      <point x="864" y="401"/>
      <point x="864" y="301" type="qcurve"/>
      <point x="864" y="201"/>
      <point x="764" y="31"/>
      <point x="594" y="-69"/>
    </contour>
    <contour>
      <point x="496" y="498" type="qcurve"/>
      <point x="548" y="498"/>
      <point x="620" y="433"/>
      <point x="629" y="374" type="qcurve"/>
      <point x="719" y="374" type="line"/>
      <point x="703" y="464"/>
      <point x="588" y="575"/>
      <point x="494" y="575" type="qcurve"/>
      <point x="418" y="575"/>
      <point x="311" y="494"/>
      <point x="259" y="367"/>
      <point x="259" y="297" type="qcurve"/>
      <point x="259" y="226"/>
      <point x="312" y="103"/>
      <point x="420" y="27"/>
      <point x="498" y="27" type="qcurve"/>
      <point x="588" y="27"/>
      <point x="704" y="130"/>
      <point x="719" y="218" type="qcurve"/>
      <point x="629" y="218" type="line"/>
      <point x="623" y="166"/>
      <point x="552" y="104"/>
      <point x="499" y="104" type="qcurve"/>
      <point x="447" y="104"/>
      <point x="379" y="160"/>
      <point x="347" y="248"/>
      <point x="347" y="296" type="qcurve"/>
      <point x="347" y="342"/>
      <point x="378" y="435"/>
      <point x="445" y="498"/>
    </contour>
  </outline>
</glyph>
<glyph name="ordfeminine" format="2">
  <advance width="397"/>
  <unicode hex="00AA"/>
  <note>
ordfeminine
</note>
  <anchor x="199" y="350" name="bottom"/>
  <anchor x="200" y="745" name="top"/>
  <anchor x="315" y="350" name="ogonek"/>
  <outline>
    <contour>
      <point x="106" y="636" type="line"/>
      <point x="109" y="666"/>
      <point x="161" y="701"/>
      <point x="197" y="701" type="qcurve"/>
      <point x="237" y="701"/>
      <point x="278" y="666"/>
      <point x="282" y="631" type="qcurve"/>
      <point x="282" y="591" type="line"/>
      <point x="216" y="591" type="line" smooth="yes"/>
      <point x="132" y="591"/>
      <point x="31" y="525"/>
      <point x="31" y="460" type="qcurve"/>
      <point x="31" y="407"/>
      <point x="113" y="345"/>
      <point x="170" y="345" type="qcurve"/>
      <point x="239" y="345"/>
      <point x="283" y="402" type="qcurve"/>
      <point x="283" y="350" type="line"/>
      <point x="348" y="350" type="line"/>
      <point x="348" y="620" type="line" smooth="yes"/>
      <point x="348" y="686"/>
      <point x="269" y="756"/>
      <point x="200" y="756" type="qcurve"/>
      <point x="160" y="756"/>
      <point x="86" y="728"/>
      <point x="40" y="674"/>
      <point x="40" y="636" type="qcurve"/>
    </contour>
    <contour>
      <point x="283" y="457" type="line"/>
      <point x="266" y="430"/>
      <point x="207" y="397"/>
      <point x="176" y="397" type="qcurve"/>
      <point x="146" y="397"/>
      <point x="98" y="434"/>
      <point x="98" y="463" type="qcurve"/>
      <point x="98" y="502"/>
      <point x="170" y="539"/>
      <point x="229" y="539" type="qcurve"/>
      <point x="283" y="539" type="line"/>
    </contour>
  </outline>
</glyph>
<glyph name="guillemotleft" format="2">
  <advance width="600"/>
  <unicode hex="00AB"/>
  <outline>
    <contour>
      <point x="273" y="491" type="line"/>
      <point x="74" y="263" type="line"/>
      <point x="273" y="35" type="line"/>
      <point x="330" y="90" type="line"/>
      <point x="178" y="263" type="line"/>
      <point x="330" y="436" type="line"/>
    </contour>
    <contour>
      <point x="473" y="491" type="line"/>
      <point x="274" y="263" type="line"/>
      <point x="473" y="35" type="line"/>
      <point x="530" y="90" type="line"/>
      <point x="378" y="263" type="line"/>
      <point x="530" y="436" type="line"/>
    </contour>
  </outline>
</glyph>
<glyph name="registered" format="2">
  <advance width="988"/>
  <unicode hex="00AE"/>
  <note>
registered
</note>
  <outline>
    <contour>
      <point x="494" y="-149" type="qcurve"/>
      <point x="616" y="-149"/>
      <point x="823" y="-28"/>
      <point x="944" y="179"/>
      <point x="944" y="301" type="qcurve"/>
      <point x="944" y="423"/>
      <point x="823" y="630"/>
      <point x="616" y="751"/>
      <point x="494" y="751" type="qcurve"/>
      <point x="372" y="751"/>
      <point x="165" y="630"/>
      <point x="44" y="423"/>
      <point x="44" y="301" type="qcurve"/>
      <point x="44" y="179"/>
      <point x="165" y="-28"/>
      <point x="372" y="-149"/>
    </contour>
    <contour>
      <point x="494" y="-69" type="qcurve"/>
      <point x="394" y="-69"/>
      <point x="224" y="31"/>
      <point x="124" y="201"/>
      <point x="124" y="301" type="qcurve"/>
      <point x="124" y="401"/>
      <point x="224" y="571"/>
      <point x="394" y="671"/>
      <point x="494" y="671" type="qcurve"/>
      <point x="594" y="671"/>
      <point x="764" y="571"/>
      <point x="864" y="401"/>
      <point x="864" y="301" type="qcurve"/>
      <point x="864" y="201"/>
      <point x="764" y="31"/>
      <point x="594" y="-69"/>
    </contour>
    <contour>
      <point x="596" y="233" type="line"/>
      <point x="508" y="225" type="line"/>
      <point x="634" y="22" type="line"/>
      <point x="728" y="22" type="line"/>
    </contour>
    <contour>
      <point x="308" y="22" type="line"/>
      <point x="392" y="22" type="line"/>
      <point x="392" y="217" type="line"/>
      <point x="535" y="217" type="line" smooth="yes"/>
      <point x="594" y="217"/>
      <point x="677" y="266"/>
      <point x="719" y="347"/>
      <point x="719" y="393" type="qcurve"/>
      <point x="719" y="440"/>
      <point x="677" y="522"/>
      <point x="596" y="573"/>
      <point x="539" y="573" type="qcurve"/>
      <point x="308" y="573" type="line"/>
    </contour>
    <contour>
      <point x="537" y="494" type="line"/>
      <point x="584" y="494"/>
      <point x="635" y="435"/>
      <point x="635" y="393" type="qcurve"/>
      <point x="635" y="352"/>
      <point x="583" y="293"/>
      <point x="533" y="293" type="qcurve"/>
      <point x="392" y="293" type="line"/>
      <point x="392" y="494" type="line"/>
    </contour>
  </outline>
</glyph>
<glyph name="degree" format="2">
  <advance width="336"/>
  <unicode hex="00B0"/>
  <note>
degree
</note>
  <anchor x="168" y="737" name="top"/>
  <outline>
    <contour>
      <point x="168" y="511" type="qcurve"/>
      <point x="222" y="511"/>
      <point x="296" y="585"/>
      <point x="296" y="639" type="qcurve"/>
      <point x="296" y="693"/>
      <point x="222" y="767"/>
      <point x="168" y="767" type="qcurve"/>
      <point x="114" y="767"/>
      <point x="40" y="693"/>
      <point x="40" y="639" type="qcurve"/>
      <point x="40" y="585"/>
      <point x="114" y="511"/>
    </contour>
    <contour>
      <point x="168" y="575" type="qcurve"/>
      <point x="141" y="575"/>
      <point x="104" y="612"/>
      <point x="104" y="639" type="qcurve"/>
      <point x="104" y="666"/>
      <point x="141" y="703"/>
      <point x="168" y="703" type="qcurve"/>
      <point x="195" y="703"/>
      <point x="232" y="666"/>
      <point x="232" y="639" type="qcurve"/>
      <point x="232" y="612"/>
      <point x="195" y="575"/>
    </contour>
  </outline>
</glyph>
<glyph name="paragraph" format="2">
  <advance width="520"/>
  <unicode hex="00B6"/>
  <note>
paragraph
</note>
  <outline>
    <contour>
      <point x="261" y="-150" type="line"/>
      <point x="321" y="-150" type="line"/>
      <point x="321" y="750" type="line"/>
      <point x="261" y="750" type="line" smooth="yes"/>
      <point x="201" y="750"/>
      <point x="100" y="691"/>
      <point x="41" y="590"/>
      <point x="41" y="530" type="qcurve"/>
      <point x="41" y="470"/>
      <point x="100" y="369"/>
      <point x="201" y="310"/>
      <point x="261" y="310" type="qcurve"/>
    </contour>
    <contour>
      <point x="390" y="750" type="line"/>
      <point x="390" y="-150" type="line"/>
      <point x="450" y="-150" type="line"/>
      <point x="450" y="750" type="line"/>
    </contour>
  </outline>
</glyph>
<glyph name="ordmasculine" format="2">
  <advance width="428"/>
  <unicode hex="00BA"/>
  <note>
ordmasculine
</note>
  <anchor x="215" y="350" name="bottom"/>
  <anchor x="215" y="745" name="top"/>
  <anchor x="386" y="358" name="ogonek"/>
  <anchor x="413" y="745" name="topright"/>
  <outline>
    <contour>
      <point x="215" y="341" type="qcurve"/>
      <point x="266" y="341"/>
      <point x="350" y="393"/>
      <point x="398" y="488"/>
      <point x="398" y="548" type="qcurve"/>
      <point x="398" y="608"/>
      <point x="350" y="703"/>
      <point x="266" y="757"/>
      <point x="215" y="757" type="qcurve"/>
      <point x="162" y="757"/>
      <point x="78" y="703"/>
      <point x="30" y="608"/>
      <point x="30" y="548" type="qcurve"/>
      <point x="30" y="488"/>
      <point x="78" y="393"/>
      <point x="162" y="341"/>
    </contour>
    <contour>
      <point x="215" y="398" type="qcurve"/>
      <point x="160" y="398"/>
      <point x="96" y="486"/>
      <point x="96" y="548" type="qcurve"/>
      <point x="96" y="611"/>
      <point x="160" y="700"/>
      <point x="215" y="700" type="qcurve"/>
      <point x="268" y="700"/>
      <point x="332" y="611"/>
      <point x="332" y="548" type="qcurve"/>
      <point x="332" y="486"/>
      <point x="268" y="398"/>
    </contour>
  </outline>
</glyph>
<glyph name="questiondown" format="2">
  <advance width="559"/>
  <unicode hex="00BF"/>
  <note>
questiondown
</note>
  <outline>
    <contour>
      <point x="222" y="538" type="line"/>
      <point x="219" y="491"/>
      <point x="177" y="417"/>
      <point x="136" y="364" type="qcurve"/>
      <point x="93" y="311"/>
      <point x="50" y="229"/>
      <point x="50" y="178" type="qcurve"/>
      <point x="50" y="118"/>
      <point x="113" y="31"/>
      <point x="217" y="-15"/>
      <point x="276" y="-15" type="qcurve"/>
      <point x="344" y="-15"/>
      <point x="456" y="35"/>
      <point x="523" y="130"/>
      <point x="523" y="196" type="qcurve"/>
      <point x="429" y="196" type="line"/>
      <point x="427" y="137"/>
      <point x="340" y="68"/>
      <point x="280" y="68" type="qcurve"/>
      <point x="219" y="68"/>
      <point x="144" y="129"/>
      <point x="144" y="186" type="qcurve"/>
      <point x="144" y="217"/>
      <point x="179" y="278"/>
      <point x="215" y="325" type="qcurve"/>
      <point x="262" y="385"/>
      <point x="313" y="480"/>
      <point x="314" y="538" type="qcurve"/>
    </contour>
    <contour>
      <point x="274" y="765" type="qcurve"/>
      <point x="245" y="765"/>
      <point x="204" y="724"/>
      <point x="204" y="695" type="qcurve"/>
      <point x="204" y="666"/>
      <point x="245" y="625"/>
      <point x="274" y="625" type="qcurve"/>
      <point x="303" y="625"/>
      <point x="344" y="666"/>
      <point x="344" y="695" type="qcurve"/>
      <point x="344" y="724"/>
      <point x="303" y="765"/>
    </contour>
  </outline>
</glyph>
<glyph name="AE" format="2">
  <advance width="994"/>
  <unicode hex="00C6"/>
  <anchor x="497" y="0" name="bottom"/>
  <anchor x="497" y="750" name="top"/>
  <outline>
    <contour>
      <point x="519" y="194" type="line"/>
      <point x="519" y="274" type="line"/>
      <point x="157" y="274" type="line"/>
      <point x="157" y="194" type="line"/>
    </contour>
    <contour>
      <point x="366" y="670" type="line"/>
      <point x="475" y="670" type="line"/>
      <point x="475" y="0" type="line"/>
      <point x="961" y="0" type="line"/>
      <point x="961" y="80" type="line"/>
      <point x="563" y="80" type="line"/>
      <point x="563" y="332" type="line"/>
      <point x="889" y="332" type="line"/>
      <point x="889" y="412" type="line"/>
      <point x="563" y="412" type="line"/>
      <point x="563" y="670" type="line"/>
      <point x="961" y="670" type="line"/>
      <point x="961" y="750" type="line"/>
      <point x="304" y="750" type="line"/>
      <point x="31" y="0" type="line"/>
      <point x="123" y="0" type="line"/>
    </contour>
  </outline>
</glyph>
<glyph name="Ccedilla" format="2">
  <advance width="727"/>
  <unicode hex="00C7"/>
  <note>
Ccedilla
</note>
  <anchor x="373" y="0" name="bottom"/>
  <anchor x="364" y="750" name="top"/>
  <outline>
    <contour>
      <point x="373" y="765" type="qcurve"/>
      <point x="274" y="765"/>
      <point x="126" y="661"/>
      <point x="47" y="483"/>
      <point x="47" y="376" type="qcurve"/>
      <point x="47" y="268"/>
      <point x="126" y="92"/>
      <point x="273" y="-11"/>
      <point x="373" y="-11" type="qcurve"/>
      <point x="450" y="-11"/>
      <point x="582" y="52"/>
      <point x="670" y="166"/>
      <point x="682" y="242" type="qcurve"/>
      <point x="590" y="242" type="line"/>
      <point x="574" y="164"/>
      <point x="453" y="67"/>
      <point x="373" y="67" type="qcurve"/>
      <point x="301" y="67"/>
      <point x="195" y="153"/>
      <point x="139" y="294"/>
      <point x="139" y="377" type="qcurve"/>
      <point x="139" y="460"/>
      <point x="195" y="601"/>
      <point x="301" y="687"/>
      <point x="373" y="687" type="qcurve"/>
      <point x="427" y="687"/>
      <point x="521" y="638"/>
      <point x="584" y="550"/>
      <point x="592" y="493" type="qcurve"/>
      <point x="684" y="493" type="line"/>
      <point x="675" y="574"/>
      <point x="588" y="697"/>
      <point x="452" y="765"/>
    </contour>
    <contour>
      <point x="259" y="-223" type="line"/>
      <point x="295" y="-242"/>
      <point x="348" y="-242" type="qcurve"/>
      <point x="416" y="-242"/>
      <point x="488" y="-185"/>
      <point x="488" y="-144" type="qcurve"/>
      <point x="488" y="-110"/>
      <point x="431" y="-53"/>
      <point x="379" y="-47" type="qcurve"/>
      <point x="402" y="6" type="line"/>
      <point x="352" y="6" type="line"/>
      <point x="311" y="-68" type="line"/>
      <point x="321" y="-109" type="line"/>
      <point x="331" y="-107"/>
      <point x="343" y="-107" type="qcurve"/>
      <point x="383" y="-107"/>
      <point x="422" y="-130"/>
      <point x="422" y="-143" type="qcurve"/>
      <point x="422" y="-159"/>
      <point x="383" y="-180"/>
      <point x="342" y="-180" type="qcurve"/>
      <point x="301" y="-180"/>
      <point x="285" y="-170" type="qcurve"/>
    </contour>
  </outline>
</glyph>
<glyph name="Eth" format="2">
  <advance width="690"/>
  <unicode hex="00D0"/>
  <note>
Eth
</note>
  <anchor x="345" y="0" name="bottom"/>
  <anchor x="345" y="750" name="top"/>
  <outline>
    <contour>
      <point x="69" y="0" type="line"/>
      <point x="297" y="0" type="line" smooth="yes"/>
      <point x="405" y="0"/>
      <point x="557" y="102"/>
      <point x="634" y="273"/>
      <point x="634" y="374" type="qcurve"/>
      <point x="634" y="476"/>
      <point x="557" y="647"/>
      <point x="405" y="750"/>
      <point x="297" y="750" type="qcurve"/>
      <point x="69" y="750" type="line"/>
    </contour>
    <contour>
      <point x="157" y="74" type="line"/>
      <point x="157" y="673" type="line"/>
      <point x="296" y="673" type="line" smooth="yes"/>
      <point x="391" y="673"/>
      <point x="503" y="571"/>
      <point x="546" y="434"/>
      <point x="546" y="373" type="qcurve"/>
      <point x="546" y="312"/>
      <point x="503" y="175"/>
      <point x="391" y="74"/>
      <point x="296" y="74" type="qcurve"/>
    </contour>
    <contour>
      <point x="0" y="411" type="line"/>
      <point x="0" y="339" type="line"/>
      <point x="267" y="339" type="line"/>
      <point x="267" y="411" type="line"/>
    </contour>
  </outline>
</glyph>
<glyph name="multiply" format="2">
  <advance width="626"/>
  <unicode hex="00D7"/>
  <outline>
    <contour>
      <point x="108" y="48" type="line"/>
      <point x="576" y="516" type="line"/>
      <point x="518" y="574" type="line"/>
      <point x="50" y="106" type="line"/>
    </contour>
    <contour>
      <point x="50" y="516" type="line"/>
      <point x="518" y="48" type="line"/>
      <point x="576" y="106" type="line"/>
      <point x="108" y="574" type="line"/>
    </contour>
  </outline>
</glyph>
<glyph name="Thorn" format="2">
  <advance width="678"/>
  <unicode hex="00DE"/>
  <note>
Thorn
</note>
  <anchor x="339" y="0" name="bottom"/>
  <anchor x="339" y="750" name="top"/>
  <outline>
    <contour>
      <point x="69" y="0" type="line"/>
      <point x="157" y="0" type="line"/>
      <point x="157" y="176" type="line"/>
      <point x="378" y="176" type="line" smooth="yes"/>
      <point x="458" y="176"/>
      <point x="572" y="243"/>
      <point x="629" y="351"/>
      <point x="629" y="412" type="qcurve"/>
      <point x="629" y="474"/>
      <point x="572" y="583"/>
      <point x="461" y="650"/>
      <point x="384" y="650" type="qcurve"/>
      <point x="157" y="650" type="line"/>
      <point x="157" y="750" type="line"/>
      <point x="69" y="750" type="line"/>
    </contour>
    <contour>
      <point x="385" y="570" type="line"/>
      <point x="435" y="570"/>
      <point x="506" y="525"/>
      <point x="541" y="453"/>
      <point x="541" y="412" type="qcurve"/>
      <point x="541" y="371"/>
      <point x="505" y="300"/>
      <point x="431" y="256"/>
      <point x="378" y="256" type="qcurve"/>
      <point x="157" y="256" type="line"/>
      <point x="157" y="570" type="line"/>
    </contour>
  </outline>
</glyph>
<glyph name="germandbls" format="2">
  <advance width="600"/>
  <unicode hex="00DF"/>
  <note>
germandbls
</note>
  <anchor x="300" y="0" name="bottom"/>
  <anchor x="300" y="800" name="top"/>
  <outline>
    <contour>
      <point x="264" y="0" type="line"/>
      <point x="304" y="0" type="line" smooth="yes"/>
      <point x="378" y="0"/>
      <point x="485" y="55"/>
      <point x="541" y="153"/>
      <point x="541" y="214" type="qcurve"/>
      <point x="541" y="281"/>
      <point x="462" y="376"/>
      <point x="398" y="396" type="qcurve"/>
      <point x="450" y="418"/>
      <point x="507" y="507"/>
      <point x="507" y="567" type="qcurve"/>
      <point x="507" y="655"/>
      <point x="403" y="759"/>
      <point x="313" y="759" type="qcurve"/>
      <point x="226" y="759"/>
      <point x="115" y="649"/>
      <point x="115" y="538" type="qcurve"/>
      <point x="115" y="0" type="line"/>
      <point x="203" y="0" type="line"/>
      <point x="203" y="552" type="line" smooth="yes"/>
      <point x="203" y="621"/>
      <point x="268" y="683"/>
      <point x="315" y="683" type="qcurve"/>
      <point x="372" y="683"/>
      <point x="419" y="621"/>
      <point x="419" y="561" type="qcurve"/>
      <point x="419" y="500"/>
      <point x="355" y="431"/>
      <point x="299" y="431" type="qcurve"/>
      <point x="299" y="351" type="line"/>
      <point x="361" y="351"/>
      <point x="453" y="283"/>
      <point x="453" y="220" type="qcurve"/>
      <point x="453" y="159"/>
      <point x="369" y="80"/>
      <point x="304" y="80" type="qcurve"/>
      <point x="264" y="80" type="line"/>
    </contour>
  </outline>
</glyph>
<glyph name="ae" format="2">
  <advance width="877"/>
  <unicode hex="00E6"/>
  <note>
ae
</note>
  <anchor x="439" y="0" name="bottom"/>
  <anchor x="439" y="526" name="top"/>
  <outline>
    <contour>
      <point x="141" y="381" type="line"/>
      <point x="145" y="421"/>
      <point x="215" y="467"/>
      <point x="262" y="467" type="qcurve"/>
      <point x="316" y="467"/>
      <point x="370" y="421"/>
      <point x="376" y="374" type="qcurve"/>
      <point x="376" y="321" type="line"/>
      <point x="288" y="321" type="line" smooth="yes"/>
      <point x="176" y="321"/>
      <point x="41" y="234"/>
      <point x="41" y="146" type="qcurve"/>
      <point x="41" y="98"/>
      <point x="93" y="30"/>
      <point x="177" y="-6"/>
      <point x="226" y="-6" type="qcurve"/>
      <point x="297" y="-6"/>
      <point x="404" y="60"/>
      <point x="454" y="137" type="qcurve"/>
      <point x="464" y="137" type="line"/>
      <point x="464" y="360" type="line" smooth="yes"/>
      <point x="464" y="448"/>
      <point x="358" y="541"/>
      <point x="266" y="541" type="qcurve"/>
      <point x="213" y="541"/>
      <point x="115" y="504"/>
      <point x="53" y="431"/>
      <point x="53" y="381" type="qcurve"/>
    </contour>
    <contour>
      <point x="377" y="143" type="line"/>
      <point x="354" y="106"/>
      <point x="276" y="63"/>
      <point x="235" y="63" type="qcurve"/>
      <point x="194" y="63"/>
      <point x="131" y="112"/>
      <point x="131" y="151" type="qcurve"/>
      <point x="131" y="202"/>
      <point x="226" y="252"/>
      <point x="305" y="252" type="qcurve"/>
      <point x="377" y="252" type="line"/>
    </contour>
    <contour>
      <point x="753" y="177" type="line"/>
      <point x="746" y="139"/>
      <point x="678" y="71"/>
      <point x="616" y="71" type="qcurve"/>
      <point x="565" y="71"/>
      <point x="497" y="125"/>
      <point x="465" y="212"/>
      <point x="467" y="261" type="qcurve"/>
      <point x="835" y="261" type="line"/>
      <point x="836" y="271"/>
      <point x="836" y="290" type="qcurve"/>
      <point x="836" y="356"/>
      <point x="786" y="471"/>
      <point x="684" y="542"/>
      <point x="610" y="542" type="qcurve"/>
      <point x="535" y="542"/>
      <point x="429" y="464"/>
      <point x="376" y="338"/>
      <point x="376" y="266" type="qcurve"/>
      <point x="376" y="193"/>
      <point x="429" y="69"/>
      <point x="538" y="-7"/>
      <point x="617" y="-7" type="qcurve"/>
      <point x="694" y="-7"/>
      <point x="813" y="75"/>
      <point x="836" y="152" type="qcurve"/>
    </contour>
    <contour>
      <point x="477" y="329" type="line"/>
      <point x="492" y="388"/>
      <point x="559" y="464"/>
      <point x="611" y="464" type="qcurve"/>
      <point x="677" y="464"/>
      <point x="744" y="390"/>
      <point x="748" y="329" type="qcurve"/>
    </contour>
  </outline>
</glyph>
<glyph name="ccedilla" format="2">
  <advance width="540"/>
  <unicode hex="00E7"/>
  <note>
ccedilla
</note>
  <anchor x="280" y="0" name="bottom"/>
  <anchor x="276" y="526" name="top"/>
  <outline>
    <contour>
      <point x="278" y="464" type="qcurve"/>
      <point x="330" y="464"/>
      <point x="402" y="399"/>
      <point x="411" y="340" type="qcurve"/>
      <point x="501" y="340" type="line"/>
      <point x="485" y="430"/>
      <point x="370" y="541"/>
      <point x="276" y="541" type="qcurve"/>
      <point x="200" y="541"/>
      <point x="93" y="460"/>
      <point x="41" y="333"/>
      <point x="41" y="263" type="qcurve"/>
      <point x="41" y="192"/>
      <point x="94" y="69"/>
      <point x="202" y="-7"/>
      <point x="280" y="-7" type="qcurve"/>
      <point x="370" y="-7"/>
      <point x="486" y="96"/>
      <point x="501" y="184" type="qcurve"/>
      <point x="411" y="184" type="line"/>
      <point x="405" y="132"/>
      <point x="334" y="70"/>
      <point x="281" y="70" type="qcurve"/>
      <point x="229" y="70"/>
      <point x="161" y="126"/>
      <point x="129" y="214"/>
      <point x="129" y="262" type="qcurve"/>
      <point x="129" y="308"/>
      <point x="160" y="401"/>
      <point x="227" y="464"/>
    </contour>
    <contour>
      <point x="166" y="-223" type="line"/>
      <point x="202" y="-242"/>
      <point x="255" y="-242" type="qcurve"/>
      <point x="323" y="-242"/>
      <point x="395" y="-185"/>
      <point x="395" y="-144" type="qcurve"/>
      <point x="395" y="-110"/>
      <point x="338" y="-53"/>
      <point x="286" y="-47" type="qcurve"/>
      <point x="309" y="6" type="line"/>
      <point x="259" y="6" type="line"/>
      <point x="218" y="-68" type="line"/>
      <point x="228" y="-109" type="line"/>
      <point x="238" y="-107"/>
      <point x="250" y="-107" type="qcurve"/>
      <point x="290" y="-107"/>
      <point x="329" y="-130"/>
      <point x="329" y="-143" type="qcurve"/>
      <point x="329" y="-159"/>
      <point x="290" y="-180"/>
      <point x="249" y="-180" type="qcurve"/>
      <point x="208" y="-180"/>
      <point x="192" y="-170" type="qcurve"/>
    </contour>
  </outline>
</glyph>
<glyph name="eth" format="2">
  <advance width="571"/>
  <unicode hex="00F0"/>
  <note>
eth
</note>
  <anchor x="286" y="0" name="bottom"/>
  <anchor x="286" y="526" name="top"/>
  <anchor x="514" y="10" name="ogonek"/>
  <anchor x="551" y="526" name="topright"/>
  <outline>
    <contour>
      <point x="286" y="-12" type="qcurve"/>
      <point x="355" y="-12"/>
      <point x="467" y="58"/>
      <point x="531" y="184"/>
      <point x="531" y="264" type="qcurve"/>
      <point x="531" y="343"/>
      <point x="467" y="471"/>
      <point x="355" y="543"/>
      <point x="286" y="543" type="qcurve"/>
      <point x="216" y="543"/>
      <point x="104" y="471"/>
      <point x="40" y="343"/>
      <point x="40" y="264" type="qcurve"/>
      <point x="40" y="183"/>
      <point x="104" y="58"/>
      <point x="216" y="-12"/>
    </contour>
    <contour>
      <point x="286" y="64" type="qcurve"/>
      <point x="238" y="64"/>
      <point x="166" y="119"/>
      <point x="128" y="210"/>
      <point x="128" y="264" type="qcurve"/>
      <point x="128" y="318"/>
      <point x="166" y="411"/>
      <point x="238" y="467"/>
      <point x="286" y="467" type="qcurve"/>
      <point x="333" y="467"/>
      <point x="405" y="411"/>
      <point x="443" y="318"/>
      <point x="443" y="264" type="qcurve"/>
      <point x="443" y="211"/>
      <point x="405" y="119"/>
      <point x="333" y="64"/>
    </contour>
    <contour>
      <point x="151" y="726" type="line"/>
      <point x="287" y="626"/>
      <point x="435" y="442"/>
      <point x="435" y="354" type="qcurve"/>
      <point x="530" y="284" type="line"/>
      <point x="530" y="402"/>
      <point x="442" y="576"/>
      <point x="305" y="700"/>
      <point x="195" y="776" type="qcurve"/>
    </contour>
    <contour>
      <point x="89" y="617" type="line"/>
      <point x="113" y="553" type="line"/>
      <point x="463" y="673" type="line"/>
      <point x="439" y="737" type="line"/>
    </contour>
  </outline>
</glyph>
<glyph name="divide" format="2">
  <advance width="634"/>
  <unicode hex="00F7"/>
  <note>
divide
</note>
  <outline>
    <contour>
      <point x="584" y="371" type="line"/>
      <point x="50" y="371" type="line"/>
      <point x="50" y="291" type="line"/>
      <point x="584" y="291" type="line"/>
    </contour>
    <contour>
      <point x="317" y="468" type="qcurve"/>
      <point x="343" y="468"/>
      <point x="380" y="505"/>
      <point x="380" y="531" type="qcurve"/>
      <point x="380" y="557"/>
      <point x="343" y="594"/>
      <point x="317" y="594" type="qcurve"/>
      <point x="291" y="594"/>
      <point x="254" y="557"/>
      <point x="254" y="531" type="qcurve"/>
      <point x="254" y="505"/>
      <point x="291" y="468"/>
    </contour>
    <contour>
      <point x="317" y="68" type="qcurve"/>
      <point x="343" y="68"/>
      <point x="380" y="105"/>
      <point x="380" y="131" type="qcurve"/>
      <point x="380" y="157"/>
      <point x="343" y="194"/>
      <point x="317" y="194" type="qcurve"/>
      <point x="291" y="194"/>
      <point x="254" y="157"/>
      <point x="254" y="131" type="qcurve"/>
      <point x="254" y="105"/>
      <point x="291" y="68"/>
    </contour>
  </outline>
</glyph>
<glyph name="oslash" format="2">
  <advance width="571"/>
  <unicode hex="00F8"/>
  <note>
oslash
</note>
  <anchor x="286" y="0" name="bottom"/>
  <anchor x="286" y="526" name="top"/>
  <anchor x="514" y="10" name="ogonek"/>
  <anchor x="551" y="526" name="topright"/>
  <outline>
    <contour>
      <point x="286" y="-12" type="qcurve"/>
      <point x="355" y="-12"/>
      <point x="467" y="58"/>
      <point x="531" y="184"/>
      <point x="531" y="264" type="qcurve"/>
      <point x="531" y="343"/>
      <point x="467" y="471"/>
      <point x="355" y="543"/>
      <point x="286" y="543" type="qcurve"/>
      <point x="216" y="543"/>
      <point x="104" y="471"/>
      <point x="40" y="343"/>
      <point x="40" y="264" type="qcurve"/>
      <point x="40" y="183"/>
      <point x="104" y="58"/>
      <point x="216" y="-12"/>
    </contour>
    <contour>
      <point x="286" y="64" type="qcurve"/>
      <point x="238" y="64"/>
      <point x="166" y="119"/>
      <point x="128" y="210"/>
      <point x="128" y="264" type="qcurve"/>
      <point x="128" y="318"/>
      <point x="166" y="411"/>
      <point x="238" y="467"/>
      <point x="286" y="467" type="qcurve"/>
      <point x="333" y="467"/>
      <point x="405" y="411"/>
      <point x="443" y="318"/>
      <point x="443" y="264" type="qcurve"/>
      <point x="443" y="211"/>
      <point x="405" y="119"/>
      <point x="333" y="64"/>
    </contour>
    <contour>
      <point x="492" y="490" type="line"/>
      <point x="439" y="528" type="line"/>
      <point x="79" y="36" type="line"/>
      <point x="132" y="0" type="line"/>
    </contour>
  </outline>
</glyph>
<glyph name="Aogonek" format="2">
  <advance width="706"/>
  <unicode hex="0104"/>
  <note>
Aogonek
</note>
  <anchor x="353" y="0" name="bottom"/>
  <anchor x="353" y="750" name="top"/>
  <anchor x="635" y="10" name="ogonek"/>
  <outline>
    <contour>
      <point x="529" y="194" type="line"/>
      <point x="529" y="274" type="line"/>
      <point x="157" y="274" type="line"/>
      <point x="157" y="194" type="line"/>
    </contour>
    <contour>
      <point x="402" y="750" type="line"/>
      <point x="304" y="750" type="line"/>
      <point x="31" y="0" type="line"/>
      <point x="123" y="0" type="line"/>
      <point x="353" y="634" type="line"/>
      <point x="583" y="0" type="line"/>
      <point x="675" y="0" type="line"/>
    </contour>
    <contour>
      <point x="723" y="-148" type="line"/>
      <point x="715" y="-153"/>
      <point x="673" y="-158"/>
      <point x="652" y="-158" type="qcurve"/>
      <point x="627" y="-158"/>
      <point x="597" y="-138"/>
      <point x="597" y="-118" type="qcurve"/>
      <point x="597" y="-75"/>
      <point x="670" y="26" type="qcurve"/>
      <point x="630" y="46" type="line"/>
      <point x="576" y="-8"/>
      <point x="520" y="-89"/>
      <point x="520" y="-124" type="qcurve"/>
      <point x="520" y="-166"/>
      <point x="582" y="-222"/>
      <point x="650" y="-222" type="qcurve"/>
      <point x="678" y="-222"/>
      <point x="732" y="-212"/>
      <point x="749" y="-203" type="qcurve"/>
    </contour>
  </outline>
</glyph>
<glyph name="aogonek" format="2">
  <advance width="529"/>
  <unicode hex="0105"/>
  <note>
aogonek
</note>
  <anchor x="265" y="0" name="bottom"/>
  <anchor x="266" y="526" name="top"/>
  <anchor x="419" y="0" name="ogonek"/>
  <outline>
    <contour>
      <point x="141" y="381" type="line"/>
      <point x="145" y="421"/>
      <point x="215" y="467"/>
      <point x="262" y="467" type="qcurve"/>
      <point x="316" y="467"/>
      <point x="370" y="421"/>
      <point x="376" y="374" type="qcurve"/>
      <point x="376" y="321" type="line"/>
      <point x="288" y="321" type="line" smooth="yes"/>
      <point x="176" y="321"/>
      <point x="41" y="234"/>
      <point x="41" y="146" type="qcurve"/>
      <point x="41" y="98"/>
      <point x="93" y="30"/>
      <point x="177" y="-6"/>
      <point x="226" y="-6" type="qcurve"/>
      <point x="319" y="-6"/>
      <point x="377" y="69" type="qcurve"/>
      <point x="377" y="0" type="line"/>
      <point x="464" y="0" type="line"/>
      <point x="464" y="360" type="line" smooth="yes"/>
      <point x="464" y="448"/>
      <point x="358" y="541"/>
      <point x="266" y="541" type="qcurve"/>
      <point x="213" y="541"/>
      <point x="115" y="504"/>
      <point x="53" y="431"/>
      <point x="53" y="381" type="qcurve"/>
    </contour>
    <contour>
      <point x="377" y="143" type="line"/>
      <point x="354" y="106"/>
      <point x="276" y="63"/>
      <point x="235" y="63" type="qcurve"/>
      <point x="194" y="63"/>
      <point x="131" y="112"/>
      <point x="131" y="151" type="qcurve"/>
      <point x="131" y="202"/>
      <point x="226" y="252"/>
      <point x="305" y="252" type="qcurve"/>
      <point x="377" y="252" type="line"/>
    </contour>
    <contour>
      <point x="507" y="-158" type="line"/>
      <point x="499" y="-163"/>
      <point x="457" y="-168"/>
      <point x="436" y="-168" type="qcurve"/>
      <point x="411" y="-168"/>
      <point x="381" y="-148"/>
      <point x="381" y="-128" type="qcurve"/>
      <point x="381" y="-85"/>
      <point x="454" y="16" type="qcurve"/>
      <point x="414" y="36" type="line"/>
      <point x="360" y="-18"/>
      <point x="304" y="-99"/>
      <point x="304" y="-134" type="qcurve"/>
      <point x="304" y="-176"/>
      <point x="366" y="-232"/>
      <point x="434" y="-232" type="qcurve"/>
      <point x="462" y="-232"/>
      <point x="516" y="-222"/>
      <point x="533" y="-213" type="qcurve"/>
    </contour>
  </outline>
</glyph>
<glyph name="Eogonek" format="2">
  <advance width="588"/>
  <unicode hex="0118"/>
  <note>
Eogonek
</note>
  <anchor x="294" y="0" name="bottom"/>
  <anchor x="310" y="750" name="top"/>
  <anchor x="529" y="10" name="ogonek"/>
  <outline>
    <contour>
      <point x="69" y="0" type="line"/>
      <point x="555" y="0" type="line"/>
      <point x="555" y="80" type="line"/>
      <point x="157" y="80" type="line"/>
      <point x="157" y="332" type="line"/>
      <point x="483" y="332" type="line"/>
      <point x="483" y="412" type="line"/>
      <point x="157" y="412" type="line"/>
      <point x="157" y="670" type="line"/>
      <point x="555" y="670" type="line"/>
      <point x="555" y="750" type="line"/>
      <point x="69" y="750" type="line"/>
    </contour>
    <contour>
      <point x="617" y="-148" type="line"/>
      <point x="609" y="-153"/>
      <point x="567" y="-158"/>
      <point x="546" y="-158" type="qcurve"/>
      <point x="521" y="-158"/>
      <point x="491" y="-138"/>
      <point x="491" y="-118" type="qcurve"/>
      <point x="491" y="-75"/>
      <point x="564" y="26" type="qcurve"/>
      <point x="524" y="46" type="line"/>
      <point x="470" y="-8"/>
      <point x="414" y="-89"/>
      <point x="414" y="-124" type="qcurve"/>
      <point x="414" y="-166"/>
      <point x="476" y="-222"/>
      <point x="544" y="-222" type="qcurve"/>
      <point x="572" y="-222"/>
      <point x="626" y="-212"/>
      <point x="643" y="-203" type="qcurve"/>
    </contour>
  </outline>
</glyph>
<glyph name="eogonek" format="2">
  <advance width="542"/>
  <unicode hex="0119"/>
  <note>
eogonek
</note>
  <anchor x="271" y="0" name="bottom"/>
  <anchor x="277" y="526" name="top"/>
  <anchor x="328" y="0" name="ogonek"/>
  <outline>
    <contour>
      <point x="418" y="177" type="line"/>
      <point x="411" y="139"/>
      <point x="343" y="71"/>
      <point x="281" y="71" type="qcurve"/>
      <point x="230" y="71"/>
      <point x="162" y="125"/>
      <point x="130" y="212"/>
      <point x="132" y="261" type="qcurve"/>
      <point x="500" y="261" type="line"/>
      <point x="501" y="271"/>
      <point x="501" y="290" type="qcurve"/>
      <point x="501" y="356"/>
      <point x="451" y="471"/>
      <point x="349" y="542"/>
      <point x="275" y="542" type="qcurve"/>
      <point x="200" y="542"/>
      <point x="94" y="464"/>
      <point x="41" y="338"/>
      <point x="41" y="266" type="qcurve"/>
      <point x="41" y="193"/>
      <point x="94" y="69"/>
      <point x="203" y="-7"/>
      <point x="282" y="-7" type="qcurve"/>
      <point x="359" y="-7"/>
      <point x="478" y="75"/>
      <point x="501" y="152" type="qcurve"/>
    </contour>
    <contour>
      <point x="142" y="329" type="line"/>
      <point x="157" y="388"/>
      <point x="224" y="464"/>
      <point x="276" y="464" type="qcurve"/>
      <point x="342" y="464"/>
      <point x="409" y="390"/>
      <point x="413" y="329" type="qcurve"/>
    </contour>
    <contour>
      <point x="416" y="-158" type="line"/>
      <point x="408" y="-163"/>
      <point x="366" y="-168"/>
      <point x="345" y="-168" type="qcurve"/>
      <point x="320" y="-168"/>
      <point x="290" y="-148"/>
      <point x="290" y="-128" type="qcurve"/>
      <point x="290" y="-85"/>
      <point x="363" y="16" type="qcurve"/>
      <point x="323" y="36" type="line"/>
      <point x="269" y="-18"/>
      <point x="213" y="-99"/>
      <point x="213" y="-134" type="qcurve"/>
      <point x="213" y="-176"/>
      <point x="275" y="-232"/>
      <point x="343" y="-232" type="qcurve"/>
      <point x="371" y="-232"/>
      <point x="425" y="-222"/>
      <point x="442" y="-213" type="qcurve"/>
    </contour>
  </outline>
</glyph>
<glyph name="Hbar" format="2">
  <advance width="682"/>
  <unicode hex="0126"/>
  <outline>
    <component base="H"/>
    <contour>
      <point x="0" y="598" type="line"/>
      <point x="0" y="526" type="line"/>
      <point x="682" y="526" type="line"/>
      <point x="682" y="598" type="line"/>
    </contour>
  </outline>
</glyph>
<glyph name="hbar" format="2">
  <advance width="587"/>
  <unicode hex="0127"/>
  <note>
hbar
</note>
  <anchor x="294" y="0" name="bottom"/>
  <anchor x="294" y="800" name="top"/>
  <outline>
    <contour>
      <point x="65" y="0" type="line"/>
      <point x="153" y="0" type="line"/>
      <point x="153" y="800" type="line"/>
      <point x="65" y="800" type="line"/>
    </contour>
    <contour>
      <point x="153" y="361" type="line"/>
      <point x="181" y="415"/>
      <point x="261" y="473"/>
      <point x="309" y="473" type="qcurve"/>
      <point x="386" y="473"/>
      <point x="433" y="386"/>
      <point x="433" y="316" type="qcurve"/>
      <point x="433" y="0" type="line"/>
      <point x="522" y="0" type="line"/>
      <point x="522" y="344" type="line" smooth="yes"/>
      <point x="522" y="439"/>
      <point x="425" y="544"/>
      <point x="325" y="544" type="qcurve"/>
      <point x="250" y="544"/>
      <point x="149" y="468"/>
      <point x="113" y="388" type="qcurve"/>
    </contour>
    <contour>
      <point x="0" y="702" type="line"/>
      <point x="0" y="630" type="line"/>
      <point x="342" y="630" type="line"/>
      <point x="342" y="702" type="line"/>
    </contour>
  </outline>
</glyph>
<glyph name="Iogonek" format="2">
  <advance width="226"/>
  <unicode hex="012E"/>
  <note>
Iogonek
</note>
  <anchor x="113" y="0" name="bottom"/>
  <anchor x="113" y="750" name="top"/>
  <anchor x="113" y="0" name="ogonek"/>
  <outline>
    <contour>
      <point x="69" y="0" type="line"/>
      <point x="157" y="0" type="line"/>
      <point x="157" y="750" type="line"/>
      <point x="69" y="750" type="line"/>
    </contour>
    <contour>
      <point x="201" y="-158" type="line"/>
      <point x="193" y="-163"/>
      <point x="151" y="-168"/>
      <point x="130" y="-168" type="qcurve"/>
      <point x="105" y="-168"/>
      <point x="75" y="-148"/>
      <point x="75" y="-128" type="qcurve"/>
      <point x="75" y="-85"/>
      <point x="148" y="16" type="qcurve"/>
      <point x="108" y="36" type="line"/>
      <point x="54" y="-18"/>
      <point x="-2" y="-99"/>
      <point x="-2" y="-134" type="qcurve"/>
      <point x="-2" y="-176"/>
      <point x="60" y="-232"/>
      <point x="128" y="-232" type="qcurve"/>
      <point x="156" y="-232"/>
      <point x="210" y="-222"/>
      <point x="227" y="-213" type="qcurve"/>
    </contour>
  </outline>
</glyph>
<glyph name="iogonek" format="2">
  <advance width="218"/>
  <unicode hex="012F"/>
  <note>
iogonek
</note>
  <anchor x="109" y="0" name="bottom"/>
  <anchor x="109" y="718" name="top"/>
  <anchor x="109" y="0" name="ogonek"/>
  <outline>
    <contour>
      <point x="65" y="0" type="line"/>
      <point x="153" y="0" type="line"/>
      <point x="153" y="526" type="line"/>
      <point x="65" y="526" type="line"/>
    </contour>
    <contour>
      <point x="109" y="617" type="qcurve"/>
      <point x="135" y="617"/>
      <point x="172" y="654"/>
      <point x="172" y="680" type="qcurve"/>
      <point x="172" y="706"/>
      <point x="135" y="743"/>
      <point x="109" y="743" type="qcurve"/>
      <point x="83" y="743"/>
      <point x="46" y="706"/>
      <point x="46" y="680" type="qcurve"/>
      <point x="46" y="654"/>
      <point x="83" y="617"/>
    </contour>
    <contour>
      <point x="197" y="-158" type="line"/>
      <point x="189" y="-163"/>
      <point x="147" y="-168"/>
      <point x="126" y="-168" type="qcurve"/>
      <point x="101" y="-168"/>
      <point x="71" y="-148"/>
      <point x="71" y="-128" type="qcurve"/>
      <point x="71" y="-85"/>
      <point x="144" y="16" type="qcurve"/>
      <point x="104" y="36" type="line"/>
      <point x="50" y="-18"/>
      <point x="-6" y="-99"/>
      <point x="-6" y="-134" type="qcurve"/>
      <point x="-6" y="-176"/>
      <point x="56" y="-232"/>
      <point x="124" y="-232" type="qcurve"/>
      <point x="152" y="-232"/>
      <point x="206" y="-222"/>
      <point x="223" y="-213" type="qcurve"/>
    </contour>
  </outline>
</glyph>
<glyph name="dotlessi" format="2">
  <advance width="218"/>
  <unicode hex="0131"/>
  <note>
dotlessi
</note>
  <anchor x="109" y="0" name="bottom"/>
  <anchor x="109" y="526" name="top"/>
  <anchor x="109" y="0" name="ogonek"/>
  <outline>
    <contour>
      <point x="65" y="0" type="line"/>
      <point x="153" y="0" type="line"/>
      <point x="153" y="526" type="line"/>
      <point x="65" y="526" type="line"/>
    </contour>
  </outline>
</glyph>
<glyph name="Lslash" format="2">
  <advance width="587"/>
  <unicode hex="0141"/>
  <note>
Lslash
</note>
  <anchor x="294" y="0" name="bottom"/>
  <anchor x="113" y="750" name="top"/>
  <anchor x="277" y="750" name="topright"/>
  <outline>
    <contour>
      <point x="69" y="0" type="line"/>
      <point x="551" y="0" type="line"/>
      <point x="551" y="80" type="line"/>
      <point x="157" y="80" type="line"/>
      <point x="157" y="750" type="line"/>
      <point x="69" y="750" type="line"/>
    </contour>
    <contour>
      <point x="318" y="503" type="line"/>
      <point x="-5" y="260" type="line"/>
      <point x="39" y="199" type="line"/>
      <point x="362" y="443" type="line"/>
    </contour>
  </outline>
</glyph>
<glyph name="lslash" format="2">
  <advance width="218"/>
  <unicode hex="0142"/>
  <note>
lslash
</note>
  <anchor x="109" y="0" name="bottom"/>
  <anchor x="109" y="800" name="top"/>
  <anchor x="273" y="800" name="topright"/>
  <outline>
    <contour>
      <point x="65" y="0" type="line"/>
      <point x="153" y="0" type="line"/>
      <point x="153" y="800" type="line"/>
      <point x="65" y="800" type="line"/>
    </contour>
    <contour>
      <point x="214" y="527" type="line"/>
      <point x="-40" y="334" type="line"/>
      <point x="4" y="273" type="line"/>
      <point x="258" y="467" type="line"/>
    </contour>
  </outline>
</glyph>
<glyph name="OE" format="2">
  <advance width="1152"/>
  <unicode hex="0152"/>
  <note>
OE
</note>
  <anchor x="576" y="0" name="bottom"/>
  <anchor x="576" y="750" name="top"/>
  <outline>
    <contour>
      <point x="385" y="-13" type="qcurve"/>
      <point x="492" y="-13"/>
      <point x="644" y="97"/>
      <point x="721" y="274"/>
      <point x="721" y="374" type="qcurve"/>
      <point x="721" y="475"/>
      <point x="644" y="655"/>
      <point x="492" y="767"/>
      <point x="385" y="767" type="qcurve"/>
      <point x="278" y="767"/>
      <point x="126" y="655"/>
      <point x="49" y="476"/>
      <point x="49" y="375" type="qcurve"/>
      <point x="49" y="274"/>
      <point x="126" y="96"/>
      <point x="277" y="-13"/>
    </contour>
    <contour>
      <point x="141" y="374" type="qcurve"/>
      <point x="141" y="452"/>
      <point x="193" y="596"/>
      <point x="303" y="689"/>
      <point x="385" y="689" type="qcurve"/>
      <point x="467" y="689"/>
      <point x="577" y="596"/>
      <point x="629" y="452"/>
      <point x="629" y="374" type="qcurve"/>
      <point x="629" y="297"/>
      <point x="577" y="156"/>
      <point x="467" y="65"/>
      <point x="385" y="65" type="qcurve"/>
      <point x="303" y="65"/>
      <point x="193" y="156"/>
      <point x="141" y="297"/>
    </contour>
    <contour>
      <point x="633" y="0" type="line"/>
      <point x="1119" y="0" type="line"/>
      <point x="1119" y="80" type="line"/>
      <point x="717" y="80" type="line"/>
      <point x="721" y="332" type="line"/>
      <point x="1047" y="332" type="line"/>
      <point x="1047" y="412" type="line"/>
      <point x="721" y="412" type="line"/>
      <point x="721" y="670" type="line"/>
      <point x="1119" y="670" type="line"/>
      <point x="1119" y="750" type="line"/>
      <point x="633" y="750" type="line"/>
    </contour>
  </outline>
</glyph>
<glyph name="oe" format="2">
  <advance width="944"/>
  <unicode hex="0153"/>
  <note>
oe
</note>
  <anchor x="472" y="0" name="bottom"/>
  <anchor x="472" y="526" name="top"/>
  <outline>
    <contour>
      <point x="286" y="-12" type="qcurve"/>
      <point x="355" y="-12"/>
      <point x="467" y="58"/>
      <point x="531" y="184"/>
      <point x="531" y="264" type="qcurve"/>
      <point x="531" y="343"/>
      <point x="467" y="471"/>
      <point x="355" y="543"/>
      <point x="286" y="543" type="qcurve"/>
      <point x="216" y="543"/>
      <point x="104" y="471"/>
      <point x="40" y="343"/>
      <point x="40" y="264" type="qcurve"/>
      <point x="40" y="183"/>
      <point x="104" y="58"/>
      <point x="216" y="-12"/>
    </contour>
    <contour>
      <point x="286" y="64" type="qcurve"/>
      <point x="238" y="64"/>
      <point x="166" y="119"/>
      <point x="128" y="210"/>
      <point x="128" y="264" type="qcurve"/>
      <point x="128" y="318"/>
      <point x="166" y="411"/>
      <point x="238" y="467"/>
      <point x="286" y="467" type="qcurve"/>
      <point x="333" y="467"/>
      <point x="405" y="411"/>
      <point x="443" y="318"/>
      <point x="443" y="264" type="qcurve"/>
      <point x="443" y="211"/>
      <point x="405" y="119"/>
      <point x="333" y="64"/>
    </contour>
    <contour>
      <point x="820" y="177" type="line"/>
      <point x="813" y="139"/>
      <point x="745" y="71"/>
      <point x="683" y="71" type="qcurve"/>
      <point x="632" y="71"/>
      <point x="564" y="125"/>
      <point x="532" y="212"/>
      <point x="534" y="261" type="qcurve"/>
      <point x="902" y="261" type="line"/>
      <point x="903" y="271"/>
      <point x="903" y="290" type="qcurve"/>
      <point x="903" y="356"/>
      <point x="853" y="471"/>
      <point x="751" y="542"/>
      <point x="677" y="542" type="qcurve"/>
      <point x="602" y="542"/>
      <point x="496" y="464"/>
      <point x="443" y="338"/>
      <point x="443" y="266" type="qcurve"/>
      <point x="443" y="193"/>
      <point x="496" y="69"/>
      <point x="605" y="-7"/>
      <point x="684" y="-7" type="qcurve"/>
      <point x="761" y="-7"/>
      <point x="880" y="75"/>
      <point x="903" y="152" type="qcurve"/>
    </contour>
    <contour>
      <point x="544" y="329" type="line"/>
      <point x="559" y="388"/>
      <point x="626" y="464"/>
      <point x="678" y="464" type="qcurve"/>
      <point x="744" y="464"/>
      <point x="811" y="390"/>
      <point x="815" y="329" type="qcurve"/>
    </contour>
  </outline>
</glyph>
<glyph name="Scedilla" format="2">
  <advance width="675"/>
  <unicode hex="015E"/>
  <note>
Scedilla
</note>
  <anchor x="338" y="0" name="bottom"/>
  <anchor x="338" y="750" name="top"/>
  <outline>
    <contour>
      <point x="76" y="565" type="qcurve"/>
      <point x="76" y="505"/>
      <point x="145" y="423"/>
      <point x="244" y="372"/>
      <point x="324" y="342" type="qcurve"/>
      <point x="391" y="316"/>
      <point x="468" y="279"/>
      <point x="520" y="224"/>
      <point x="520" y="186" type="qcurve"/>
      <point x="520" y="126"/>
      <point x="425" y="66"/>
      <point x="345" y="66" type="qcurve"/>
      <point x="255" y="66"/>
      <point x="152" y="145"/>
      <point x="152" y="217" type="qcurve"/>
      <point x="54" y="217" type="line"/>
      <point x="53" y="148"/>
      <point x="126" y="43"/>
      <point x="258" y="-14"/>
      <point x="341" y="-14" type="qcurve"/>
      <point x="420" y="-14"/>
      <point x="546" y="36"/>
      <point x="618" y="132"/>
      <point x="618" y="196" type="qcurve"/>
      <point x="618" y="256"/>
      <point x="548" y="338"/>
      <point x="448" y="388"/>
      <point x="366" y="418" type="qcurve"/>
      <point x="299" y="443"/>
      <point x="222" y="479"/>
      <point x="171" y="531"/>
      <point x="171" y="567" type="qcurve"/>
      <point x="171" y="626"/>
      <point x="262" y="687"/>
      <point x="340" y="687" type="qcurve"/>
      <point x="425" y="687"/>
      <point x="517" y="611"/>
      <point x="517" y="541" type="qcurve"/>
      <point x="615" y="541" type="line"/>
      <point x="611" y="647"/>
      <point x="467" y="765"/>
      <point x="341" y="765" type="qcurve"/>
      <point x="268" y="765"/>
      <point x="147" y="715"/>
      <point x="76" y="624"/>
    </contour>
    <contour>
      <point x="224" y="-223" type="line"/>
      <point x="260" y="-242"/>
      <point x="313" y="-242" type="qcurve"/>
      <point x="381" y="-242"/>
      <point x="453" y="-185"/>
      <point x="453" y="-144" type="qcurve"/>
      <point x="453" y="-110"/>
      <point x="396" y="-53"/>
      <point x="344" y="-47" type="qcurve"/>
      <point x="367" y="6" type="line"/>
      <point x="317" y="6" type="line"/>
      <point x="276" y="-68" type="line"/>
      <point x="286" y="-109" type="line"/>
      <point x="296" y="-107"/>
      <point x="308" y="-107" type="qcurve"/>
      <point x="348" y="-107"/>
      <point x="387" y="-130"/>
      <point x="387" y="-143" type="qcurve"/>
      <point x="387" y="-159"/>
      <point x="348" y="-180"/>
      <point x="307" y="-180" type="qcurve"/>
      <point x="266" y="-180"/>
      <point x="250" y="-170" type="qcurve"/>
    </contour>
  </outline>
</glyph>
<glyph name="scedilla" format="2">
  <advance width="487"/>
  <unicode hex="015F"/>
  <note>
scedilla
</note>
  <anchor x="244" y="0" name="bottom"/>
  <anchor x="244" y="526" name="top"/>
  <outline>
    <contour>
      <point x="446" y="146" type="qcurve"/>
      <point x="446" y="191"/>
      <point x="394" y="250"/>
      <point x="320" y="284"/>
      <point x="262" y="303" type="qcurve"/>
      <point x="198" y="324"/>
      <point x="137" y="360"/>
      <point x="137" y="390" type="qcurve"/>
      <point x="137" y="428"/>
      <point x="195" y="468"/>
      <point x="238" y="468" type="qcurve"/>
      <point x="284" y="468"/>
      <point x="352" y="421"/>
      <point x="353" y="378" type="qcurve"/>
      <point x="443" y="378" type="line"/>
      <point x="442" y="430"/>
      <point x="382" y="505"/>
      <point x="289" y="543"/>
      <point x="239" y="543" type="qcurve"/>
      <point x="191" y="543"/>
      <point x="103" y="508"/>
      <point x="47" y="438"/>
      <point x="47" y="388" type="qcurve"/>
      <point x="47" y="343"/>
      <point x="98" y="285"/>
      <point x="171" y="252"/>
      <point x="228" y="234" type="qcurve"/>
      <point x="294" y="212"/>
      <point x="355" y="177"/>
      <point x="355" y="146" type="qcurve"/>
      <point x="355" y="106"/>
      <point x="295" y="66"/>
      <point x="254" y="66" type="qcurve"/>
      <point x="204" y="66"/>
      <point x="131" y="114"/>
      <point x="131" y="160" type="qcurve"/>
      <point x="41" y="160" type="line"/>
      <point x="43" y="78"/>
      <point x="161" y="-10"/>
      <point x="245" y="-10" type="qcurve"/>
      <point x="294" y="-10"/>
      <point x="386" y="23"/>
      <point x="446" y="94"/>
    </contour>
    <contour>
      <point x="130" y="-223" type="line"/>
      <point x="166" y="-242"/>
      <point x="219" y="-242" type="qcurve"/>
      <point x="287" y="-242"/>
      <point x="359" y="-185"/>
      <point x="359" y="-144" type="qcurve"/>
      <point x="359" y="-110"/>
      <point x="302" y="-53"/>
      <point x="250" y="-47" type="qcurve"/>
      <point x="273" y="6" type="line"/>
      <point x="223" y="6" type="line"/>
      <point x="182" y="-68" type="line"/>
      <point x="192" y="-109" type="line"/>
      <point x="202" y="-107"/>
      <point x="214" y="-107" type="qcurve"/>
      <point x="254" y="-107"/>
      <point x="293" y="-130"/>
      <point x="293" y="-143" type="qcurve"/>
      <point x="293" y="-159"/>
      <point x="254" y="-180"/>
      <point x="213" y="-180" type="qcurve"/>
      <point x="172" y="-180"/>
      <point x="156" y="-170" type="qcurve"/>
    </contour>
  </outline>
</glyph>
<glyph name="Uogonek" format="2">
  <advance width="700"/>
  <unicode hex="0172"/>
  <note>
Uogonek
</note>
  <anchor x="350" y="0" name="bottom"/>
  <anchor x="350" y="750" name="top"/>
  <anchor x="350" y="0" name="ogonek"/>
  <anchor x="680" y="750" name="topright"/>
  <outline>
    <contour>
      <point x="543" y="251" type="line"/>
      <point x="543" y="179"/>
      <point x="459" y="62"/>
      <point x="350" y="62" type="qcurve"/>
      <point x="275" y="62"/>
      <point x="189" y="123"/>
      <point x="157" y="207"/>
      <point x="157" y="249" type="qcurve"/>
      <point x="157" y="750" type="line"/>
      <point x="69" y="750" type="line"/>
      <point x="69" y="220" type="line" smooth="yes"/>
      <point x="69" y="146"/>
      <point x="142" y="40"/>
      <point x="269" y="-15"/>
      <point x="350" y="-15" type="qcurve"/>
      <point x="427" y="-15"/>
      <point x="556" y="41"/>
      <point x="631" y="148"/>
      <point x="631" y="220" type="qcurve"/>
      <point x="631" y="750" type="line"/>
      <point x="543" y="750" type="line"/>
    </contour>
    <contour>
      <point x="438" y="-158" type="line"/>
      <point x="430" y="-163"/>
      <point x="388" y="-168"/>
      <point x="367" y="-168" type="qcurve"/>
      <point x="342" y="-168"/>
      <point x="312" y="-148"/>
      <point x="312" y="-128" type="qcurve"/>
      <point x="312" y="-85"/>
      <point x="385" y="16" type="qcurve"/>
      <point x="345" y="36" type="line"/>
      <point x="291" y="-18"/>
      <point x="235" y="-99"/>
      <point x="235" y="-134" type="qcurve"/>
      <point x="235" y="-176"/>
      <point x="297" y="-232"/>
      <point x="365" y="-232" type="qcurve"/>
      <point x="393" y="-232"/>
      <point x="447" y="-222"/>
      <point x="464" y="-213" type="qcurve"/>
    </contour>
  </outline>
</glyph>
<glyph name="uogonek" format="2">
  <advance width="580"/>
  <unicode hex="0173"/>
  <note>
uogonek
</note>
  <anchor x="290" y="0" name="bottom"/>
  <anchor x="290" y="526" name="top"/>
  <anchor x="471" y="0" name="ogonek"/>
  <anchor x="560" y="526" name="topright"/>
  <outline>
    <contour>
      <point x="65" y="187" type="line"/>
      <point x="65" y="-11"/>
      <point x="261" y="-11" type="qcurve"/>
      <point x="372" y="-11"/>
      <point x="427" y="73" type="qcurve"/>
      <point x="427" y="0" type="line"/>
      <point x="515" y="0" type="line"/>
      <point x="515" y="526" type="line"/>
      <point x="427" y="526" type="line"/>
      <point x="427" y="172" type="line"/>
      <point x="377" y="60"/>
      <point x="272" y="60" type="qcurve"/>
      <point x="216" y="60"/>
      <point x="164" y="111"/>
      <point x="153" y="172"/>
      <point x="153" y="215" type="qcurve"/>
      <point x="153" y="526" type="line"/>
      <point x="65" y="526" type="line"/>
    </contour>
    <contour>
      <point x="559" y="-158" type="line"/>
      <point x="551" y="-163"/>
      <point x="509" y="-168"/>
      <point x="488" y="-168" type="qcurve"/>
      <point x="463" y="-168"/>
      <point x="433" y="-148"/>
      <point x="433" y="-128" type="qcurve"/>
      <point x="433" y="-85"/>
      <point x="506" y="16" type="qcurve"/>
      <point x="466" y="36" type="line"/>
      <point x="412" y="-18"/>
      <point x="356" y="-99"/>
      <point x="356" y="-134" type="qcurve"/>
      <point x="356" y="-176"/>
      <point x="418" y="-232"/>
      <point x="486" y="-232" type="qcurve"/>
      <point x="514" y="-232"/>
      <point x="568" y="-222"/>
      <point x="585" y="-213" type="qcurve"/>
    </contour>
  </outline>
</glyph>
<glyph name="uni0237" format="2">
  <advance width="218"/>
  <unicode hex="0237"/>
  <note>
uni0237
</note>
  <anchor x="109" y="-220" name="bottom"/>
  <anchor x="109" y="526" name="top"/>
  <anchor x="109" y="0" name="ogonek"/>
  <outline>
    <contour>
      <point x="65" y="0" type="line"/>
      <point x="153" y="0" type="line"/>
      <point x="153" y="526" type="line"/>
      <point x="65" y="526" type="line"/>
    </contour>
    <contour>
      <point x="-76" y="-231" type="line"/>
      <point x="38" y="-229"/>
      <point x="153" y="-107"/>
      <point x="153" y="0" type="qcurve"/>
      <point x="65" y="0" type="line"/>
      <point x="65" y="-80"/>
      <point x="0" y="-152"/>
      <point x="-76" y="-151" type="qcurve"/>
    </contour>
  </outline>
</glyph>
<glyph name="gravecomb" format="2">
  <advance width="0"/>
  <unicode hex="0300"/>
  <note>
gravecomb
</note>
  <anchor x="150" y="526" name="_top"/>
  <outline>
    <contour>
      <point x="-5" y="760" type="line"/>
      <point x="134" y="602" type="line"/>
      <point x="216" y="602" type="line"/>
      <point x="107" y="760" type="line"/>
    </contour>
  </outline>
</glyph>
<glyph name="uni0302" format="2">
  <advance width="0"/>
  <unicode hex="0302"/>
  <anchor x="150" y="526" name="_top"/>
  <anchor x="150" y="741" name="top"/>
  <outline>
    <contour>
      <point x="107" y="760" type="line"/>
      <point x="239" y="592" type="line"/>
      <point x="316" y="592" type="line"/>
      <point x="193" y="760" type="line"/>
    </contour>
    <contour>
      <point x="193" y="760" type="line"/>
      <point x="107" y="760" type="line"/>
      <point x="-16" y="592" type="line"/>
      <point x="61" y="592" type="line"/>
    </contour>
  </outline>
</glyph>
<glyph name="tildecomb" format="2">
  <advance width="0"/>
  <unicode hex="0303"/>
  <note>
tildecomb
</note>
  <anchor x="150" y="526" name="_top"/>
  <outline>
    <contour>
      <point x="10" y="613" type="line"/>
      <point x="32" y="639"/>
      <point x="69" y="663"/>
      <point x="86" y="663" type="qcurve"/>
      <point x="97" y="663"/>
      <point x="116" y="650"/>
      <point x="133" y="635" type="qcurve"/>
      <point x="155" y="615"/>
      <point x="191" y="593"/>
      <point x="214" y="593" type="qcurve"/>
      <point x="245" y="593"/>
      <point x="303" y="643"/>
      <point x="326" y="677" type="qcurve"/>
      <point x="290" y="717" type="line"/>
      <point x="268" y="691"/>
      <point x="231" y="667"/>
      <point x="214" y="667" type="qcurve"/>
      <point x="203" y="667"/>
      <point x="184" y="680"/>
      <point x="167" y="695" type="qcurve"/>
      <point x="145" y="715"/>
      <point x="109" y="737"/>
      <point x="86" y="737" type="qcurve"/>
      <point x="55" y="737"/>
      <point x="-5" y="690"/>
      <point x="-26" y="658" type="qcurve"/>
    </contour>
  </outline>
</glyph>
<glyph name="uni0304" format="2">
  <advance width="0"/>
  <unicode hex="0304"/>
  <note>
uni0304
</note>
  <anchor x="150" y="526" name="_top"/>
  <outline>
    <contour>
      <point x="-21" y="683" type="line"/>
      <point x="-21" y="611" type="line"/>
      <point x="319" y="611" type="line"/>
      <point x="319" y="683" type="line"/>
    </contour>
  </outline>
</glyph>
<glyph name="uni0306" format="2">
  <advance width="0"/>
  <unicode hex="0306"/>
  <note>
uni0306
</note>
  <anchor x="150" y="526" name="_top"/>
  <outline>
    <contour>
      <point x="227" y="711" type="line"/>
      <point x="227" y="682"/>
      <point x="182" y="642"/>
      <point x="150" y="642" type="qcurve"/>
      <point x="118" y="642"/>
      <point x="74" y="682"/>
      <point x="74" y="711" type="qcurve"/>
      <point x="-3" y="711" type="line"/>
      <point x="-3" y="673"/>
      <point x="38" y="610"/>
      <point x="108" y="573"/>
      <point x="150" y="573" type="qcurve"/>
      <point x="192" y="573"/>
      <point x="262" y="610"/>
      <point x="303" y="673"/>
      <point x="303" y="711" type="qcurve"/>
    </contour>
  </outline>
</glyph>
<glyph name="uni0307" format="2">
  <advance width="0"/>
  <unicode hex="0307"/>
  <note>
uni0307
</note>
  <anchor x="120" y="526" name="_top"/>
  <outline>
    <contour>
      <point x="120" y="617" type="qcurve"/>
      <point x="146" y="617"/>
      <point x="183" y="654"/>
      <point x="183" y="680" type="qcurve"/>
      <point x="183" y="706"/>
      <point x="146" y="743"/>
      <point x="120" y="743" type="qcurve"/>
      <point x="94" y="743"/>
      <point x="57" y="706"/>
      <point x="57" y="680" type="qcurve"/>
      <point x="57" y="654"/>
      <point x="94" y="617"/>
    </contour>
  </outline>
</glyph>
<glyph name="uni0308" format="2">
  <advance width="0"/>
  <unicode hex="0308"/>
  <note>
uni0308
</note>
  <anchor x="150" y="526" name="_top"/>
  <outline>
    <contour>
      <point x="245" y="597" type="qcurve"/>
      <point x="270" y="597"/>
      <point x="304" y="631"/>
      <point x="304" y="656" type="qcurve"/>
      <point x="304" y="681"/>
      <point x="270" y="715"/>
      <point x="245" y="715" type="qcurve"/>
      <point x="220" y="715"/>
      <point x="186" y="681"/>
      <point x="186" y="656" type="qcurve"/>
      <point x="186" y="631"/>
      <point x="220" y="597"/>
    </contour>
    <contour>
      <point x="55" y="597" type="qcurve"/>
      <point x="80" y="597"/>
      <point x="114" y="631"/>
      <point x="114" y="656" type="qcurve"/>
      <point x="114" y="681"/>
      <point x="80" y="715"/>
      <point x="55" y="715" type="qcurve"/>
      <point x="30" y="715"/>
      <point x="-4" y="681"/>
      <point x="-4" y="656" type="qcurve"/>
      <point x="-4" y="631"/>
      <point x="30" y="597"/>
    </contour>
  </outline>
</glyph>
<glyph name="uni030A" format="2">
  <advance width="0"/>
  <unicode hex="030A"/>
  <note>
uni030A
</note>
  <anchor x="150" y="526" name="_top"/>
  <outline>
    <contour>
      <point x="150" y="583" type="qcurve"/>
      <point x="192" y="583"/>
      <point x="250" y="641"/>
      <point x="250" y="683" type="qcurve"/>
      <point x="250" y="725"/>
      <point x="192" y="783"/>
      <point x="150" y="783" type="qcurve"/>
      <point x="108" y="783"/>
      <point x="50" y="725"/>
      <point x="50" y="683" type="qcurve"/>
      <point x="50" y="641"/>
      <point x="108" y="583"/>
    </contour>
    <contour>
      <point x="150" y="633" type="qcurve"/>
      <point x="129" y="633"/>
      <point x="100" y="662"/>
      <point x="100" y="683" type="qcurve"/>
      <point x="100" y="704"/>
      <point x="129" y="733"/>
      <point x="150" y="733" type="qcurve"/>
      <point x="171" y="733"/>
      <point x="200" y="704"/>
      <point x="200" y="683" type="qcurve"/>
      <point x="200" y="662"/>
      <point x="171" y="633"/>
    </contour>
  </outline>
</glyph>
<glyph name="uni030B" format="2">
  <advance width="0"/>
  <unicode hex="030B"/>
  <note>
uni030B
</note>
  <anchor x="150" y="526" name="_top"/>
  <outline>
    <contour>
      <point x="245" y="760" type="line"/>
      <point x="133" y="760" type="line"/>
      <point x="24" y="602" type="line"/>
      <point x="106" y="602" type="line"/>
    </contour>
    <contour>
      <point x="405" y="760" type="line"/>
      <point x="293" y="760" type="line"/>
      <point x="184" y="602" type="line"/>
      <point x="266" y="602" type="line"/>
    </contour>
  </outline>
</glyph>
<glyph name="uni0326" format="2">
  <advance width="0"/>
  <unicode hex="0326"/>
  <anchor x="116" y="0" name="_bottom"/>
  <outline>
    <contour>
      <point x="103" y="-220" type="line"/>
      <point x="167" y="-53" type="line"/>
      <point x="81" y="-53" type="line"/>
      <point x="41" y="-220" type="line"/>
    </contour>
  </outline>
</glyph>
<glyph name="uni0327" format="2">
  <advance width="0"/>
  <unicode hex="0327"/>
  <note>
uni0327
</note>
  <anchor x="150" y="0" name="_bottom"/>
  <outline>
    <contour>
      <point x="36" y="-223" type="line"/>
      <point x="72" y="-242"/>
      <point x="125" y="-242" type="qcurve"/>
      <point x="193" y="-242"/>
      <point x="265" y="-185"/>
      <point x="265" y="-144" type="qcurve"/>
      <point x="265" y="-110"/>
      <point x="208" y="-53"/>
      <point x="156" y="-47" type="qcurve"/>
      <point x="179" y="6" type="line"/>
      <point x="129" y="6" type="line"/>
      <point x="88" y="-68" type="line"/>
      <point x="98" y="-109" type="line"/>
      <point x="108" y="-107"/>
      <point x="120" y="-107" type="qcurve"/>
      <point x="160" y="-107"/>
      <point x="199" y="-130"/>
      <point x="199" y="-143" type="qcurve"/>
      <point x="199" y="-159"/>
      <point x="160" y="-180"/>
      <point x="119" y="-180" type="qcurve"/>
      <point x="78" y="-180"/>
      <point x="62" y="-170" type="qcurve"/>
    </contour>
  </outline>
</glyph>
<glyph name="uni0328" format="2">
  <advance width="0"/>
  <unicode hex="0328"/>
  <note>
uni0328
</note>
  <anchor x="150" y="0" name="_ogonek"/>
  <outline>
    <contour>
      <point x="238" y="-158" type="line"/>
      <point x="230" y="-163"/>
      <point x="188" y="-168"/>
      <point x="167" y="-168" type="qcurve"/>
      <point x="142" y="-168"/>
      <point x="112" y="-148"/>
      <point x="112" y="-128" type="qcurve"/>
      <point x="112" y="-85"/>
      <point x="185" y="16" type="qcurve"/>
      <point x="145" y="36" type="line"/>
      <point x="91" y="-18"/>
      <point x="35" y="-99"/>
      <point x="35" y="-134" type="qcurve"/>
      <point x="35" y="-176"/>
      <point x="97" y="-232"/>
      <point x="165" y="-232" type="qcurve"/>
      <point x="193" y="-232"/>
      <point x="247" y="-222"/>
      <point x="264" y="-213" type="qcurve"/>
    </contour>
  </outline>
</glyph>
<glyph name="uni1E9E" format="2">
  <advance width="700"/>
  <unicode hex="1E9E"/>
  <note>
uni1E9E
</note>
  <anchor x="350" y="0" name="bottom"/>
  <anchor x="350" y="750" name="top"/>
  <outline>
    <contour>
      <point x="230" y="83" type="line"/>
      <point x="261" y="36"/>
      <point x="363" y="-14"/>
      <point x="427" y="-14" type="qcurve"/>
      <point x="491" y="-14"/>
      <point x="593" y="36"/>
      <point x="651" y="132"/>
      <point x="651" y="196" type="qcurve"/>
      <point x="651" y="239"/>
      <point x="624" y="301"/>
      <point x="584" y="341"/>
      <point x="552" y="365" type="qcurve"/>
      <point x="516" y="392"/>
      <point x="481" y="435"/>
      <point x="481" y="467" type="qcurve"/>
      <point x="481" y="510"/>
      <point x="537" y="580"/>
      <point x="607" y="633" type="qcurve"/>
      <point x="576" y="695"/>
      <point x="438" y="765"/>
      <point x="350" y="765" type="qcurve"/>
      <point x="269" y="765"/>
      <point x="142" y="710"/>
      <point x="69" y="604"/>
      <point x="69" y="530" type="qcurve"/>
      <point x="69" y="0" type="line"/>
      <point x="157" y="0" type="line"/>
      <point x="157" y="501" type="line" smooth="yes"/>
      <point x="157" y="543"/>
      <point x="189" y="627"/>
      <point x="275" y="688"/>
      <point x="350" y="688" type="qcurve"/>
      <point x="436" y="688"/>
      <point x="488" y="643" type="qcurve"/>
      <point x="441" y="609"/>
      <point x="386" y="519"/>
      <point x="386" y="465" type="qcurve"/>
      <point x="386" y="427"/>
      <point x="410" y="373"/>
      <point x="445" y="339"/>
      <point x="474" y="318" type="qcurve"/>
      <point x="502" y="297"/>
      <point x="534" y="266"/>
      <point x="556" y="219"/>
      <point x="556" y="186" type="qcurve"/>
      <point x="556" y="126"/>
      <point x="487" y="66"/>
      <point x="430" y="66" type="qcurve"/>
      <point x="392" y="66"/>
      <point x="335" y="102"/>
      <point x="320" y="135" type="qcurve"/>
    </contour>
  </outline>
</glyph>
<glyph name="emdash" format="2">
  <advance width="840"/>
  <unicode hex="2014"/>
  <outline>
    <contour>
      <point x="790" y="313" type="line"/>
      <point x="50" y="313" type="line"/>
      <point x="50" y="233" type="line"/>
      <point x="790" y="233" type="line"/>
    </contour>
  </outline>
</glyph>
<glyph name="quoteleft" format="2">
  <advance width="300"/>
  <unicode hex="2018"/>
  <note>
quoteleft
</note>
  <outline>
    <contour>
      <point x="150" y="506" type="qcurve"/>
      <point x="179" y="506"/>
      <point x="220" y="548"/>
      <point x="220" y="576" type="qcurve"/>
      <point x="220" y="605"/>
      <point x="179" y="646"/>
      <point x="150" y="646" type="qcurve"/>
      <point x="157" y="671"/>
      <point x="218" y="723"/>
      <point x="252" y="741" type="qcurve"/>
      <point x="212" y="783" type="line"/>
      <point x="150" y="740"/>
      <point x="80" y="639"/>
      <point x="80" y="576" type="qcurve"/>
      <point x="80" y="548"/>
      <point x="121" y="506"/>
    </contour>
  </outline>
</glyph>
<glyph name="quoteright" format="2">
  <advance width="300"/>
  <unicode hex="2019"/>
  <note>
quoteright
</note>
  <outline>
    <contour>
      <point x="88" y="489" type="line"/>
      <point x="150" y="532"/>
      <point x="220" y="633"/>
      <point x="220" y="696" type="qcurve"/>
      <point x="220" y="724"/>
      <point x="179" y="766"/>
      <point x="150" y="766" type="qcurve"/>
      <point x="121" y="766"/>
      <point x="80" y="724"/>
      <point x="80" y="696" type="qcurve"/>
      <point x="80" y="667"/>
      <point x="121" y="626"/>
      <point x="150" y="626" type="qcurve"/>
      <point x="143" y="601"/>
      <point x="82" y="549"/>
      <point x="48" y="531" type="qcurve"/>
    </contour>
  </outline>
</glyph>
<glyph name="quotesinglbase" format="2">
  <advance width="300"/>
  <unicode hex="201A"/>
  <note>
quotesinglbase
</note>
  <outline>
    <contour>
      <point x="88" y="-137" type="line"/>
      <point x="150" y="-94"/>
      <point x="220" y="7"/>
      <point x="220" y="70" type="qcurve"/>
      <point x="220" y="98"/>
      <point x="179" y="140"/>
      <point x="150" y="140" type="qcurve"/>
      <point x="121" y="140"/>
      <point x="80" y="98"/>
      <point x="80" y="70" type="qcurve"/>
      <point x="80" y="41"/>
      <point x="121" y="0"/>
      <point x="150" y="0" type="qcurve"/>
      <point x="143" y="-25"/>
      <point x="82" y="-77"/>
      <point x="48" y="-95" type="qcurve"/>
    </contour>
  </outline>
</glyph>
<glyph name="quotedblleft" format="2">
  <advance width="480"/>
  <unicode hex="201C"/>
  <note>
quotedblleft
</note>
  <outline>
    <contour>
      <point x="330" y="506" type="qcurve"/>
      <point x="359" y="506"/>
      <point x="400" y="548"/>
      <point x="400" y="576" type="qcurve"/>
      <point x="400" y="605"/>
      <point x="359" y="646"/>
      <point x="330" y="646" type="qcurve"/>
      <point x="337" y="671"/>
      <point x="398" y="723"/>
      <point x="432" y="741" type="qcurve"/>
      <point x="392" y="783" type="line"/>
      <point x="330" y="740"/>
      <point x="260" y="639"/>
      <point x="260" y="576" type="qcurve"/>
      <point x="260" y="548"/>
      <point x="301" y="506"/>
    </contour>
    <contour>
      <point x="150" y="506" type="qcurve"/>
      <point x="179" y="506"/>
      <point x="220" y="548"/>
      <point x="220" y="576" type="qcurve"/>
      <point x="220" y="605"/>
      <point x="179" y="646"/>
      <point x="150" y="646" type="qcurve"/>
      <point x="157" y="671"/>
      <point x="218" y="723"/>
      <point x="252" y="741" type="qcurve"/>
      <point x="212" y="783" type="line"/>
      <point x="150" y="740"/>
      <point x="80" y="639"/>
      <point x="80" y="576" type="qcurve"/>
      <point x="80" y="548"/>
      <point x="121" y="506"/>
    </contour>
  </outline>
</glyph>
<glyph name="quotedblright" format="2">
  <advance width="480"/>
  <unicode hex="201D"/>
  <note>
quotedblright
</note>
  <outline>
    <contour>
      <point x="268" y="489" type="line"/>
      <point x="330" y="532"/>
      <point x="400" y="633"/>
      <point x="400" y="696" type="qcurve"/>
      <point x="400" y="724"/>
      <point x="359" y="766"/>
      <point x="330" y="766" type="qcurve"/>
      <point x="301" y="766"/>
      <point x="260" y="724"/>
      <point x="260" y="696" type="qcurve"/>
      <point x="260" y="667"/>
      <point x="301" y="626"/>
      <point x="330" y="626" type="qcurve"/>
      <point x="323" y="601"/>
      <point x="262" y="549"/>
      <point x="228" y="531" type="qcurve"/>
    </contour>
    <contour>
      <point x="88" y="489" type="line"/>
      <point x="150" y="532"/>
      <point x="220" y="633"/>
      <point x="220" y="696" type="qcurve"/>
      <point x="220" y="724"/>
      <point x="179" y="766"/>
      <point x="150" y="766" type="qcurve"/>
      <point x="121" y="766"/>
      <point x="80" y="724"/>
      <point x="80" y="696" type="qcurve"/>
      <point x="80" y="667"/>
      <point x="121" y="626"/>
      <point x="150" y="626" type="qcurve"/>
      <point x="143" y="601"/>
      <point x="82" y="549"/>
      <point x="48" y="531" type="qcurve"/>
    </contour>
  </outline>
</glyph>
<glyph name="quotedblbase" format="2">
  <advance width="480"/>
  <unicode hex="201E"/>
  <note>
quotedblbase
</note>
  <outline>
    <contour>
      <point x="268" y="-137" type="line"/>
      <point x="330" y="-94"/>
      <point x="400" y="7"/>
      <point x="400" y="70" type="qcurve"/>
      <point x="400" y="98"/>
      <point x="359" y="140"/>
      <point x="330" y="140" type="qcurve"/>
      <point x="301" y="140"/>
      <point x="260" y="98"/>
      <point x="260" y="70" type="qcurve"/>
      <point x="260" y="41"/>
      <point x="301" y="0"/>
      <point x="330" y="0" type="qcurve"/>
      <point x="323" y="-25"/>
      <point x="262" y="-77"/>
      <point x="228" y="-95" type="qcurve"/>
    </contour>
    <contour>
      <point x="88" y="-137" type="line"/>
      <point x="150" y="-94"/>
      <point x="220" y="7"/>
      <point x="220" y="70" type="qcurve"/>
      <point x="220" y="98"/>
      <point x="179" y="140"/>
      <point x="150" y="140" type="qcurve"/>
      <point x="121" y="140"/>
      <point x="80" y="98"/>
      <point x="80" y="70" type="qcurve"/>
      <point x="80" y="41"/>
      <point x="121" y="0"/>
      <point x="150" y="0" type="qcurve"/>
      <point x="143" y="-25"/>
      <point x="82" y="-77"/>
      <point x="48" y="-95" type="qcurve"/>
    </contour>
  </outline>
</glyph>
<glyph name="bullet" format="2">
  <advance width="340"/>
  <unicode hex="2022"/>
  <note>
bullet
</note>
  <outline>
    <contour>
      <point x="170" y="255" type="qcurve"/>
      <point x="212" y="255"/>
      <point x="270" y="313"/>
      <point x="270" y="354" type="qcurve"/>
      <point x="270" y="396"/>
      <point x="212" y="454"/>
      <point x="170" y="454" type="qcurve"/>
      <point x="129" y="454"/>
      <point x="70" y="396"/>
      <point x="70" y="354" type="qcurve"/>
      <point x="70" y="313"/>
      <point x="129" y="255"/>
    </contour>
  </outline>
</glyph>
<glyph name="guilsinglleft" format="2">
  <advance width="400"/>
  <unicode hex="2039"/>
  <outline>
    <contour>
      <point x="273" y="491" type="line"/>
      <point x="74" y="263" type="line"/>
      <point x="273" y="35" type="line"/>
      <point x="330" y="90" type="line"/>
      <point x="178" y="263" type="line"/>
      <point x="330" y="436" type="line"/>
    </contour>
  </outline>
</glyph>
<glyph name="guilsinglright" format="2">
  <advance width="400"/>
  <unicode hex="203A"/>
  <outline>
    <contour>
      <point x="127" y="491" type="line"/>
      <point x="70" y="436" type="line"/>
      <point x="222" y="263" type="line"/>
      <point x="70" y="90" type="line"/>
      <point x="127" y="35" type="line"/>
      <point x="326" y="263" type="line"/>
    </contour>
  </outline>
</glyph>
<glyph name="Euro" format="2">
  <advance width="727"/>
  <unicode hex="20AC"/>
  <outline>
    <component base="C"/>
    <contour>
      <point x="350" y="327" type="line"/>
      <point x="0" y="327" type="line"/>
      <point x="0" y="247" type="line"/>
      <point x="350" y="247" type="line"/>
    </contour>
    <contour>
      <point x="350" y="507" type="line"/>
      <point x="0" y="507" type="line"/>
      <point x="0" y="427" type="line"/>
      <point x="350" y="427" type="line"/>
    </contour>
  </outline>
</glyph>
<glyph name="trademark" format="2">
  <advance width="1036"/>
  <unicode hex="2122"/>
  <outline>
    <contour>
      <point x="194" y="284" type="line"/>
      <point x="268" y="284" type="line"/>
      <point x="268" y="680" type="line"/>
      <point x="427" y="680" type="line"/>
      <point x="427" y="750" type="line"/>
      <point x="36" y="750" type="line"/>
      <point x="36" y="680" type="line"/>
      <point x="194" y="680" type="line"/>
    </contour>
    <contour>
      <point x="482" y="284" type="line"/>
      <point x="557" y="284" type="line"/>
      <point x="557" y="612" type="line"/>
      <point x="688" y="284" type="line"/>
      <point x="759" y="284" type="line"/>
      <point x="891" y="612" type="line"/>
      <point x="891" y="284" type="line"/>
      <point x="966" y="284" type="line"/>
      <point x="966" y="750" type="line"/>
      <point x="870" y="750" type="line"/>
      <point x="724" y="378" type="line"/>
      <point x="577" y="750" type="line"/>
      <point x="482" y="750" type="line"/>
    </contour>
  </outline>
</glyph>
<glyph name="minus" format="2">
  <advance width="534"/>
  <unicode hex="2212"/>
  <outline>
    <contour>
      <point x="484" y="371" type="line"/>
      <point x="50" y="371" type="line"/>
      <point x="50" y="291" type="line"/>
      <point x="484" y="291" type="line"/>
    </contour>
  </outline>
</glyph>
<glyph name="uni2E86" format="2">
  <advance width="1000"/>
  <unicode hex="2E86"/>
  <outline>
    <contour>
      <point x="798" y="-80" type="curve" smooth="yes"/>
      <point x="847" y="-80"/>
      <point x="880" y="-62"/>
      <point x="880" y="5" type="curve" smooth="yes"/>
      <point x="880" y="622" type="line" smooth="yes"/>
      <point x="880" y="757"/>
      <point x="836" y="802"/>
      <point x="689" y="802" type="curve" smooth="yes"/>
      <point x="431" y="802" type="line" smooth="yes"/>
      <point x="321" y="802"/>
      <point x="258" y="791"/>
      <point x="204" y="772" type="curve"/>
      <point x="204" y="702" type="line"/>
      <point x="266" y="722"/>
      <point x="325" y="732"/>
      <point x="425" y="732" type="curve" smooth="yes"/>
      <point x="684" y="732" type="line" smooth="yes"/>
      <point x="773" y="732"/>
      <point x="805" y="701"/>
      <point x="805" y="618" type="curve" smooth="yes"/>
      <point x="805" y="9" type="line" smooth="yes"/>
      <point x="805" y="-8"/>
      <point x="798" y="-15"/>
      <point x="780" y="-15" type="curve" smooth="yes"/>
      <point x="738" y="-15"/>
      <point x="693" y="-8"/>
      <point x="646" y="7" type="curve"/>
      <point x="646" y="-69" type="line"/>
      <point x="694" y="-77"/>
      <point x="736" y="-80"/>
    </contour>
    <contour>
      <point x="38" y="-40" type="curve"/>
      <point x="106" y="-76" type="line"/>
      <point x="219" y="88"/>
      <point x="222" y="289"/>
      <point x="222" y="468" type="curve" smooth="yes"/>
      <point x="222" y="802" type="line"/>
      <point x="148" y="802" type="line"/>
      <point x="148" y="468" type="line" smooth="yes"/>
      <point x="148" y="300"/>
      <point x="143" y="115"/>
    </contour>
  </outline>
</glyph>
<glyph name="uni2E88" format="2">
  <advance width="1000"/>
  <unicode hex="2E88"/>
  <outline>
    <contour>
      <point x="406" y="433" type="curve"/>
      <point x="473" y="394" type="line"/>
      <point x="595" y="485"/>
      <point x="717" y="598"/>
      <point x="814" y="714" type="curve"/>
      <point x="746" y="754" type="line"/>
      <point x="730" y="740" type="line"/>
      <point x="359" y="740" type="line"/>
      <point x="358" y="662" type="line"/>
      <point x="667" y="662" type="line"/>
      <point x="611" y="600"/>
      <point x="515" y="510"/>
    </contour>
    <contour>
      <point x="123" y="557" type="curve"/>
      <point x="174" y="495" type="line"/>
      <point x="293" y="582"/>
      <point x="418" y="690"/>
      <point x="511" y="809" type="curve"/>
      <point x="438" y="842" type="line"/>
      <point x="355" y="732"/>
      <point x="242" y="635"/>
    </contour>
  </outline>
</glyph>
<glyph name="uni2E8C" format="2">
  <advance width="1000"/>
  <unicode hex="2E8C"/>
  <outline>
    <contour>
      <point x="269" y="475" type="curve"/>
      <point x="338" y="524" type="line"/>
      <point x="311" y="595"/>
      <point x="255" y="699"/>
      <point x="202" y="776" type="curve"/>
      <point x="137" y="732" type="line"/>
      <point x="188" y="656"/>
      <point x="243" y="548"/>
    </contour>
    <contour>
      <point x="460" y="404" type="line"/>
      <point x="540" y="404" type="line"/>
      <point x="540" y="841" type="line"/>
      <point x="460" y="841" type="line"/>
    </contour>
    <contour>
      <point x="651" y="518" type="curve"/>
      <point x="717" y="475" type="line"/>
      <point x="764" y="542"/>
      <point x="825" y="650"/>
      <point x="870" y="741" type="curve"/>
      <point x="795" y="785" type="line"/>
      <point x="760" y="699"/>
      <point x="699" y="589"/>
    </contour>
  </outline>
</glyph>
<glyph name="uni2E8D" format="2">
  <advance width="1000"/>
  <unicode hex="2E8D"/>
  <outline>
    <contour>
      <point x="203" y="415" type="curve"/>
      <point x="278" y="456" type="line"/>
      <point x="261" y="542"/>
      <point x="216" y="662"/>
      <point x="176" y="752" type="curve"/>
      <point x="103" y="718" type="line"/>
      <point x="140" y="631"/>
      <point x="181" y="501"/>
    </contour>
    <contour>
      <point x="473" y="457" type="curve"/>
      <point x="556" y="488" type="line"/>
      <point x="543" y="583"/>
      <point x="508" y="706"/>
      <point x="472" y="810" type="curve"/>
      <point x="393" y="782" type="line"/>
      <point x="426" y="680"/>
      <point x="459" y="551"/>
    </contour>
    <contour>
      <point x="698" y="439" type="curve"/>
      <point x="772" y="411" type="line"/>
      <point x="814" y="505"/>
      <point x="862" y="643"/>
      <point x="895" y="751" type="curve"/>
      <point x="807" y="785" type="line"/>
      <point x="782" y="677"/>
      <point x="738" y="540"/>
    </contour>
  </outline>
</glyph>
<glyph name="uni2E99" format="2">
  <advance width="1000"/>
  <unicode hex="2E99"/>
  <outline>
    <contour>
      <point x="127" y="479" type="curve"/>
      <point x="199" y="435" type="line"/>
      <point x="275" y="539"/>
      <point x="344" y="670"/>
      <point x="402" y="802" type="curve"/>
      <point x="329" y="831" type="line"/>
      <point x="273" y="696"/>
      <point x="203" y="575"/>
    </contour>
    <contour>
      <point x="111" y="5" type="curve"/>
      <point x="163" y="-64" type="line"/>
      <point x="473" y="45"/>
      <point x="778" y="230"/>
      <point x="868" y="622" type="curve"/>
      <point x="816" y="658" type="line"/>
      <point x="791" y="645" type="line"/>
      <point x="262" y="645" type="line"/>
      <point x="262" y="564" type="line"/>
      <point x="769" y="564" type="line"/>
      <point x="681" y="270"/>
      <point x="401" y="103"/>
    </contour>
    <contour>
      <point x="843" y="-75" type="curve"/>
      <point x="905" y="-6" type="line"/>
      <point x="660" y="169"/>
      <point x="461" y="287"/>
      <point x="233" y="381" type="curve"/>
      <point x="192" y="319" type="line"/>
      <point x="417" y="220"/>
      <point x="608" y="104"/>
    </contour>
  </outline>
</glyph>
<glyph name="uni2EA1" format="2">
  <advance width="1000"/>
  <unicode hex="2EA1"/>
  <outline>
    <contour>
      <point x="143" y="-36" type="curve"/>
      <point x="228" y="-27" type="line"/>
      <point x="172" y="115"/>
      <point x="161" y="218"/>
      <point x="195" y="303" type="curve" smooth="yes"/>
      <point x="233" y="399"/>
      <point x="237" y="475"/>
      <point x="180" y="556" type="curve"/>
      <point x="97" y="537" type="line"/>
      <point x="149" y="449"/>
      <point x="152" y="383"/>
      <point x="117" y="309" type="curve" smooth="yes"/>
      <point x="79" y="228"/>
      <point x="85" y="115"/>
    </contour>
    <contour>
      <point x="256" y="639" type="curve"/>
      <point x="300" y="703" type="line"/>
      <point x="258" y="733"/>
      <point x="177" y="780"/>
      <point x="117" y="811" type="curve"/>
      <point x="75" y="755" type="line"/>
      <point x="136" y="721"/>
      <point x="216" y="670"/>
    </contour>
  </outline>
</glyph>
<glyph name="uni2EA2" format="2">
  <advance width="1000"/>
  <unicode hex="2EA2"/>
  <outline>
    <contour>
      <point x="455" y="-75" type="curve" smooth="yes"/>
      <point x="516" y="-75"/>
      <point x="551" y="-50"/>
      <point x="551" y="22" type="curve" smooth="yes"/>
      <point x="551" y="678" type="line"/>
      <point x="470" y="678" type="line"/>
      <point x="470" y="22" type="line" smooth="yes"/>
      <point x="470" y="2"/>
      <point x="463" y="-4"/>
      <point x="444" y="-4" type="curve" smooth="yes"/>
      <point x="404" y="-4"/>
      <point x="349" y="8"/>
      <point x="300" y="23" type="curve"/>
      <point x="300" y="-62" type="line"/>
      <point x="344" y="-70"/>
      <point x="403" y="-75"/>
    </contour>
    <contour>
      <point x="616" y="110" type="line"/>
      <point x="924" y="110" type="line"/>
      <point x="924" y="183" type="line"/>
      <point x="793" y="183" type="line"/>
      <point x="793" y="507" type="line"/>
      <point x="718" y="507" type="line"/>
      <point x="718" y="183" type="line"/>
      <point x="616" y="183" type="line"/>
    </contour>
    <contour>
      <point x="232" y="282" type="curve"/>
      <point x="263" y="343"/>
      <point x="294" y="412"/>
      <point x="327" y="491" type="curve"/>
      <point x="260" y="512" type="line"/>
      <point x="197" y="351"/>
      <point x="123" y="231"/>
      <point x="53" y="163" type="curve"/>
      <point x="119" y="117" type="line"/>
      <point x="140" y="147"/>
      <point x="166" y="181"/>
      <point x="185" y="197" type="curve" smooth="yes"/>
      <point x="199" y="208"/>
      <point x="221" y="209"/>
      <point x="234" y="205" type="curve" smooth="yes"/>
      <point x="248" y="200"/>
      <point x="263" y="176"/>
      <point x="273" y="122" type="curve"/>
      <point x="412" y="204" type="line"/>
      <point x="387" y="255" type="line"/>
      <point x="305" y="220" type="line"/>
      <point x="300" y="253"/>
      <point x="274" y="271"/>
    </contour>
  </outline>
</glyph>
<glyph name="uni2EA8" format="2">
  <advance width="1000"/>
  <unicode hex="2EA8"/>
  <outline>
    <contour>
      <point x="247" y="-77" type="curve" smooth="yes"/>
      <point x="299" y="-77"/>
      <point x="324" y="-54"/>
      <point x="324" y="9" type="curve" smooth="yes"/>
      <point x="324" y="834" type="line"/>
      <point x="249" y="834" type="line"/>
      <point x="249" y="12" type="line" smooth="yes"/>
      <point x="249" y="-2"/>
      <point x="244" y="-10"/>
      <point x="230" y="-10" type="curve" smooth="yes"/>
      <point x="202" y="-10"/>
      <point x="168" y="-3"/>
      <point x="129" y="12" type="curve"/>
      <point x="129" y="-66" type="line"/>
      <point x="167" y="-73"/>
      <point x="206" y="-77"/>
    </contour>
    <contour>
      <point x="38" y="562" type="curve"/>
      <point x="80" y="492" type="line"/>
      <point x="234" y="551"/>
      <point x="379" y="623"/>
      <point x="496" y="696" type="curve"/>
      <point x="453" y="758" type="line"/>
      <point x="338" y="685"/>
      <point x="195" y="618"/>
    </contour>
    <contour>
      <point x="53" y="202" type="line"/>
      <point x="112" y="160" type="line"/>
      <point x="129" y="180" type="line"/>
      <point x="506" y="279" type="line"/>
      <point x="489" y="356" type="line"/>
      <point x="180" y="273" type="line"/>
      <point x="305" y="534" type="line"/>
      <point x="248" y="564" type="line"/>
    </contour>
  </outline>
</glyph>
<glyph name="uni2EBA" format="2">
  <advance width="1000"/>
  <unicode hex="2EBA"/>
  <outline>
    <contour>
      <point x="458" y="-65" type="line"/>
      <point x="542" y="-65" type="line"/>
      <point x="542" y="821" type="line"/>
      <point x="458" y="821" type="line"/>
    </contour>
    <contour>
      <point x="167" y="203" type="line"/>
      <point x="346" y="316" type="line"/>
      <point x="300" y="378" type="line"/>
      <point x="121" y="268" type="line"/>
    </contour>
    <contour>
      <point x="514" y="323" type="curve"/>
      <point x="514" y="237" type="line"/>
      <point x="797" y="215"/>
      <point x="887" y="304"/>
      <point x="887" y="423" type="curve" smooth="yes"/>
      <point x="887" y="534"/>
      <point x="800" y="609"/>
      <point x="581" y="609" type="curve" smooth="yes"/>
      <point x="389" y="609"/>
      <point x="212" y="555"/>
      <point x="104" y="493" type="curve"/>
      <point x="147" y="419" type="line"/>
      <point x="246" y="477"/>
      <point x="411" y="524"/>
      <point x="581" y="524" type="curve" smooth="yes"/>
      <point x="725" y="524"/>
      <point x="802" y="495"/>
      <point x="802" y="423" type="curve" smooth="yes"/>
      <point x="802" y="335"/>
      <point x="706" y="297"/>
    </contour>
  </outline>
</glyph>
<glyph name="uni2EC3" format="2">
  <advance width="1000"/>
  <unicode hex="2EC3"/>
  <outline>
    <contour>
      <point x="69" y="722" type="line"/>
      <point x="930" y="722" type="line"/>
      <point x="930" y="797" type="line"/>
      <point x="69" y="797" type="line"/>
    </contour>
    <contour>
      <point x="809" y="396" type="curve"/>
      <point x="886" y="362" type="line"/>
      <point x="910" y="411"/>
      <point x="921" y="454"/>
      <point x="921" y="512" type="curve" smooth="yes"/>
      <point x="921" y="614"/>
      <point x="805" y="653"/>
      <point x="617" y="653" type="curve" smooth="yes"/>
      <point x="426" y="653"/>
      <point x="271" y="599"/>
      <point x="164" y="509" type="curve"/>
      <point x="164" y="636" type="line"/>
      <point x="82" y="636" type="line"/>
      <point x="82" y="384" type="line"/>
      <point x="164" y="384" type="line"/>
      <point x="164" y="449" type="line"/>
      <point x="271" y="534"/>
      <point x="453" y="568"/>
      <point x="617" y="568" type="curve" smooth="yes"/>
      <point x="784" y="568"/>
      <point x="836" y="534"/>
      <point x="836" y="511" type="curve" smooth="yes"/>
      <point x="836" y="472"/>
      <point x="830" y="437"/>
    </contour>
    <contour>
      <point x="354" y="382" type="curve"/>
      <point x="435" y="416" type="line"/>
      <point x="410" y="511"/>
      <point x="357" y="652"/>
      <point x="311" y="755" type="curve"/>
      <point x="234" y="727" type="line"/>
      <point x="282" y="626"/>
      <point x="332" y="480"/>
    </contour>
    <contour>
      <point x="541" y="408" type="curve"/>
      <point x="614" y="382" type="line"/>
      <point x="654" y="472"/>
      <point x="708" y="617"/>
      <point x="746" y="739" type="curve"/>
      <point x="665" y="767" type="line"/>
      <point x="636" y="652"/>
      <point x="582" y="504"/>
    </contour>
  </outline>
</glyph>
<glyph name="uni2EC8" format="2">
  <advance width="1000"/>
  <unicode hex="2EC8"/>
  <outline>
    <contour>
      <point x="199" y="803" type="curve"/>
      <point x="143" y="753" type="line"/>
      <point x="197" y="706"/>
      <point x="257" y="648"/>
      <point x="287" y="607" type="curve"/>
      <point x="345" y="662" type="line"/>
      <point x="313" y="702"/>
      <point x="253" y="759"/>
    </contour>
    <contour>
      <point x="175" y="25" type="line"/>
      <point x="244" y="10" type="line"/>
      <point x="389" y="491" type="line"/>
      <point x="326" y="524" type="line"/>
      <point x="307" y="511" type="line"/>
      <point x="56" y="511" type="line"/>
      <point x="56" y="436" type="line"/>
      <point x="290" y="436" type="line"/>
    </contour>
    <contour>
      <point x="412" y="158" type="line"/>
      <point x="86" y="6" type="line"/>
      <point x="118" y="-69" type="line"/>
      <point x="444" y="94" type="line"/>
    </contour>
  </outline>
</glyph>
<glyph name="uni2ED7" format="2">
  <advance width="1000"/>
  <unicode hex="2ED7"/>
  <outline>
    <contour>
      <point x="801" y="445" type="curve"/>
      <point x="854" y="388" type="line"/>
      <point x="896" y="424"/>
      <point x="932" y="470"/>
      <point x="932" y="538" type="curve" smooth="yes"/>
      <point x="932" y="632"/>
      <point x="843" y="698"/>
      <point x="583" y="698" type="curve" smooth="yes"/>
      <point x="406" y="698"/>
      <point x="263" y="664"/>
      <point x="153" y="599" type="curve"/>
      <point x="153" y="675" type="line"/>
      <point x="77" y="675" type="line"/>
      <point x="77" y="410" type="line"/>
      <point x="153" y="410" type="line"/>
      <point x="153" y="541" type="line"/>
      <point x="267" y="592"/>
      <point x="418" y="622"/>
      <point x="582" y="622" type="curve" smooth="yes"/>
      <point x="798" y="622"/>
      <point x="850" y="575"/>
      <point x="850" y="538" type="curve" smooth="yes"/>
      <point x="850" y="504"/>
      <point x="835" y="473"/>
    </contour>
    <contour>
      <point x="461" y="499" type="line"/>
      <point x="540" y="499" type="line"/>
      <point x="540" y="787" type="line"/>
      <point x="461" y="787" type="line"/>
    </contour>
    <contour>
      <point x="703" y="527" type="line"/>
      <point x="298" y="526" type="line"/>
      <point x="298" y="451" type="line"/>
      <point x="703" y="451" type="line"/>
    </contour>
    <contour>
      <point x="823" y="827" type="line"/>
      <point x="168" y="826" type="line"/>
      <point x="168" y="751" type="line"/>
      <point x="823" y="751" type="line"/>
    </contour>
  </outline>
</glyph>
<glyph name="uni2F03" format="2">
  <advance width="1000"/>
  <unicode hex="2F03"/>
  <outline>
    <contour>
      <point x="250" y="198" type="curve"/>
      <point x="317" y="130" type="line"/>
      <point x="477" y="262"/>
      <point x="628" y="419"/>
      <point x="750" y="581" type="curve"/>
      <point x="682" y="630" type="line"/>
      <point x="562" y="469"/>
      <point x="413" y="320"/>
    </contour>
  </outline>
</glyph>
<glyph name="uni2F04" format="2">
  <advance width="1000"/>
  <unicode hex="2F04"/>
  <outline>
    <contour>
      <point x="223" y="-45" type="curve" smooth="yes"/>
      <point x="817" y="-45" type="line" smooth="yes"/>
      <point x="887" y="-45"/>
      <point x="914" y="20"/>
      <point x="932" y="185" type="curve"/>
      <point x="852" y="196" type="line"/>
      <point x="844" y="77"/>
      <point x="827" y="37"/>
      <point x="793" y="37" type="curve" smooth="yes"/>
      <point x="255" y="37" type="line" smooth="yes"/>
      <point x="209" y="37"/>
      <point x="191" y="44"/>
      <point x="191" y="60" type="curve" smooth="yes"/>
      <point x="191" y="85"/>
      <point x="209" y="126"/>
      <point x="862" y="666" type="curve"/>
      <point x="815" y="751" type="line"/>
      <point x="794" y="739" type="line"/>
      <point x="166" y="739" type="line"/>
      <point x="166" y="656" type="line"/>
      <point x="727" y="657" type="line"/>
      <point x="139" y="190"/>
      <point x="98" y="121"/>
      <point x="98" y="60" type="curve" smooth="yes"/>
      <point x="98" y="1"/>
      <point x="129" y="-45"/>
    </contour>
  </outline>
</glyph>
<glyph name="uni2F05" format="2">
  <advance width="1000"/>
  <unicode hex="2F05"/>
  <outline>
    <contour>
      <point x="455" y="-79" type="curve" smooth="yes"/>
      <point x="515" y="-79"/>
      <point x="549" y="-44"/>
      <point x="549" y="16" type="curve" smooth="yes"/>
      <point x="549" y="814" type="line"/>
      <point x="470" y="814" type="line"/>
      <point x="470" y="29" type="line" smooth="yes"/>
      <point x="470" y="10"/>
      <point x="458" y="-5"/>
      <point x="436" y="-5" type="curve" smooth="yes"/>
      <point x="383" y="-5"/>
      <point x="331" y="5"/>
      <point x="275" y="26" type="curve"/>
      <point x="275" y="-58" type="line"/>
      <point x="333" y="-73"/>
      <point x="385" y="-79"/>
    </contour>
  </outline>
</glyph>
<glyph name="uni2F07" format="2">
  <advance width="1000"/>
  <unicode hex="2F07"/>
  <outline>
    <contour>
      <point x="87" y="634" type="line"/>
      <point x="913" y="634" type="line"/>
      <point x="913" y="711" type="line"/>
      <point x="561" y="711" type="line"/>
      <point x="507" y="825" type="line"/>
      <point x="430" y="807" type="line"/>
      <point x="474" y="711" type="line"/>
      <point x="87" y="711" type="line"/>
    </contour>
  </outline>
</glyph>
<glyph name="uni2F09" format="2">
  <advance width="1000"/>
  <unicode hex="2F09"/>
  <outline>
    <contour>
      <point x="687" y="67" type="curve" smooth="yes"/>
      <point x="687" y="786" type="line"/>
      <point x="604" y="786" type="line"/>
      <point x="604" y="69" type="line" smooth="yes"/>
      <point x="604" y="-30"/>
      <point x="629" y="-58"/>
      <point x="699" y="-58" type="curve" smooth="yes"/>
      <point x="836" y="-58" type="line" smooth="yes"/>
      <point x="921" y="-58"/>
      <point x="939" y="-21"/>
      <point x="945" y="151" type="curve"/>
      <point x="870" y="166" type="line"/>
      <point x="866" y="24"/>
      <point x="857" y="16"/>
      <point x="832" y="16" type="curve" smooth="yes"/>
      <point x="718" y="16" type="line" smooth="yes"/>
      <point x="696" y="16"/>
      <point x="687" y="27"/>
    </contour>
    <contour>
      <point x="376" y="475" type="curve" smooth="yes"/>
      <point x="376" y="786" type="line"/>
      <point x="296" y="786" type="line"/>
      <point x="296" y="481" type="line" smooth="yes"/>
      <point x="296" y="312"/>
      <point x="271" y="129"/>
      <point x="60" y="-19" type="curve"/>
      <point x="118" y="-78" type="line"/>
      <point x="344" y="75"/>
      <point x="376" y="289"/>
    </contour>
  </outline>
</glyph>
<glyph name="uni2F0B" format="2">
  <advance width="1000"/>
  <unicode hex="2F0B"/>
  <outline>
    <contour>
      <point x="54" y="79" type="curve"/>
      <point x="129" y="37" type="line"/>
      <point x="233" y="248"/>
      <point x="315" y="495"/>
      <point x="366" y="715" type="curve"/>
      <point x="280" y="732" type="line"/>
      <point x="236" y="520"/>
      <point x="148" y="265"/>
    </contour>
    <contour>
      <point x="846" y="29" type="curve"/>
      <point x="937" y="57" type="line"/>
      <point x="869" y="291"/>
      <point x="774" y="553"/>
      <point x="690" y="749" type="curve"/>
      <point x="611" y="711" type="line"/>
      <point x="694" y="523"/>
      <point x="782" y="271"/>
    </contour>
  </outline>
</glyph>
<glyph name="uni2F0D" format="2">
  <advance width="1000"/>
  <unicode hex="2F0D"/>
  <outline>
    <contour>
      <point x="809" y="526" type="curve"/>
      <point x="886" y="492" type="line"/>
      <point x="910" y="541"/>
      <point x="921" y="584"/>
      <point x="921" y="642" type="curve" smooth="yes"/>
      <point x="921" y="744"/>
      <point x="805" y="783"/>
      <point x="617" y="783" type="curve" smooth="yes"/>
      <point x="426" y="783"/>
      <point x="271" y="729"/>
      <point x="164" y="639" type="curve"/>
      <point x="164" y="766" type="line"/>
      <point x="82" y="766" type="line"/>
      <point x="82" y="514" type="line"/>
      <point x="164" y="514" type="line"/>
      <point x="164" y="579" type="line"/>
      <point x="271" y="664"/>
      <point x="453" y="698"/>
      <point x="617" y="698" type="curve" smooth="yes"/>
      <point x="784" y="698"/>
      <point x="836" y="664"/>
      <point x="836" y="641" type="curve" smooth="yes"/>
      <point x="836" y="602"/>
      <point x="830" y="567"/>
    </contour>
  </outline>
</glyph>
<glyph name="uni2F14" format="2">
  <advance width="1000"/>
  <unicode hex="2F14"/>
  <outline>
    <contour>
      <point x="70" y="262" type="curve"/>
      <point x="129" y="180" type="line"/>
      <point x="432" y="323"/>
      <point x="748" y="559"/>
      <point x="951" y="746" type="curve"/>
      <point x="888" y="804" type="line"/>
      <point x="690" y="618"/>
      <point x="377" y="393"/>
    </contour>
    <contour>
      <point x="293" y="-65" type="curve" smooth="yes"/>
      <point x="762" y="-65" type="line" smooth="yes"/>
      <point x="868" y="-65"/>
      <point x="889" y="-11"/>
      <point x="901" y="163" type="curve"/>
      <point x="820" y="188" type="line"/>
      <point x="813" y="50"/>
      <point x="805" y="18"/>
      <point x="749" y="18" type="curve" smooth="yes"/>
      <point x="311" y="18" type="line" smooth="yes"/>
      <point x="255" y="18"/>
      <point x="243" y="31"/>
      <point x="243" y="81" type="curve" smooth="yes"/>
      <point x="243" y="816" type="line"/>
      <point x="162" y="816" type="line"/>
      <point x="162" y="75" type="line" smooth="yes"/>
      <point x="162" y="-36"/>
      <point x="187" y="-65"/>
    </contour>
  </outline>
</glyph>
<glyph name="uni2F1A" format="2">
  <advance width="1000"/>
  <unicode hex="2F1A"/>
  <outline>
    <contour>
      <point x="943" y="791" type="line"/>
      <point x="131" y="791" type="line"/>
      <point x="131" y="470" type="line" smooth="yes"/>
      <point x="131" y="325"/>
      <point x="123" y="122"/>
      <point x="35" y="-23" type="curve"/>
      <point x="103" y="-60" type="line"/>
      <point x="196" y="92"/>
      <point x="209" y="317"/>
      <point x="209" y="470" type="curve" smooth="yes"/>
      <point x="209" y="714" type="line"/>
      <point x="943" y="714" type="line"/>
    </contour>
  </outline>
</glyph>
<glyph name="uni2F1C" format="2">
  <advance width="1000"/>
  <unicode hex="2F1C"/>
  <outline>
    <contour>
      <point x="556" y="775" type="curve" smooth="yes"/>
      <point x="381" y="775"/>
      <point x="245" y="720"/>
      <point x="116" y="645" type="curve"/>
      <point x="145" y="568" type="line"/>
      <point x="274" y="652"/>
      <point x="399" y="697"/>
      <point x="556" y="697" type="curve" smooth="yes"/>
      <point x="687" y="697"/>
      <point x="762" y="638"/>
      <point x="762" y="555" type="curve" smooth="yes"/>
      <point x="762" y="330"/>
      <point x="425" y="32"/>
      <point x="272" y="32" type="curve" smooth="yes"/>
      <point x="217" y="32"/>
      <point x="164" y="81"/>
      <point x="164" y="194" type="curve" smooth="yes"/>
      <point x="164" y="280"/>
      <point x="210" y="350"/>
      <point x="305" y="350" type="curve" smooth="yes"/>
      <point x="469" y="350"/>
      <point x="632" y="109"/>
      <point x="893" y="-73" type="curve"/>
      <point x="947" y="-8" type="line"/>
      <point x="694" y="165"/>
      <point x="508" y="431"/>
      <point x="305" y="431" type="curve" smooth="yes"/>
      <point x="182" y="431"/>
      <point x="83" y="353"/>
      <point x="83" y="194" type="curve" smooth="yes"/>
      <point x="83" y="36"/>
      <point x="165" y="-52"/>
      <point x="272" y="-52" type="curve" smooth="yes"/>
      <point x="445" y="-52"/>
      <point x="846" y="278"/>
      <point x="846" y="555" type="curve" smooth="yes"/>
      <point x="846" y="707"/>
      <point x="741" y="775"/>
    </contour>
  </outline>
</glyph>
<glyph name="uni2F26" format="2">
  <advance width="1000"/>
  <unicode hex="2F26"/>
  <outline>
    <contour>
      <point x="446" y="-78" type="curve" smooth="yes"/>
      <point x="498" y="-78"/>
      <point x="552" y="-44"/>
      <point x="552" y="16" type="curve" smooth="yes"/>
      <point x="552" y="462" type="line"/>
      <point x="667" y="530"/>
      <point x="786" y="627"/>
      <point x="868" y="722" type="curve"/>
      <point x="808" y="772" type="line"/>
      <point x="791" y="761" type="line"/>
      <point x="129" y="761" type="line"/>
      <point x="129" y="687" type="line"/>
      <point x="720" y="687" type="line"/>
      <point x="654" y="618"/>
      <point x="558" y="549"/>
      <point x="473" y="501" type="curve"/>
      <point x="473" y="29" type="line" smooth="yes"/>
      <point x="473" y="10"/>
      <point x="458" y="-5"/>
      <point x="433" y="-5" type="curve" smooth="yes"/>
      <point x="380" y="-6"/>
      <point x="325" y="3"/>
      <point x="271" y="20" type="curve"/>
      <point x="271" y="-62" type="line"/>
      <point x="328" y="-74"/>
      <point x="375" y="-78"/>
    </contour>
    <contour>
      <point x="939" y="306" type="curve"/>
      <point x="959" y="387" type="line"/>
      <point x="738" y="419"/>
      <point x="444" y="420"/>
      <point x="55" y="386" type="curve"/>
      <point x="55" y="312" type="line"/>
      <point x="439" y="343"/>
      <point x="734" y="336"/>
    </contour>
  </outline>
</glyph>
